%TF.GenerationSoftware,KiCad,Pcbnew,10.0.4*%
%TF.CreationDate,2026-10-06T10:17:39+02:00*%
%TF.ProjectId,Engine Simulator 2.0,456e6769-6e65-4205-9369-6d756c61746f,rev?*%
%TF.SameCoordinates,Original*%
%TF.FileFunction,AssemblyDrawing,Top*%
%FSLAX46Y46*%
G04 Gerber Fmt 4.6, Leading zero omitted, Abs format (unit mm)*
G04 Created by KiCad (PCBNEW 10.0.4) date 2026-10-06 10:17:39*
%MOMM*%
%LPD*%
G01*
G04 APERTURE LIST*
%ADD10C,0.150000*%
%ADD11C,0.120000*%
%ADD12C,0.140000*%
%ADD13C,0.100000*%
G04 APERTURE END LIST*
D10*
X123359580Y-147211566D02*
X123407200Y-147259185D01*
X123407200Y-147259185D02*
X123454819Y-147402042D01*
X123454819Y-147402042D02*
X123454819Y-147497280D01*
X123454819Y-147497280D02*
X123407200Y-147640137D01*
X123407200Y-147640137D02*
X123311961Y-147735375D01*
X123311961Y-147735375D02*
X123216723Y-147782994D01*
X123216723Y-147782994D02*
X123026247Y-147830613D01*
X123026247Y-147830613D02*
X122883390Y-147830613D01*
X122883390Y-147830613D02*
X122692914Y-147782994D01*
X122692914Y-147782994D02*
X122597676Y-147735375D01*
X122597676Y-147735375D02*
X122502438Y-147640137D01*
X122502438Y-147640137D02*
X122454819Y-147497280D01*
X122454819Y-147497280D02*
X122454819Y-147402042D01*
X122454819Y-147402042D02*
X122502438Y-147259185D01*
X122502438Y-147259185D02*
X122550057Y-147211566D01*
X122454819Y-146306804D02*
X122454819Y-146782994D01*
X122454819Y-146782994D02*
X122931009Y-146830613D01*
X122931009Y-146830613D02*
X122883390Y-146782994D01*
X122883390Y-146782994D02*
X122835771Y-146687756D01*
X122835771Y-146687756D02*
X122835771Y-146449661D01*
X122835771Y-146449661D02*
X122883390Y-146354423D01*
X122883390Y-146354423D02*
X122931009Y-146306804D01*
X122931009Y-146306804D02*
X123026247Y-146259185D01*
X123026247Y-146259185D02*
X123264342Y-146259185D01*
X123264342Y-146259185D02*
X123359580Y-146306804D01*
X123359580Y-146306804D02*
X123407200Y-146354423D01*
X123407200Y-146354423D02*
X123454819Y-146449661D01*
X123454819Y-146449661D02*
X123454819Y-146687756D01*
X123454819Y-146687756D02*
X123407200Y-146782994D01*
X123407200Y-146782994D02*
X123359580Y-146830613D01*
X126654819Y-88571904D02*
X125654819Y-88571904D01*
X126654819Y-88000476D02*
X126083390Y-88429047D01*
X125654819Y-88000476D02*
X126226247Y-88571904D01*
D11*
X128363855Y-85171428D02*
X127563855Y-85171428D01*
X127563855Y-85171428D02*
X127563855Y-84980952D01*
X127563855Y-84980952D02*
X127601950Y-84866666D01*
X127601950Y-84866666D02*
X127678140Y-84790476D01*
X127678140Y-84790476D02*
X127754331Y-84752381D01*
X127754331Y-84752381D02*
X127906712Y-84714285D01*
X127906712Y-84714285D02*
X128020998Y-84714285D01*
X128020998Y-84714285D02*
X128173379Y-84752381D01*
X128173379Y-84752381D02*
X128249569Y-84790476D01*
X128249569Y-84790476D02*
X128325760Y-84866666D01*
X128325760Y-84866666D02*
X128363855Y-84980952D01*
X128363855Y-84980952D02*
X128363855Y-85171428D01*
X127563855Y-84447619D02*
X127563855Y-83914285D01*
X127563855Y-83914285D02*
X128363855Y-84447619D01*
X128363855Y-84447619D02*
X128363855Y-83914285D01*
X128363855Y-83571428D02*
X128363855Y-83419047D01*
X128363855Y-83419047D02*
X128325760Y-83342857D01*
X128325760Y-83342857D02*
X128287664Y-83304761D01*
X128287664Y-83304761D02*
X128173379Y-83228571D01*
X128173379Y-83228571D02*
X128020998Y-83190476D01*
X128020998Y-83190476D02*
X127716236Y-83190476D01*
X127716236Y-83190476D02*
X127640045Y-83228571D01*
X127640045Y-83228571D02*
X127601950Y-83266666D01*
X127601950Y-83266666D02*
X127563855Y-83342857D01*
X127563855Y-83342857D02*
X127563855Y-83495238D01*
X127563855Y-83495238D02*
X127601950Y-83571428D01*
X127601950Y-83571428D02*
X127640045Y-83609523D01*
X127640045Y-83609523D02*
X127716236Y-83647619D01*
X127716236Y-83647619D02*
X127906712Y-83647619D01*
X127906712Y-83647619D02*
X127982902Y-83609523D01*
X127982902Y-83609523D02*
X128020998Y-83571428D01*
X128020998Y-83571428D02*
X128059093Y-83495238D01*
X128059093Y-83495238D02*
X128059093Y-83342857D01*
X128059093Y-83342857D02*
X128020998Y-83266666D01*
X128020998Y-83266666D02*
X127982902Y-83228571D01*
X127982902Y-83228571D02*
X127906712Y-83190476D01*
D10*
X117948919Y-88571904D02*
X116948919Y-88571904D01*
X117948919Y-88000476D02*
X117377490Y-88429047D01*
X116948919Y-88000476D02*
X117520347Y-88571904D01*
D11*
X119657955Y-85171428D02*
X118857955Y-85171428D01*
X118857955Y-85171428D02*
X118857955Y-84980952D01*
X118857955Y-84980952D02*
X118896050Y-84866666D01*
X118896050Y-84866666D02*
X118972240Y-84790476D01*
X118972240Y-84790476D02*
X119048431Y-84752381D01*
X119048431Y-84752381D02*
X119200812Y-84714285D01*
X119200812Y-84714285D02*
X119315098Y-84714285D01*
X119315098Y-84714285D02*
X119467479Y-84752381D01*
X119467479Y-84752381D02*
X119543669Y-84790476D01*
X119543669Y-84790476D02*
X119619860Y-84866666D01*
X119619860Y-84866666D02*
X119657955Y-84980952D01*
X119657955Y-84980952D02*
X119657955Y-85171428D01*
X118857955Y-84447619D02*
X118857955Y-83914285D01*
X118857955Y-83914285D02*
X119657955Y-84447619D01*
X119657955Y-84447619D02*
X119657955Y-83914285D01*
X119200812Y-83495238D02*
X119162717Y-83571428D01*
X119162717Y-83571428D02*
X119124621Y-83609523D01*
X119124621Y-83609523D02*
X119048431Y-83647619D01*
X119048431Y-83647619D02*
X119010336Y-83647619D01*
X119010336Y-83647619D02*
X118934145Y-83609523D01*
X118934145Y-83609523D02*
X118896050Y-83571428D01*
X118896050Y-83571428D02*
X118857955Y-83495238D01*
X118857955Y-83495238D02*
X118857955Y-83342857D01*
X118857955Y-83342857D02*
X118896050Y-83266666D01*
X118896050Y-83266666D02*
X118934145Y-83228571D01*
X118934145Y-83228571D02*
X119010336Y-83190476D01*
X119010336Y-83190476D02*
X119048431Y-83190476D01*
X119048431Y-83190476D02*
X119124621Y-83228571D01*
X119124621Y-83228571D02*
X119162717Y-83266666D01*
X119162717Y-83266666D02*
X119200812Y-83342857D01*
X119200812Y-83342857D02*
X119200812Y-83495238D01*
X119200812Y-83495238D02*
X119238907Y-83571428D01*
X119238907Y-83571428D02*
X119277002Y-83609523D01*
X119277002Y-83609523D02*
X119353193Y-83647619D01*
X119353193Y-83647619D02*
X119505574Y-83647619D01*
X119505574Y-83647619D02*
X119581764Y-83609523D01*
X119581764Y-83609523D02*
X119619860Y-83571428D01*
X119619860Y-83571428D02*
X119657955Y-83495238D01*
X119657955Y-83495238D02*
X119657955Y-83342857D01*
X119657955Y-83342857D02*
X119619860Y-83266666D01*
X119619860Y-83266666D02*
X119581764Y-83228571D01*
X119581764Y-83228571D02*
X119505574Y-83190476D01*
X119505574Y-83190476D02*
X119353193Y-83190476D01*
X119353193Y-83190476D02*
X119277002Y-83228571D01*
X119277002Y-83228571D02*
X119238907Y-83266666D01*
X119238907Y-83266666D02*
X119200812Y-83342857D01*
D10*
X129454819Y-138642856D02*
X129454819Y-138547618D01*
X129454819Y-138547618D02*
X129502438Y-138452380D01*
X129502438Y-138452380D02*
X129550057Y-138404761D01*
X129550057Y-138404761D02*
X129645295Y-138357142D01*
X129645295Y-138357142D02*
X129835771Y-138309523D01*
X129835771Y-138309523D02*
X130073866Y-138309523D01*
X130073866Y-138309523D02*
X130264342Y-138357142D01*
X130264342Y-138357142D02*
X130359580Y-138404761D01*
X130359580Y-138404761D02*
X130407200Y-138452380D01*
X130407200Y-138452380D02*
X130454819Y-138547618D01*
X130454819Y-138547618D02*
X130454819Y-138642856D01*
X130454819Y-138642856D02*
X130407200Y-138738094D01*
X130407200Y-138738094D02*
X130359580Y-138785713D01*
X130359580Y-138785713D02*
X130264342Y-138833332D01*
X130264342Y-138833332D02*
X130073866Y-138880951D01*
X130073866Y-138880951D02*
X129835771Y-138880951D01*
X129835771Y-138880951D02*
X129645295Y-138833332D01*
X129645295Y-138833332D02*
X129550057Y-138785713D01*
X129550057Y-138785713D02*
X129502438Y-138738094D01*
X129502438Y-138738094D02*
X129454819Y-138642856D01*
X130359580Y-137880951D02*
X130407200Y-137833332D01*
X130407200Y-137833332D02*
X130454819Y-137880951D01*
X130454819Y-137880951D02*
X130407200Y-137928570D01*
X130407200Y-137928570D02*
X130359580Y-137880951D01*
X130359580Y-137880951D02*
X130454819Y-137880951D01*
X130454819Y-136880952D02*
X130454819Y-137452380D01*
X130454819Y-137166666D02*
X129454819Y-137166666D01*
X129454819Y-137166666D02*
X129597676Y-137261904D01*
X129597676Y-137261904D02*
X129692914Y-137357142D01*
X129692914Y-137357142D02*
X129740533Y-137452380D01*
X129788152Y-136023809D02*
X130454819Y-136023809D01*
X129788152Y-136452380D02*
X130311961Y-136452380D01*
X130311961Y-136452380D02*
X130407200Y-136404761D01*
X130407200Y-136404761D02*
X130454819Y-136309523D01*
X130454819Y-136309523D02*
X130454819Y-136166666D01*
X130454819Y-136166666D02*
X130407200Y-136071428D01*
X130407200Y-136071428D02*
X130359580Y-136023809D01*
X129931009Y-135214285D02*
X129931009Y-135547618D01*
X130454819Y-135547618D02*
X129454819Y-135547618D01*
X129454819Y-135547618D02*
X129454819Y-135071428D01*
X128859580Y-137166666D02*
X128907200Y-137214285D01*
X128907200Y-137214285D02*
X128954819Y-137357142D01*
X128954819Y-137357142D02*
X128954819Y-137452380D01*
X128954819Y-137452380D02*
X128907200Y-137595237D01*
X128907200Y-137595237D02*
X128811961Y-137690475D01*
X128811961Y-137690475D02*
X128716723Y-137738094D01*
X128716723Y-137738094D02*
X128526247Y-137785713D01*
X128526247Y-137785713D02*
X128383390Y-137785713D01*
X128383390Y-137785713D02*
X128192914Y-137738094D01*
X128192914Y-137738094D02*
X128097676Y-137690475D01*
X128097676Y-137690475D02*
X128002438Y-137595237D01*
X128002438Y-137595237D02*
X127954819Y-137452380D01*
X127954819Y-137452380D02*
X127954819Y-137357142D01*
X127954819Y-137357142D02*
X128002438Y-137214285D01*
X128002438Y-137214285D02*
X128050057Y-137166666D01*
X128050057Y-136785713D02*
X128002438Y-136738094D01*
X128002438Y-136738094D02*
X127954819Y-136642856D01*
X127954819Y-136642856D02*
X127954819Y-136404761D01*
X127954819Y-136404761D02*
X128002438Y-136309523D01*
X128002438Y-136309523D02*
X128050057Y-136261904D01*
X128050057Y-136261904D02*
X128145295Y-136214285D01*
X128145295Y-136214285D02*
X128240533Y-136214285D01*
X128240533Y-136214285D02*
X128383390Y-136261904D01*
X128383390Y-136261904D02*
X128954819Y-136833332D01*
X128954819Y-136833332D02*
X128954819Y-136214285D01*
X116857143Y-142704819D02*
X116952381Y-142704819D01*
X116952381Y-142704819D02*
X117047619Y-142752438D01*
X117047619Y-142752438D02*
X117095238Y-142800057D01*
X117095238Y-142800057D02*
X117142857Y-142895295D01*
X117142857Y-142895295D02*
X117190476Y-143085771D01*
X117190476Y-143085771D02*
X117190476Y-143323866D01*
X117190476Y-143323866D02*
X117142857Y-143514342D01*
X117142857Y-143514342D02*
X117095238Y-143609580D01*
X117095238Y-143609580D02*
X117047619Y-143657200D01*
X117047619Y-143657200D02*
X116952381Y-143704819D01*
X116952381Y-143704819D02*
X116857143Y-143704819D01*
X116857143Y-143704819D02*
X116761905Y-143657200D01*
X116761905Y-143657200D02*
X116714286Y-143609580D01*
X116714286Y-143609580D02*
X116666667Y-143514342D01*
X116666667Y-143514342D02*
X116619048Y-143323866D01*
X116619048Y-143323866D02*
X116619048Y-143085771D01*
X116619048Y-143085771D02*
X116666667Y-142895295D01*
X116666667Y-142895295D02*
X116714286Y-142800057D01*
X116714286Y-142800057D02*
X116761905Y-142752438D01*
X116761905Y-142752438D02*
X116857143Y-142704819D01*
X117619048Y-143609580D02*
X117666667Y-143657200D01*
X117666667Y-143657200D02*
X117619048Y-143704819D01*
X117619048Y-143704819D02*
X117571429Y-143657200D01*
X117571429Y-143657200D02*
X117619048Y-143609580D01*
X117619048Y-143609580D02*
X117619048Y-143704819D01*
X118619047Y-143704819D02*
X118047619Y-143704819D01*
X118333333Y-143704819D02*
X118333333Y-142704819D01*
X118333333Y-142704819D02*
X118238095Y-142847676D01*
X118238095Y-142847676D02*
X118142857Y-142942914D01*
X118142857Y-142942914D02*
X118047619Y-142990533D01*
X119476190Y-143038152D02*
X119476190Y-143704819D01*
X119047619Y-143038152D02*
X119047619Y-143561961D01*
X119047619Y-143561961D02*
X119095238Y-143657200D01*
X119095238Y-143657200D02*
X119190476Y-143704819D01*
X119190476Y-143704819D02*
X119333333Y-143704819D01*
X119333333Y-143704819D02*
X119428571Y-143657200D01*
X119428571Y-143657200D02*
X119476190Y-143609580D01*
X120285714Y-143181009D02*
X119952381Y-143181009D01*
X119952381Y-143704819D02*
X119952381Y-142704819D01*
X119952381Y-142704819D02*
X120428571Y-142704819D01*
X118333333Y-139859580D02*
X118285714Y-139907200D01*
X118285714Y-139907200D02*
X118142857Y-139954819D01*
X118142857Y-139954819D02*
X118047619Y-139954819D01*
X118047619Y-139954819D02*
X117904762Y-139907200D01*
X117904762Y-139907200D02*
X117809524Y-139811961D01*
X117809524Y-139811961D02*
X117761905Y-139716723D01*
X117761905Y-139716723D02*
X117714286Y-139526247D01*
X117714286Y-139526247D02*
X117714286Y-139383390D01*
X117714286Y-139383390D02*
X117761905Y-139192914D01*
X117761905Y-139192914D02*
X117809524Y-139097676D01*
X117809524Y-139097676D02*
X117904762Y-139002438D01*
X117904762Y-139002438D02*
X118047619Y-138954819D01*
X118047619Y-138954819D02*
X118142857Y-138954819D01*
X118142857Y-138954819D02*
X118285714Y-139002438D01*
X118285714Y-139002438D02*
X118333333Y-139050057D01*
X119190476Y-138954819D02*
X119000000Y-138954819D01*
X119000000Y-138954819D02*
X118904762Y-139002438D01*
X118904762Y-139002438D02*
X118857143Y-139050057D01*
X118857143Y-139050057D02*
X118761905Y-139192914D01*
X118761905Y-139192914D02*
X118714286Y-139383390D01*
X118714286Y-139383390D02*
X118714286Y-139764342D01*
X118714286Y-139764342D02*
X118761905Y-139859580D01*
X118761905Y-139859580D02*
X118809524Y-139907200D01*
X118809524Y-139907200D02*
X118904762Y-139954819D01*
X118904762Y-139954819D02*
X119095238Y-139954819D01*
X119095238Y-139954819D02*
X119190476Y-139907200D01*
X119190476Y-139907200D02*
X119238095Y-139859580D01*
X119238095Y-139859580D02*
X119285714Y-139764342D01*
X119285714Y-139764342D02*
X119285714Y-139526247D01*
X119285714Y-139526247D02*
X119238095Y-139431009D01*
X119238095Y-139431009D02*
X119190476Y-139383390D01*
X119190476Y-139383390D02*
X119095238Y-139335771D01*
X119095238Y-139335771D02*
X118904762Y-139335771D01*
X118904762Y-139335771D02*
X118809524Y-139383390D01*
X118809524Y-139383390D02*
X118761905Y-139431009D01*
X118761905Y-139431009D02*
X118714286Y-139526247D01*
X61738095Y-61561366D02*
X61785714Y-61513747D01*
X61785714Y-61513747D02*
X61880952Y-61466128D01*
X61880952Y-61466128D02*
X62071428Y-61561366D01*
X62071428Y-61561366D02*
X62166666Y-61513747D01*
X62166666Y-61513747D02*
X62214285Y-61466128D01*
X61666666Y-58922319D02*
X61666666Y-59636604D01*
X61666666Y-59636604D02*
X61619047Y-59779461D01*
X61619047Y-59779461D02*
X61523809Y-59874700D01*
X61523809Y-59874700D02*
X61380952Y-59922319D01*
X61380952Y-59922319D02*
X61285714Y-59922319D01*
X62047619Y-58922319D02*
X62666666Y-58922319D01*
X62666666Y-58922319D02*
X62333333Y-59303271D01*
X62333333Y-59303271D02*
X62476190Y-59303271D01*
X62476190Y-59303271D02*
X62571428Y-59350890D01*
X62571428Y-59350890D02*
X62619047Y-59398509D01*
X62619047Y-59398509D02*
X62666666Y-59493747D01*
X62666666Y-59493747D02*
X62666666Y-59731842D01*
X62666666Y-59731842D02*
X62619047Y-59827080D01*
X62619047Y-59827080D02*
X62571428Y-59874700D01*
X62571428Y-59874700D02*
X62476190Y-59922319D01*
X62476190Y-59922319D02*
X62190476Y-59922319D01*
X62190476Y-59922319D02*
X62095238Y-59874700D01*
X62095238Y-59874700D02*
X62047619Y-59827080D01*
X74904761Y-145454819D02*
X74333333Y-145454819D01*
X74619047Y-145454819D02*
X74619047Y-144454819D01*
X74619047Y-144454819D02*
X74523809Y-144597676D01*
X74523809Y-144597676D02*
X74428571Y-144692914D01*
X74428571Y-144692914D02*
X74333333Y-144740533D01*
X75523809Y-144454819D02*
X75619047Y-144454819D01*
X75619047Y-144454819D02*
X75714285Y-144502438D01*
X75714285Y-144502438D02*
X75761904Y-144550057D01*
X75761904Y-144550057D02*
X75809523Y-144645295D01*
X75809523Y-144645295D02*
X75857142Y-144835771D01*
X75857142Y-144835771D02*
X75857142Y-145073866D01*
X75857142Y-145073866D02*
X75809523Y-145264342D01*
X75809523Y-145264342D02*
X75761904Y-145359580D01*
X75761904Y-145359580D02*
X75714285Y-145407200D01*
X75714285Y-145407200D02*
X75619047Y-145454819D01*
X75619047Y-145454819D02*
X75523809Y-145454819D01*
X75523809Y-145454819D02*
X75428571Y-145407200D01*
X75428571Y-145407200D02*
X75380952Y-145359580D01*
X75380952Y-145359580D02*
X75333333Y-145264342D01*
X75333333Y-145264342D02*
X75285714Y-145073866D01*
X75285714Y-145073866D02*
X75285714Y-144835771D01*
X75285714Y-144835771D02*
X75333333Y-144645295D01*
X75333333Y-144645295D02*
X75380952Y-144550057D01*
X75380952Y-144550057D02*
X75428571Y-144502438D01*
X75428571Y-144502438D02*
X75523809Y-144454819D01*
X76285714Y-145454819D02*
X76285714Y-144454819D01*
X76380952Y-145073866D02*
X76666666Y-145454819D01*
X76666666Y-144788152D02*
X76285714Y-145169104D01*
X71954819Y-142590238D02*
X71478628Y-142923571D01*
X71954819Y-143161666D02*
X70954819Y-143161666D01*
X70954819Y-143161666D02*
X70954819Y-142780714D01*
X70954819Y-142780714D02*
X71002438Y-142685476D01*
X71002438Y-142685476D02*
X71050057Y-142637857D01*
X71050057Y-142637857D02*
X71145295Y-142590238D01*
X71145295Y-142590238D02*
X71288152Y-142590238D01*
X71288152Y-142590238D02*
X71383390Y-142637857D01*
X71383390Y-142637857D02*
X71431009Y-142685476D01*
X71431009Y-142685476D02*
X71478628Y-142780714D01*
X71478628Y-142780714D02*
X71478628Y-143161666D01*
X70954819Y-142304523D02*
X71954819Y-141971190D01*
X71954819Y-141971190D02*
X70954819Y-141637857D01*
X70954819Y-140828333D02*
X70954819Y-141304523D01*
X70954819Y-141304523D02*
X71431009Y-141352142D01*
X71431009Y-141352142D02*
X71383390Y-141304523D01*
X71383390Y-141304523D02*
X71335771Y-141209285D01*
X71335771Y-141209285D02*
X71335771Y-140971190D01*
X71335771Y-140971190D02*
X71383390Y-140875952D01*
X71383390Y-140875952D02*
X71431009Y-140828333D01*
X71431009Y-140828333D02*
X71526247Y-140780714D01*
X71526247Y-140780714D02*
X71764342Y-140780714D01*
X71764342Y-140780714D02*
X71859580Y-140828333D01*
X71859580Y-140828333D02*
X71907200Y-140875952D01*
X71907200Y-140875952D02*
X71954819Y-140971190D01*
X71954819Y-140971190D02*
X71954819Y-141209285D01*
X71954819Y-141209285D02*
X71907200Y-141304523D01*
X71907200Y-141304523D02*
X71859580Y-141352142D01*
X74419519Y-88571904D02*
X73419519Y-88571904D01*
X74419519Y-88000476D02*
X73848090Y-88429047D01*
X73419519Y-88000476D02*
X73990947Y-88571904D01*
D11*
X76128555Y-85171428D02*
X75328555Y-85171428D01*
X75328555Y-85171428D02*
X75328555Y-84980952D01*
X75328555Y-84980952D02*
X75366650Y-84866666D01*
X75366650Y-84866666D02*
X75442840Y-84790476D01*
X75442840Y-84790476D02*
X75519031Y-84752381D01*
X75519031Y-84752381D02*
X75671412Y-84714285D01*
X75671412Y-84714285D02*
X75785698Y-84714285D01*
X75785698Y-84714285D02*
X75938079Y-84752381D01*
X75938079Y-84752381D02*
X76014269Y-84790476D01*
X76014269Y-84790476D02*
X76090460Y-84866666D01*
X76090460Y-84866666D02*
X76128555Y-84980952D01*
X76128555Y-84980952D02*
X76128555Y-85171428D01*
X75328555Y-84447619D02*
X75328555Y-83914285D01*
X75328555Y-83914285D02*
X76128555Y-84447619D01*
X76128555Y-84447619D02*
X76128555Y-83914285D01*
X75328555Y-83685714D02*
X75328555Y-83190476D01*
X75328555Y-83190476D02*
X75633317Y-83457142D01*
X75633317Y-83457142D02*
X75633317Y-83342857D01*
X75633317Y-83342857D02*
X75671412Y-83266666D01*
X75671412Y-83266666D02*
X75709507Y-83228571D01*
X75709507Y-83228571D02*
X75785698Y-83190476D01*
X75785698Y-83190476D02*
X75976174Y-83190476D01*
X75976174Y-83190476D02*
X76052364Y-83228571D01*
X76052364Y-83228571D02*
X76090460Y-83266666D01*
X76090460Y-83266666D02*
X76128555Y-83342857D01*
X76128555Y-83342857D02*
X76128555Y-83571428D01*
X76128555Y-83571428D02*
X76090460Y-83647619D01*
X76090460Y-83647619D02*
X76052364Y-83685714D01*
D10*
X121929047Y-112824819D02*
X121452857Y-112824819D01*
X121452857Y-112824819D02*
X121405238Y-113301009D01*
X121405238Y-113301009D02*
X121452857Y-113253390D01*
X121452857Y-113253390D02*
X121548095Y-113205771D01*
X121548095Y-113205771D02*
X121786190Y-113205771D01*
X121786190Y-113205771D02*
X121881428Y-113253390D01*
X121881428Y-113253390D02*
X121929047Y-113301009D01*
X121929047Y-113301009D02*
X121976666Y-113396247D01*
X121976666Y-113396247D02*
X121976666Y-113634342D01*
X121976666Y-113634342D02*
X121929047Y-113729580D01*
X121929047Y-113729580D02*
X121881428Y-113777200D01*
X121881428Y-113777200D02*
X121786190Y-113824819D01*
X121786190Y-113824819D02*
X121548095Y-113824819D01*
X121548095Y-113824819D02*
X121452857Y-113777200D01*
X121452857Y-113777200D02*
X121405238Y-113729580D01*
X122405238Y-113729580D02*
X122452857Y-113777200D01*
X122452857Y-113777200D02*
X122405238Y-113824819D01*
X122405238Y-113824819D02*
X122357619Y-113777200D01*
X122357619Y-113777200D02*
X122405238Y-113729580D01*
X122405238Y-113729580D02*
X122405238Y-113824819D01*
X123405237Y-113824819D02*
X122833809Y-113824819D01*
X123119523Y-113824819D02*
X123119523Y-112824819D01*
X123119523Y-112824819D02*
X123024285Y-112967676D01*
X123024285Y-112967676D02*
X122929047Y-113062914D01*
X122929047Y-113062914D02*
X122833809Y-113110533D01*
X123833809Y-113824819D02*
X123833809Y-112824819D01*
X123929047Y-113443866D02*
X124214761Y-113824819D01*
X124214761Y-113158152D02*
X123833809Y-113539104D01*
X122167142Y-111454819D02*
X121833809Y-110978628D01*
X121595714Y-111454819D02*
X121595714Y-110454819D01*
X121595714Y-110454819D02*
X121976666Y-110454819D01*
X121976666Y-110454819D02*
X122071904Y-110502438D01*
X122071904Y-110502438D02*
X122119523Y-110550057D01*
X122119523Y-110550057D02*
X122167142Y-110645295D01*
X122167142Y-110645295D02*
X122167142Y-110788152D01*
X122167142Y-110788152D02*
X122119523Y-110883390D01*
X122119523Y-110883390D02*
X122071904Y-110931009D01*
X122071904Y-110931009D02*
X121976666Y-110978628D01*
X121976666Y-110978628D02*
X121595714Y-110978628D01*
X123119523Y-111454819D02*
X122548095Y-111454819D01*
X122833809Y-111454819D02*
X122833809Y-110454819D01*
X122833809Y-110454819D02*
X122738571Y-110597676D01*
X122738571Y-110597676D02*
X122643333Y-110692914D01*
X122643333Y-110692914D02*
X122548095Y-110740533D01*
X124024285Y-110454819D02*
X123548095Y-110454819D01*
X123548095Y-110454819D02*
X123500476Y-110931009D01*
X123500476Y-110931009D02*
X123548095Y-110883390D01*
X123548095Y-110883390D02*
X123643333Y-110835771D01*
X123643333Y-110835771D02*
X123881428Y-110835771D01*
X123881428Y-110835771D02*
X123976666Y-110883390D01*
X123976666Y-110883390D02*
X124024285Y-110931009D01*
X124024285Y-110931009D02*
X124071904Y-111026247D01*
X124071904Y-111026247D02*
X124071904Y-111264342D01*
X124071904Y-111264342D02*
X124024285Y-111359580D01*
X124024285Y-111359580D02*
X123976666Y-111407200D01*
X123976666Y-111407200D02*
X123881428Y-111454819D01*
X123881428Y-111454819D02*
X123643333Y-111454819D01*
X123643333Y-111454819D02*
X123548095Y-111407200D01*
X123548095Y-111407200D02*
X123500476Y-111359580D01*
X148954819Y-139404761D02*
X147954819Y-139404761D01*
X147954819Y-139404761D02*
X147954819Y-139166666D01*
X147954819Y-139166666D02*
X148002438Y-139023809D01*
X148002438Y-139023809D02*
X148097676Y-138928571D01*
X148097676Y-138928571D02*
X148192914Y-138880952D01*
X148192914Y-138880952D02*
X148383390Y-138833333D01*
X148383390Y-138833333D02*
X148526247Y-138833333D01*
X148526247Y-138833333D02*
X148716723Y-138880952D01*
X148716723Y-138880952D02*
X148811961Y-138928571D01*
X148811961Y-138928571D02*
X148907200Y-139023809D01*
X148907200Y-139023809D02*
X148954819Y-139166666D01*
X148954819Y-139166666D02*
X148954819Y-139404761D01*
X148859580Y-137833333D02*
X148907200Y-137880952D01*
X148907200Y-137880952D02*
X148954819Y-138023809D01*
X148954819Y-138023809D02*
X148954819Y-138119047D01*
X148954819Y-138119047D02*
X148907200Y-138261904D01*
X148907200Y-138261904D02*
X148811961Y-138357142D01*
X148811961Y-138357142D02*
X148716723Y-138404761D01*
X148716723Y-138404761D02*
X148526247Y-138452380D01*
X148526247Y-138452380D02*
X148383390Y-138452380D01*
X148383390Y-138452380D02*
X148192914Y-138404761D01*
X148192914Y-138404761D02*
X148097676Y-138357142D01*
X148097676Y-138357142D02*
X148002438Y-138261904D01*
X148002438Y-138261904D02*
X147954819Y-138119047D01*
X147954819Y-138119047D02*
X147954819Y-138023809D01*
X147954819Y-138023809D02*
X148002438Y-137880952D01*
X148002438Y-137880952D02*
X148050057Y-137833333D01*
X148954819Y-136642856D02*
X147954819Y-136642856D01*
X148954819Y-136166666D02*
X147954819Y-136166666D01*
X147954819Y-136166666D02*
X148954819Y-135595238D01*
X148954819Y-135595238D02*
X147954819Y-135595238D01*
X147922319Y-137333333D02*
X148636604Y-137333333D01*
X148636604Y-137333333D02*
X148779461Y-137380952D01*
X148779461Y-137380952D02*
X148874700Y-137476190D01*
X148874700Y-137476190D02*
X148922319Y-137619047D01*
X148922319Y-137619047D02*
X148922319Y-137714285D01*
X148017557Y-136904761D02*
X147969938Y-136857142D01*
X147969938Y-136857142D02*
X147922319Y-136761904D01*
X147922319Y-136761904D02*
X147922319Y-136523809D01*
X147922319Y-136523809D02*
X147969938Y-136428571D01*
X147969938Y-136428571D02*
X148017557Y-136380952D01*
X148017557Y-136380952D02*
X148112795Y-136333333D01*
X148112795Y-136333333D02*
X148208033Y-136333333D01*
X148208033Y-136333333D02*
X148350890Y-136380952D01*
X148350890Y-136380952D02*
X148922319Y-136952380D01*
X148922319Y-136952380D02*
X148922319Y-136333333D01*
D12*
X146733333Y-53432208D02*
X146733333Y-52482208D01*
X146733333Y-52482208D02*
X147050000Y-53160779D01*
X147050000Y-53160779D02*
X147366666Y-52482208D01*
X147366666Y-52482208D02*
X147366666Y-53432208D01*
X147819047Y-53432208D02*
X147819047Y-52482208D01*
X147819047Y-52934589D02*
X148361904Y-52934589D01*
X148361904Y-53432208D02*
X148361904Y-52482208D01*
X149311904Y-53432208D02*
X148769047Y-53432208D01*
X149040475Y-53432208D02*
X149040475Y-52482208D01*
X149040475Y-52482208D02*
X148949999Y-52617922D01*
X148949999Y-52617922D02*
X148859523Y-52708398D01*
X148859523Y-52708398D02*
X148769047Y-52753636D01*
D10*
X69262380Y-98139580D02*
X69214761Y-98187200D01*
X69214761Y-98187200D02*
X69071904Y-98234819D01*
X69071904Y-98234819D02*
X68976666Y-98234819D01*
X68976666Y-98234819D02*
X68833809Y-98187200D01*
X68833809Y-98187200D02*
X68738571Y-98091961D01*
X68738571Y-98091961D02*
X68690952Y-97996723D01*
X68690952Y-97996723D02*
X68643333Y-97806247D01*
X68643333Y-97806247D02*
X68643333Y-97663390D01*
X68643333Y-97663390D02*
X68690952Y-97472914D01*
X68690952Y-97472914D02*
X68738571Y-97377676D01*
X68738571Y-97377676D02*
X68833809Y-97282438D01*
X68833809Y-97282438D02*
X68976666Y-97234819D01*
X68976666Y-97234819D02*
X69071904Y-97234819D01*
X69071904Y-97234819D02*
X69214761Y-97282438D01*
X69214761Y-97282438D02*
X69262380Y-97330057D01*
X69690952Y-98234819D02*
X69690952Y-97234819D01*
X69690952Y-97234819D02*
X69929047Y-97234819D01*
X69929047Y-97234819D02*
X70071904Y-97282438D01*
X70071904Y-97282438D02*
X70167142Y-97377676D01*
X70167142Y-97377676D02*
X70214761Y-97472914D01*
X70214761Y-97472914D02*
X70262380Y-97663390D01*
X70262380Y-97663390D02*
X70262380Y-97806247D01*
X70262380Y-97806247D02*
X70214761Y-97996723D01*
X70214761Y-97996723D02*
X70167142Y-98091961D01*
X70167142Y-98091961D02*
X70071904Y-98187200D01*
X70071904Y-98187200D02*
X69929047Y-98234819D01*
X69929047Y-98234819D02*
X69690952Y-98234819D01*
X71119523Y-97568152D02*
X71119523Y-98234819D01*
X70881428Y-97187200D02*
X70643333Y-97901485D01*
X70643333Y-97901485D02*
X71262380Y-97901485D01*
X71833809Y-97234819D02*
X71929047Y-97234819D01*
X71929047Y-97234819D02*
X72024285Y-97282438D01*
X72024285Y-97282438D02*
X72071904Y-97330057D01*
X72071904Y-97330057D02*
X72119523Y-97425295D01*
X72119523Y-97425295D02*
X72167142Y-97615771D01*
X72167142Y-97615771D02*
X72167142Y-97853866D01*
X72167142Y-97853866D02*
X72119523Y-98044342D01*
X72119523Y-98044342D02*
X72071904Y-98139580D01*
X72071904Y-98139580D02*
X72024285Y-98187200D01*
X72024285Y-98187200D02*
X71929047Y-98234819D01*
X71929047Y-98234819D02*
X71833809Y-98234819D01*
X71833809Y-98234819D02*
X71738571Y-98187200D01*
X71738571Y-98187200D02*
X71690952Y-98139580D01*
X71690952Y-98139580D02*
X71643333Y-98044342D01*
X71643333Y-98044342D02*
X71595714Y-97853866D01*
X71595714Y-97853866D02*
X71595714Y-97615771D01*
X71595714Y-97615771D02*
X71643333Y-97425295D01*
X71643333Y-97425295D02*
X71690952Y-97330057D01*
X71690952Y-97330057D02*
X71738571Y-97282438D01*
X71738571Y-97282438D02*
X71833809Y-97234819D01*
X73071904Y-97234819D02*
X72595714Y-97234819D01*
X72595714Y-97234819D02*
X72548095Y-97711009D01*
X72548095Y-97711009D02*
X72595714Y-97663390D01*
X72595714Y-97663390D02*
X72690952Y-97615771D01*
X72690952Y-97615771D02*
X72929047Y-97615771D01*
X72929047Y-97615771D02*
X73024285Y-97663390D01*
X73024285Y-97663390D02*
X73071904Y-97711009D01*
X73071904Y-97711009D02*
X73119523Y-97806247D01*
X73119523Y-97806247D02*
X73119523Y-98044342D01*
X73119523Y-98044342D02*
X73071904Y-98139580D01*
X73071904Y-98139580D02*
X73024285Y-98187200D01*
X73024285Y-98187200D02*
X72929047Y-98234819D01*
X72929047Y-98234819D02*
X72690952Y-98234819D01*
X72690952Y-98234819D02*
X72595714Y-98187200D01*
X72595714Y-98187200D02*
X72548095Y-98139580D01*
X73738571Y-97234819D02*
X73833809Y-97234819D01*
X73833809Y-97234819D02*
X73929047Y-97282438D01*
X73929047Y-97282438D02*
X73976666Y-97330057D01*
X73976666Y-97330057D02*
X74024285Y-97425295D01*
X74024285Y-97425295D02*
X74071904Y-97615771D01*
X74071904Y-97615771D02*
X74071904Y-97853866D01*
X74071904Y-97853866D02*
X74024285Y-98044342D01*
X74024285Y-98044342D02*
X73976666Y-98139580D01*
X73976666Y-98139580D02*
X73929047Y-98187200D01*
X73929047Y-98187200D02*
X73833809Y-98234819D01*
X73833809Y-98234819D02*
X73738571Y-98234819D01*
X73738571Y-98234819D02*
X73643333Y-98187200D01*
X73643333Y-98187200D02*
X73595714Y-98139580D01*
X73595714Y-98139580D02*
X73548095Y-98044342D01*
X73548095Y-98044342D02*
X73500476Y-97853866D01*
X73500476Y-97853866D02*
X73500476Y-97615771D01*
X73500476Y-97615771D02*
X73548095Y-97425295D01*
X73548095Y-97425295D02*
X73595714Y-97330057D01*
X73595714Y-97330057D02*
X73643333Y-97282438D01*
X73643333Y-97282438D02*
X73738571Y-97234819D01*
X74833809Y-97711009D02*
X74976666Y-97758628D01*
X74976666Y-97758628D02*
X75024285Y-97806247D01*
X75024285Y-97806247D02*
X75071904Y-97901485D01*
X75071904Y-97901485D02*
X75071904Y-98044342D01*
X75071904Y-98044342D02*
X75024285Y-98139580D01*
X75024285Y-98139580D02*
X74976666Y-98187200D01*
X74976666Y-98187200D02*
X74881428Y-98234819D01*
X74881428Y-98234819D02*
X74500476Y-98234819D01*
X74500476Y-98234819D02*
X74500476Y-97234819D01*
X74500476Y-97234819D02*
X74833809Y-97234819D01*
X74833809Y-97234819D02*
X74929047Y-97282438D01*
X74929047Y-97282438D02*
X74976666Y-97330057D01*
X74976666Y-97330057D02*
X75024285Y-97425295D01*
X75024285Y-97425295D02*
X75024285Y-97520533D01*
X75024285Y-97520533D02*
X74976666Y-97615771D01*
X74976666Y-97615771D02*
X74929047Y-97663390D01*
X74929047Y-97663390D02*
X74833809Y-97711009D01*
X74833809Y-97711009D02*
X74500476Y-97711009D01*
X75500476Y-97711009D02*
X75833809Y-97711009D01*
X75976666Y-98234819D02*
X75500476Y-98234819D01*
X75500476Y-98234819D02*
X75500476Y-97234819D01*
X75500476Y-97234819D02*
X75976666Y-97234819D01*
X71764819Y-109761904D02*
X72574342Y-109761904D01*
X72574342Y-109761904D02*
X72669580Y-109714285D01*
X72669580Y-109714285D02*
X72717200Y-109666666D01*
X72717200Y-109666666D02*
X72764819Y-109571428D01*
X72764819Y-109571428D02*
X72764819Y-109380952D01*
X72764819Y-109380952D02*
X72717200Y-109285714D01*
X72717200Y-109285714D02*
X72669580Y-109238095D01*
X72669580Y-109238095D02*
X72574342Y-109190476D01*
X72574342Y-109190476D02*
X71764819Y-109190476D01*
X71764819Y-108285714D02*
X71764819Y-108476190D01*
X71764819Y-108476190D02*
X71812438Y-108571428D01*
X71812438Y-108571428D02*
X71860057Y-108619047D01*
X71860057Y-108619047D02*
X72002914Y-108714285D01*
X72002914Y-108714285D02*
X72193390Y-108761904D01*
X72193390Y-108761904D02*
X72574342Y-108761904D01*
X72574342Y-108761904D02*
X72669580Y-108714285D01*
X72669580Y-108714285D02*
X72717200Y-108666666D01*
X72717200Y-108666666D02*
X72764819Y-108571428D01*
X72764819Y-108571428D02*
X72764819Y-108380952D01*
X72764819Y-108380952D02*
X72717200Y-108285714D01*
X72717200Y-108285714D02*
X72669580Y-108238095D01*
X72669580Y-108238095D02*
X72574342Y-108190476D01*
X72574342Y-108190476D02*
X72336247Y-108190476D01*
X72336247Y-108190476D02*
X72241009Y-108238095D01*
X72241009Y-108238095D02*
X72193390Y-108285714D01*
X72193390Y-108285714D02*
X72145771Y-108380952D01*
X72145771Y-108380952D02*
X72145771Y-108571428D01*
X72145771Y-108571428D02*
X72193390Y-108666666D01*
X72193390Y-108666666D02*
X72241009Y-108714285D01*
X72241009Y-108714285D02*
X72336247Y-108761904D01*
X57713866Y-69991904D02*
X57666247Y-69944285D01*
X57666247Y-69944285D02*
X57618628Y-69849047D01*
X57618628Y-69849047D02*
X57713866Y-69658571D01*
X57713866Y-69658571D02*
X57666247Y-69563333D01*
X57666247Y-69563333D02*
X57618628Y-69515714D01*
X87536666Y-69184819D02*
X87536666Y-69899104D01*
X87536666Y-69899104D02*
X87489047Y-70041961D01*
X87489047Y-70041961D02*
X87393809Y-70137200D01*
X87393809Y-70137200D02*
X87250952Y-70184819D01*
X87250952Y-70184819D02*
X87155714Y-70184819D01*
X88536666Y-70184819D02*
X87965238Y-70184819D01*
X88250952Y-70184819D02*
X88250952Y-69184819D01*
X88250952Y-69184819D02*
X88155714Y-69327676D01*
X88155714Y-69327676D02*
X88060476Y-69422914D01*
X88060476Y-69422914D02*
X87965238Y-69470533D01*
X135594761Y-131324819D02*
X135023333Y-131324819D01*
X135309047Y-131324819D02*
X135309047Y-130324819D01*
X135309047Y-130324819D02*
X135213809Y-130467676D01*
X135213809Y-130467676D02*
X135118571Y-130562914D01*
X135118571Y-130562914D02*
X135023333Y-130610533D01*
X136213809Y-130324819D02*
X136309047Y-130324819D01*
X136309047Y-130324819D02*
X136404285Y-130372438D01*
X136404285Y-130372438D02*
X136451904Y-130420057D01*
X136451904Y-130420057D02*
X136499523Y-130515295D01*
X136499523Y-130515295D02*
X136547142Y-130705771D01*
X136547142Y-130705771D02*
X136547142Y-130943866D01*
X136547142Y-130943866D02*
X136499523Y-131134342D01*
X136499523Y-131134342D02*
X136451904Y-131229580D01*
X136451904Y-131229580D02*
X136404285Y-131277200D01*
X136404285Y-131277200D02*
X136309047Y-131324819D01*
X136309047Y-131324819D02*
X136213809Y-131324819D01*
X136213809Y-131324819D02*
X136118571Y-131277200D01*
X136118571Y-131277200D02*
X136070952Y-131229580D01*
X136070952Y-131229580D02*
X136023333Y-131134342D01*
X136023333Y-131134342D02*
X135975714Y-130943866D01*
X135975714Y-130943866D02*
X135975714Y-130705771D01*
X135975714Y-130705771D02*
X136023333Y-130515295D01*
X136023333Y-130515295D02*
X136070952Y-130420057D01*
X136070952Y-130420057D02*
X136118571Y-130372438D01*
X136118571Y-130372438D02*
X136213809Y-130324819D01*
X136975714Y-131324819D02*
X136975714Y-130324819D01*
X137070952Y-130943866D02*
X137356666Y-131324819D01*
X137356666Y-130658152D02*
X136975714Y-131039104D01*
X135547142Y-128954819D02*
X135213809Y-128478628D01*
X134975714Y-128954819D02*
X134975714Y-127954819D01*
X134975714Y-127954819D02*
X135356666Y-127954819D01*
X135356666Y-127954819D02*
X135451904Y-128002438D01*
X135451904Y-128002438D02*
X135499523Y-128050057D01*
X135499523Y-128050057D02*
X135547142Y-128145295D01*
X135547142Y-128145295D02*
X135547142Y-128288152D01*
X135547142Y-128288152D02*
X135499523Y-128383390D01*
X135499523Y-128383390D02*
X135451904Y-128431009D01*
X135451904Y-128431009D02*
X135356666Y-128478628D01*
X135356666Y-128478628D02*
X134975714Y-128478628D01*
X136499523Y-128954819D02*
X135928095Y-128954819D01*
X136213809Y-128954819D02*
X136213809Y-127954819D01*
X136213809Y-127954819D02*
X136118571Y-128097676D01*
X136118571Y-128097676D02*
X136023333Y-128192914D01*
X136023333Y-128192914D02*
X135928095Y-128240533D01*
X137356666Y-128288152D02*
X137356666Y-128954819D01*
X137118571Y-127907200D02*
X136880476Y-128621485D01*
X136880476Y-128621485D02*
X137499523Y-128621485D01*
X57007719Y-88571904D02*
X56007719Y-88571904D01*
X57007719Y-88000476D02*
X56436290Y-88429047D01*
X56007719Y-88000476D02*
X56579147Y-88571904D01*
D11*
X58716755Y-85171428D02*
X57916755Y-85171428D01*
X57916755Y-85171428D02*
X57916755Y-84980952D01*
X57916755Y-84980952D02*
X57954850Y-84866666D01*
X57954850Y-84866666D02*
X58031040Y-84790476D01*
X58031040Y-84790476D02*
X58107231Y-84752381D01*
X58107231Y-84752381D02*
X58259612Y-84714285D01*
X58259612Y-84714285D02*
X58373898Y-84714285D01*
X58373898Y-84714285D02*
X58526279Y-84752381D01*
X58526279Y-84752381D02*
X58602469Y-84790476D01*
X58602469Y-84790476D02*
X58678660Y-84866666D01*
X58678660Y-84866666D02*
X58716755Y-84980952D01*
X58716755Y-84980952D02*
X58716755Y-85171428D01*
X57916755Y-84447619D02*
X57916755Y-83914285D01*
X57916755Y-83914285D02*
X58716755Y-84447619D01*
X58716755Y-84447619D02*
X58716755Y-83914285D01*
X58716755Y-83190476D02*
X58716755Y-83647619D01*
X58716755Y-83419047D02*
X57916755Y-83419047D01*
X57916755Y-83419047D02*
X58031040Y-83495238D01*
X58031040Y-83495238D02*
X58107231Y-83571428D01*
X58107231Y-83571428D02*
X58145326Y-83647619D01*
D10*
X84238095Y-61561366D02*
X84285714Y-61513747D01*
X84285714Y-61513747D02*
X84380952Y-61466128D01*
X84380952Y-61466128D02*
X84571428Y-61561366D01*
X84571428Y-61561366D02*
X84666666Y-61513747D01*
X84666666Y-61513747D02*
X84714285Y-61466128D01*
X84166666Y-58922319D02*
X84166666Y-59636604D01*
X84166666Y-59636604D02*
X84119047Y-59779461D01*
X84119047Y-59779461D02*
X84023809Y-59874700D01*
X84023809Y-59874700D02*
X83880952Y-59922319D01*
X83880952Y-59922319D02*
X83785714Y-59922319D01*
X85119047Y-58922319D02*
X84642857Y-58922319D01*
X84642857Y-58922319D02*
X84595238Y-59398509D01*
X84595238Y-59398509D02*
X84642857Y-59350890D01*
X84642857Y-59350890D02*
X84738095Y-59303271D01*
X84738095Y-59303271D02*
X84976190Y-59303271D01*
X84976190Y-59303271D02*
X85071428Y-59350890D01*
X85071428Y-59350890D02*
X85119047Y-59398509D01*
X85119047Y-59398509D02*
X85166666Y-59493747D01*
X85166666Y-59493747D02*
X85166666Y-59731842D01*
X85166666Y-59731842D02*
X85119047Y-59827080D01*
X85119047Y-59827080D02*
X85071428Y-59874700D01*
X85071428Y-59874700D02*
X84976190Y-59922319D01*
X84976190Y-59922319D02*
X84738095Y-59922319D01*
X84738095Y-59922319D02*
X84642857Y-59874700D01*
X84642857Y-59874700D02*
X84595238Y-59827080D01*
X116277142Y-135924819D02*
X115705714Y-135924819D01*
X115991428Y-135924819D02*
X115991428Y-134924819D01*
X115991428Y-134924819D02*
X115896190Y-135067676D01*
X115896190Y-135067676D02*
X115800952Y-135162914D01*
X115800952Y-135162914D02*
X115705714Y-135210533D01*
X116705714Y-135924819D02*
X116705714Y-134924819D01*
X116705714Y-134924819D02*
X117277142Y-135924819D01*
X117277142Y-135924819D02*
X117277142Y-134924819D01*
X118229523Y-134924819D02*
X117753333Y-134924819D01*
X117753333Y-134924819D02*
X117705714Y-135401009D01*
X117705714Y-135401009D02*
X117753333Y-135353390D01*
X117753333Y-135353390D02*
X117848571Y-135305771D01*
X117848571Y-135305771D02*
X118086666Y-135305771D01*
X118086666Y-135305771D02*
X118181904Y-135353390D01*
X118181904Y-135353390D02*
X118229523Y-135401009D01*
X118229523Y-135401009D02*
X118277142Y-135496247D01*
X118277142Y-135496247D02*
X118277142Y-135734342D01*
X118277142Y-135734342D02*
X118229523Y-135829580D01*
X118229523Y-135829580D02*
X118181904Y-135877200D01*
X118181904Y-135877200D02*
X118086666Y-135924819D01*
X118086666Y-135924819D02*
X117848571Y-135924819D01*
X117848571Y-135924819D02*
X117753333Y-135877200D01*
X117753333Y-135877200D02*
X117705714Y-135829580D01*
X118848571Y-135353390D02*
X118753333Y-135305771D01*
X118753333Y-135305771D02*
X118705714Y-135258152D01*
X118705714Y-135258152D02*
X118658095Y-135162914D01*
X118658095Y-135162914D02*
X118658095Y-135115295D01*
X118658095Y-135115295D02*
X118705714Y-135020057D01*
X118705714Y-135020057D02*
X118753333Y-134972438D01*
X118753333Y-134972438D02*
X118848571Y-134924819D01*
X118848571Y-134924819D02*
X119039047Y-134924819D01*
X119039047Y-134924819D02*
X119134285Y-134972438D01*
X119134285Y-134972438D02*
X119181904Y-135020057D01*
X119181904Y-135020057D02*
X119229523Y-135115295D01*
X119229523Y-135115295D02*
X119229523Y-135162914D01*
X119229523Y-135162914D02*
X119181904Y-135258152D01*
X119181904Y-135258152D02*
X119134285Y-135305771D01*
X119134285Y-135305771D02*
X119039047Y-135353390D01*
X119039047Y-135353390D02*
X118848571Y-135353390D01*
X118848571Y-135353390D02*
X118753333Y-135401009D01*
X118753333Y-135401009D02*
X118705714Y-135448628D01*
X118705714Y-135448628D02*
X118658095Y-135543866D01*
X118658095Y-135543866D02*
X118658095Y-135734342D01*
X118658095Y-135734342D02*
X118705714Y-135829580D01*
X118705714Y-135829580D02*
X118753333Y-135877200D01*
X118753333Y-135877200D02*
X118848571Y-135924819D01*
X118848571Y-135924819D02*
X119039047Y-135924819D01*
X119039047Y-135924819D02*
X119134285Y-135877200D01*
X119134285Y-135877200D02*
X119181904Y-135829580D01*
X119181904Y-135829580D02*
X119229523Y-135734342D01*
X119229523Y-135734342D02*
X119229523Y-135543866D01*
X119229523Y-135543866D02*
X119181904Y-135448628D01*
X119181904Y-135448628D02*
X119134285Y-135401009D01*
X119134285Y-135401009D02*
X119039047Y-135353390D01*
X120181904Y-135924819D02*
X119610476Y-135924819D01*
X119896190Y-135924819D02*
X119896190Y-134924819D01*
X119896190Y-134924819D02*
X119800952Y-135067676D01*
X119800952Y-135067676D02*
X119705714Y-135162914D01*
X119705714Y-135162914D02*
X119610476Y-135210533D01*
X120515238Y-134924819D02*
X121181904Y-134924819D01*
X121181904Y-134924819D02*
X120753333Y-135924819D01*
X113078095Y-131354819D02*
X113078095Y-130354819D01*
X113649523Y-131354819D02*
X113220952Y-130783390D01*
X113649523Y-130354819D02*
X113078095Y-130926247D01*
X117205714Y-133454819D02*
X117205714Y-132454819D01*
X117205714Y-132454819D02*
X117443809Y-132454819D01*
X117443809Y-132454819D02*
X117586666Y-132502438D01*
X117586666Y-132502438D02*
X117681904Y-132597676D01*
X117681904Y-132597676D02*
X117729523Y-132692914D01*
X117729523Y-132692914D02*
X117777142Y-132883390D01*
X117777142Y-132883390D02*
X117777142Y-133026247D01*
X117777142Y-133026247D02*
X117729523Y-133216723D01*
X117729523Y-133216723D02*
X117681904Y-133311961D01*
X117681904Y-133311961D02*
X117586666Y-133407200D01*
X117586666Y-133407200D02*
X117443809Y-133454819D01*
X117443809Y-133454819D02*
X117205714Y-133454819D01*
X118729523Y-133454819D02*
X118158095Y-133454819D01*
X118443809Y-133454819D02*
X118443809Y-132454819D01*
X118443809Y-132454819D02*
X118348571Y-132597676D01*
X118348571Y-132597676D02*
X118253333Y-132692914D01*
X118253333Y-132692914D02*
X118158095Y-132740533D01*
X119062857Y-132454819D02*
X119681904Y-132454819D01*
X119681904Y-132454819D02*
X119348571Y-132835771D01*
X119348571Y-132835771D02*
X119491428Y-132835771D01*
X119491428Y-132835771D02*
X119586666Y-132883390D01*
X119586666Y-132883390D02*
X119634285Y-132931009D01*
X119634285Y-132931009D02*
X119681904Y-133026247D01*
X119681904Y-133026247D02*
X119681904Y-133264342D01*
X119681904Y-133264342D02*
X119634285Y-133359580D01*
X119634285Y-133359580D02*
X119586666Y-133407200D01*
X119586666Y-133407200D02*
X119491428Y-133454819D01*
X119491428Y-133454819D02*
X119205714Y-133454819D01*
X119205714Y-133454819D02*
X119110476Y-133407200D01*
X119110476Y-133407200D02*
X119062857Y-133359580D01*
X132238571Y-109984819D02*
X132905237Y-109984819D01*
X132905237Y-109984819D02*
X132476666Y-110984819D01*
X133714761Y-110318152D02*
X133714761Y-110984819D01*
X133476666Y-109937200D02*
X133238571Y-110651485D01*
X133238571Y-110651485D02*
X133857618Y-110651485D01*
X134190952Y-110699104D02*
X134667142Y-110699104D01*
X134095714Y-110984819D02*
X134429047Y-109984819D01*
X134429047Y-109984819D02*
X134762380Y-110984819D01*
X135095714Y-110984819D02*
X135095714Y-109984819D01*
X135095714Y-110461009D02*
X135667142Y-110461009D01*
X135667142Y-110984819D02*
X135667142Y-109984819D01*
X136714761Y-110889580D02*
X136667142Y-110937200D01*
X136667142Y-110937200D02*
X136524285Y-110984819D01*
X136524285Y-110984819D02*
X136429047Y-110984819D01*
X136429047Y-110984819D02*
X136286190Y-110937200D01*
X136286190Y-110937200D02*
X136190952Y-110841961D01*
X136190952Y-110841961D02*
X136143333Y-110746723D01*
X136143333Y-110746723D02*
X136095714Y-110556247D01*
X136095714Y-110556247D02*
X136095714Y-110413390D01*
X136095714Y-110413390D02*
X136143333Y-110222914D01*
X136143333Y-110222914D02*
X136190952Y-110127676D01*
X136190952Y-110127676D02*
X136286190Y-110032438D01*
X136286190Y-110032438D02*
X136429047Y-109984819D01*
X136429047Y-109984819D02*
X136524285Y-109984819D01*
X136524285Y-109984819D02*
X136667142Y-110032438D01*
X136667142Y-110032438D02*
X136714761Y-110080057D01*
X137000476Y-109984819D02*
X137571904Y-109984819D01*
X137286190Y-110984819D02*
X137286190Y-109984819D01*
X138429047Y-110984819D02*
X137857619Y-110984819D01*
X138143333Y-110984819D02*
X138143333Y-109984819D01*
X138143333Y-109984819D02*
X138048095Y-110127676D01*
X138048095Y-110127676D02*
X137952857Y-110222914D01*
X137952857Y-110222914D02*
X137857619Y-110270533D01*
X138810000Y-110080057D02*
X138857619Y-110032438D01*
X138857619Y-110032438D02*
X138952857Y-109984819D01*
X138952857Y-109984819D02*
X139190952Y-109984819D01*
X139190952Y-109984819D02*
X139286190Y-110032438D01*
X139286190Y-110032438D02*
X139333809Y-110080057D01*
X139333809Y-110080057D02*
X139381428Y-110175295D01*
X139381428Y-110175295D02*
X139381428Y-110270533D01*
X139381428Y-110270533D02*
X139333809Y-110413390D01*
X139333809Y-110413390D02*
X138762381Y-110984819D01*
X138762381Y-110984819D02*
X139381428Y-110984819D01*
X140286190Y-109984819D02*
X139810000Y-109984819D01*
X139810000Y-109984819D02*
X139762381Y-110461009D01*
X139762381Y-110461009D02*
X139810000Y-110413390D01*
X139810000Y-110413390D02*
X139905238Y-110365771D01*
X139905238Y-110365771D02*
X140143333Y-110365771D01*
X140143333Y-110365771D02*
X140238571Y-110413390D01*
X140238571Y-110413390D02*
X140286190Y-110461009D01*
X140286190Y-110461009D02*
X140333809Y-110556247D01*
X140333809Y-110556247D02*
X140333809Y-110794342D01*
X140333809Y-110794342D02*
X140286190Y-110889580D01*
X140286190Y-110889580D02*
X140238571Y-110937200D01*
X140238571Y-110937200D02*
X140143333Y-110984819D01*
X140143333Y-110984819D02*
X139905238Y-110984819D01*
X139905238Y-110984819D02*
X139810000Y-110937200D01*
X139810000Y-110937200D02*
X139762381Y-110889580D01*
X135764819Y-101341904D02*
X136574342Y-101341904D01*
X136574342Y-101341904D02*
X136669580Y-101294285D01*
X136669580Y-101294285D02*
X136717200Y-101246666D01*
X136717200Y-101246666D02*
X136764819Y-101151428D01*
X136764819Y-101151428D02*
X136764819Y-100960952D01*
X136764819Y-100960952D02*
X136717200Y-100865714D01*
X136717200Y-100865714D02*
X136669580Y-100818095D01*
X136669580Y-100818095D02*
X136574342Y-100770476D01*
X136574342Y-100770476D02*
X135764819Y-100770476D01*
X135860057Y-100341904D02*
X135812438Y-100294285D01*
X135812438Y-100294285D02*
X135764819Y-100199047D01*
X135764819Y-100199047D02*
X135764819Y-99960952D01*
X135764819Y-99960952D02*
X135812438Y-99865714D01*
X135812438Y-99865714D02*
X135860057Y-99818095D01*
X135860057Y-99818095D02*
X135955295Y-99770476D01*
X135955295Y-99770476D02*
X136050533Y-99770476D01*
X136050533Y-99770476D02*
X136193390Y-99818095D01*
X136193390Y-99818095D02*
X136764819Y-100389523D01*
X136764819Y-100389523D02*
X136764819Y-99770476D01*
X135309047Y-118084819D02*
X134832857Y-118084819D01*
X134832857Y-118084819D02*
X134785238Y-118561009D01*
X134785238Y-118561009D02*
X134832857Y-118513390D01*
X134832857Y-118513390D02*
X134928095Y-118465771D01*
X134928095Y-118465771D02*
X135166190Y-118465771D01*
X135166190Y-118465771D02*
X135261428Y-118513390D01*
X135261428Y-118513390D02*
X135309047Y-118561009D01*
X135309047Y-118561009D02*
X135356666Y-118656247D01*
X135356666Y-118656247D02*
X135356666Y-118894342D01*
X135356666Y-118894342D02*
X135309047Y-118989580D01*
X135309047Y-118989580D02*
X135261428Y-119037200D01*
X135261428Y-119037200D02*
X135166190Y-119084819D01*
X135166190Y-119084819D02*
X134928095Y-119084819D01*
X134928095Y-119084819D02*
X134832857Y-119037200D01*
X134832857Y-119037200D02*
X134785238Y-118989580D01*
X135785238Y-118989580D02*
X135832857Y-119037200D01*
X135832857Y-119037200D02*
X135785238Y-119084819D01*
X135785238Y-119084819D02*
X135737619Y-119037200D01*
X135737619Y-119037200D02*
X135785238Y-118989580D01*
X135785238Y-118989580D02*
X135785238Y-119084819D01*
X136785237Y-119084819D02*
X136213809Y-119084819D01*
X136499523Y-119084819D02*
X136499523Y-118084819D01*
X136499523Y-118084819D02*
X136404285Y-118227676D01*
X136404285Y-118227676D02*
X136309047Y-118322914D01*
X136309047Y-118322914D02*
X136213809Y-118370533D01*
X137213809Y-119084819D02*
X137213809Y-118084819D01*
X137309047Y-118703866D02*
X137594761Y-119084819D01*
X137594761Y-118418152D02*
X137213809Y-118799104D01*
X135547142Y-121454819D02*
X135213809Y-120978628D01*
X134975714Y-121454819D02*
X134975714Y-120454819D01*
X134975714Y-120454819D02*
X135356666Y-120454819D01*
X135356666Y-120454819D02*
X135451904Y-120502438D01*
X135451904Y-120502438D02*
X135499523Y-120550057D01*
X135499523Y-120550057D02*
X135547142Y-120645295D01*
X135547142Y-120645295D02*
X135547142Y-120788152D01*
X135547142Y-120788152D02*
X135499523Y-120883390D01*
X135499523Y-120883390D02*
X135451904Y-120931009D01*
X135451904Y-120931009D02*
X135356666Y-120978628D01*
X135356666Y-120978628D02*
X134975714Y-120978628D01*
X136499523Y-121454819D02*
X135928095Y-121454819D01*
X136213809Y-121454819D02*
X136213809Y-120454819D01*
X136213809Y-120454819D02*
X136118571Y-120597676D01*
X136118571Y-120597676D02*
X136023333Y-120692914D01*
X136023333Y-120692914D02*
X135928095Y-120740533D01*
X136832857Y-120454819D02*
X137499523Y-120454819D01*
X137499523Y-120454819D02*
X137070952Y-121454819D01*
X118324819Y-114595238D02*
X118324819Y-115166666D01*
X118324819Y-114880952D02*
X117324819Y-114880952D01*
X117324819Y-114880952D02*
X117467676Y-114976190D01*
X117467676Y-114976190D02*
X117562914Y-115071428D01*
X117562914Y-115071428D02*
X117610533Y-115166666D01*
X117324819Y-113976190D02*
X117324819Y-113880952D01*
X117324819Y-113880952D02*
X117372438Y-113785714D01*
X117372438Y-113785714D02*
X117420057Y-113738095D01*
X117420057Y-113738095D02*
X117515295Y-113690476D01*
X117515295Y-113690476D02*
X117705771Y-113642857D01*
X117705771Y-113642857D02*
X117943866Y-113642857D01*
X117943866Y-113642857D02*
X118134342Y-113690476D01*
X118134342Y-113690476D02*
X118229580Y-113738095D01*
X118229580Y-113738095D02*
X118277200Y-113785714D01*
X118277200Y-113785714D02*
X118324819Y-113880952D01*
X118324819Y-113880952D02*
X118324819Y-113976190D01*
X118324819Y-113976190D02*
X118277200Y-114071428D01*
X118277200Y-114071428D02*
X118229580Y-114119047D01*
X118229580Y-114119047D02*
X118134342Y-114166666D01*
X118134342Y-114166666D02*
X117943866Y-114214285D01*
X117943866Y-114214285D02*
X117705771Y-114214285D01*
X117705771Y-114214285D02*
X117515295Y-114166666D01*
X117515295Y-114166666D02*
X117420057Y-114119047D01*
X117420057Y-114119047D02*
X117372438Y-114071428D01*
X117372438Y-114071428D02*
X117324819Y-113976190D01*
X118324819Y-113214285D02*
X117324819Y-113214285D01*
X117943866Y-113119047D02*
X118324819Y-112833333D01*
X117658152Y-112833333D02*
X118039104Y-113214285D01*
X115954819Y-114642857D02*
X115478628Y-114976190D01*
X115954819Y-115214285D02*
X114954819Y-115214285D01*
X114954819Y-115214285D02*
X114954819Y-114833333D01*
X114954819Y-114833333D02*
X115002438Y-114738095D01*
X115002438Y-114738095D02*
X115050057Y-114690476D01*
X115050057Y-114690476D02*
X115145295Y-114642857D01*
X115145295Y-114642857D02*
X115288152Y-114642857D01*
X115288152Y-114642857D02*
X115383390Y-114690476D01*
X115383390Y-114690476D02*
X115431009Y-114738095D01*
X115431009Y-114738095D02*
X115478628Y-114833333D01*
X115478628Y-114833333D02*
X115478628Y-115214285D01*
X115954819Y-113690476D02*
X115954819Y-114261904D01*
X115954819Y-113976190D02*
X114954819Y-113976190D01*
X114954819Y-113976190D02*
X115097676Y-114071428D01*
X115097676Y-114071428D02*
X115192914Y-114166666D01*
X115192914Y-114166666D02*
X115240533Y-114261904D01*
X114954819Y-112833333D02*
X114954819Y-113023809D01*
X114954819Y-113023809D02*
X115002438Y-113119047D01*
X115002438Y-113119047D02*
X115050057Y-113166666D01*
X115050057Y-113166666D02*
X115192914Y-113261904D01*
X115192914Y-113261904D02*
X115383390Y-113309523D01*
X115383390Y-113309523D02*
X115764342Y-113309523D01*
X115764342Y-113309523D02*
X115859580Y-113261904D01*
X115859580Y-113261904D02*
X115907200Y-113214285D01*
X115907200Y-113214285D02*
X115954819Y-113119047D01*
X115954819Y-113119047D02*
X115954819Y-112928571D01*
X115954819Y-112928571D02*
X115907200Y-112833333D01*
X115907200Y-112833333D02*
X115859580Y-112785714D01*
X115859580Y-112785714D02*
X115764342Y-112738095D01*
X115764342Y-112738095D02*
X115526247Y-112738095D01*
X115526247Y-112738095D02*
X115431009Y-112785714D01*
X115431009Y-112785714D02*
X115383390Y-112833333D01*
X115383390Y-112833333D02*
X115335771Y-112928571D01*
X115335771Y-112928571D02*
X115335771Y-113119047D01*
X115335771Y-113119047D02*
X115383390Y-113214285D01*
X115383390Y-113214285D02*
X115431009Y-113261904D01*
X115431009Y-113261904D02*
X115526247Y-113309523D01*
X147922319Y-84809523D02*
X148636604Y-84809523D01*
X148636604Y-84809523D02*
X148779461Y-84857142D01*
X148779461Y-84857142D02*
X148874700Y-84952380D01*
X148874700Y-84952380D02*
X148922319Y-85095237D01*
X148922319Y-85095237D02*
X148922319Y-85190475D01*
X148922319Y-83809523D02*
X148922319Y-84380951D01*
X148922319Y-84095237D02*
X147922319Y-84095237D01*
X147922319Y-84095237D02*
X148065176Y-84190475D01*
X148065176Y-84190475D02*
X148160414Y-84285713D01*
X148160414Y-84285713D02*
X148208033Y-84380951D01*
X147922319Y-83190475D02*
X147922319Y-83095237D01*
X147922319Y-83095237D02*
X147969938Y-82999999D01*
X147969938Y-82999999D02*
X148017557Y-82952380D01*
X148017557Y-82952380D02*
X148112795Y-82904761D01*
X148112795Y-82904761D02*
X148303271Y-82857142D01*
X148303271Y-82857142D02*
X148541366Y-82857142D01*
X148541366Y-82857142D02*
X148731842Y-82904761D01*
X148731842Y-82904761D02*
X148827080Y-82952380D01*
X148827080Y-82952380D02*
X148874700Y-82999999D01*
X148874700Y-82999999D02*
X148922319Y-83095237D01*
X148922319Y-83095237D02*
X148922319Y-83190475D01*
X148922319Y-83190475D02*
X148874700Y-83285713D01*
X148874700Y-83285713D02*
X148827080Y-83333332D01*
X148827080Y-83333332D02*
X148731842Y-83380951D01*
X148731842Y-83380951D02*
X148541366Y-83428570D01*
X148541366Y-83428570D02*
X148303271Y-83428570D01*
X148303271Y-83428570D02*
X148112795Y-83380951D01*
X148112795Y-83380951D02*
X148017557Y-83333332D01*
X148017557Y-83333332D02*
X147969938Y-83285713D01*
X147969938Y-83285713D02*
X147922319Y-83190475D01*
X136954819Y-139499999D02*
X136954819Y-139404761D01*
X136954819Y-139404761D02*
X137002438Y-139309523D01*
X137002438Y-139309523D02*
X137050057Y-139261904D01*
X137050057Y-139261904D02*
X137145295Y-139214285D01*
X137145295Y-139214285D02*
X137335771Y-139166666D01*
X137335771Y-139166666D02*
X137573866Y-139166666D01*
X137573866Y-139166666D02*
X137764342Y-139214285D01*
X137764342Y-139214285D02*
X137859580Y-139261904D01*
X137859580Y-139261904D02*
X137907200Y-139309523D01*
X137907200Y-139309523D02*
X137954819Y-139404761D01*
X137954819Y-139404761D02*
X137954819Y-139499999D01*
X137954819Y-139499999D02*
X137907200Y-139595237D01*
X137907200Y-139595237D02*
X137859580Y-139642856D01*
X137859580Y-139642856D02*
X137764342Y-139690475D01*
X137764342Y-139690475D02*
X137573866Y-139738094D01*
X137573866Y-139738094D02*
X137335771Y-139738094D01*
X137335771Y-139738094D02*
X137145295Y-139690475D01*
X137145295Y-139690475D02*
X137050057Y-139642856D01*
X137050057Y-139642856D02*
X137002438Y-139595237D01*
X137002438Y-139595237D02*
X136954819Y-139499999D01*
X137859580Y-138738094D02*
X137907200Y-138690475D01*
X137907200Y-138690475D02*
X137954819Y-138738094D01*
X137954819Y-138738094D02*
X137907200Y-138785713D01*
X137907200Y-138785713D02*
X137859580Y-138738094D01*
X137859580Y-138738094D02*
X137954819Y-138738094D01*
X136954819Y-138357142D02*
X136954819Y-137738095D01*
X136954819Y-137738095D02*
X137335771Y-138071428D01*
X137335771Y-138071428D02*
X137335771Y-137928571D01*
X137335771Y-137928571D02*
X137383390Y-137833333D01*
X137383390Y-137833333D02*
X137431009Y-137785714D01*
X137431009Y-137785714D02*
X137526247Y-137738095D01*
X137526247Y-137738095D02*
X137764342Y-137738095D01*
X137764342Y-137738095D02*
X137859580Y-137785714D01*
X137859580Y-137785714D02*
X137907200Y-137833333D01*
X137907200Y-137833333D02*
X137954819Y-137928571D01*
X137954819Y-137928571D02*
X137954819Y-138214285D01*
X137954819Y-138214285D02*
X137907200Y-138309523D01*
X137907200Y-138309523D02*
X137859580Y-138357142D01*
X136954819Y-137404761D02*
X136954819Y-136785714D01*
X136954819Y-136785714D02*
X137335771Y-137119047D01*
X137335771Y-137119047D02*
X137335771Y-136976190D01*
X137335771Y-136976190D02*
X137383390Y-136880952D01*
X137383390Y-136880952D02*
X137431009Y-136833333D01*
X137431009Y-136833333D02*
X137526247Y-136785714D01*
X137526247Y-136785714D02*
X137764342Y-136785714D01*
X137764342Y-136785714D02*
X137859580Y-136833333D01*
X137859580Y-136833333D02*
X137907200Y-136880952D01*
X137907200Y-136880952D02*
X137954819Y-136976190D01*
X137954819Y-136976190D02*
X137954819Y-137261904D01*
X137954819Y-137261904D02*
X137907200Y-137357142D01*
X137907200Y-137357142D02*
X137859580Y-137404761D01*
X137288152Y-135166666D02*
X137954819Y-135166666D01*
X137288152Y-135595237D02*
X137811961Y-135595237D01*
X137811961Y-135595237D02*
X137907200Y-135547618D01*
X137907200Y-135547618D02*
X137954819Y-135452380D01*
X137954819Y-135452380D02*
X137954819Y-135309523D01*
X137954819Y-135309523D02*
X137907200Y-135214285D01*
X137907200Y-135214285D02*
X137859580Y-135166666D01*
X137431009Y-134357142D02*
X137431009Y-134690475D01*
X137954819Y-134690475D02*
X136954819Y-134690475D01*
X136954819Y-134690475D02*
X136954819Y-134214285D01*
X135859580Y-137166666D02*
X135907200Y-137214285D01*
X135907200Y-137214285D02*
X135954819Y-137357142D01*
X135954819Y-137357142D02*
X135954819Y-137452380D01*
X135954819Y-137452380D02*
X135907200Y-137595237D01*
X135907200Y-137595237D02*
X135811961Y-137690475D01*
X135811961Y-137690475D02*
X135716723Y-137738094D01*
X135716723Y-137738094D02*
X135526247Y-137785713D01*
X135526247Y-137785713D02*
X135383390Y-137785713D01*
X135383390Y-137785713D02*
X135192914Y-137738094D01*
X135192914Y-137738094D02*
X135097676Y-137690475D01*
X135097676Y-137690475D02*
X135002438Y-137595237D01*
X135002438Y-137595237D02*
X134954819Y-137452380D01*
X134954819Y-137452380D02*
X134954819Y-137357142D01*
X134954819Y-137357142D02*
X135002438Y-137214285D01*
X135002438Y-137214285D02*
X135050057Y-137166666D01*
X135954819Y-136214285D02*
X135954819Y-136785713D01*
X135954819Y-136499999D02*
X134954819Y-136499999D01*
X134954819Y-136499999D02*
X135097676Y-136595237D01*
X135097676Y-136595237D02*
X135192914Y-136690475D01*
X135192914Y-136690475D02*
X135240533Y-136785713D01*
D12*
X51733333Y-53432208D02*
X51733333Y-52482208D01*
X51733333Y-52482208D02*
X52050000Y-53160779D01*
X52050000Y-53160779D02*
X52366666Y-52482208D01*
X52366666Y-52482208D02*
X52366666Y-53432208D01*
X52819047Y-53432208D02*
X52819047Y-52482208D01*
X52819047Y-52934589D02*
X53361904Y-52934589D01*
X53361904Y-53432208D02*
X53361904Y-52482208D01*
X53769047Y-52572684D02*
X53814285Y-52527446D01*
X53814285Y-52527446D02*
X53904761Y-52482208D01*
X53904761Y-52482208D02*
X54130952Y-52482208D01*
X54130952Y-52482208D02*
X54221428Y-52527446D01*
X54221428Y-52527446D02*
X54266666Y-52572684D01*
X54266666Y-52572684D02*
X54311904Y-52663160D01*
X54311904Y-52663160D02*
X54311904Y-52753636D01*
X54311904Y-52753636D02*
X54266666Y-52889350D01*
X54266666Y-52889350D02*
X53723809Y-53432208D01*
X53723809Y-53432208D02*
X54311904Y-53432208D01*
D10*
X91831319Y-88571904D02*
X90831319Y-88571904D01*
X91831319Y-88000476D02*
X91259890Y-88429047D01*
X90831319Y-88000476D02*
X91402747Y-88571904D01*
D11*
X93540355Y-85171428D02*
X92740355Y-85171428D01*
X92740355Y-85171428D02*
X92740355Y-84980952D01*
X92740355Y-84980952D02*
X92778450Y-84866666D01*
X92778450Y-84866666D02*
X92854640Y-84790476D01*
X92854640Y-84790476D02*
X92930831Y-84752381D01*
X92930831Y-84752381D02*
X93083212Y-84714285D01*
X93083212Y-84714285D02*
X93197498Y-84714285D01*
X93197498Y-84714285D02*
X93349879Y-84752381D01*
X93349879Y-84752381D02*
X93426069Y-84790476D01*
X93426069Y-84790476D02*
X93502260Y-84866666D01*
X93502260Y-84866666D02*
X93540355Y-84980952D01*
X93540355Y-84980952D02*
X93540355Y-85171428D01*
X92740355Y-84447619D02*
X92740355Y-83914285D01*
X92740355Y-83914285D02*
X93540355Y-84447619D01*
X93540355Y-84447619D02*
X93540355Y-83914285D01*
X92740355Y-83228571D02*
X92740355Y-83609523D01*
X92740355Y-83609523D02*
X93121307Y-83647619D01*
X93121307Y-83647619D02*
X93083212Y-83609523D01*
X93083212Y-83609523D02*
X93045117Y-83533333D01*
X93045117Y-83533333D02*
X93045117Y-83342857D01*
X93045117Y-83342857D02*
X93083212Y-83266666D01*
X93083212Y-83266666D02*
X93121307Y-83228571D01*
X93121307Y-83228571D02*
X93197498Y-83190476D01*
X93197498Y-83190476D02*
X93387974Y-83190476D01*
X93387974Y-83190476D02*
X93464164Y-83228571D01*
X93464164Y-83228571D02*
X93502260Y-83266666D01*
X93502260Y-83266666D02*
X93540355Y-83342857D01*
X93540355Y-83342857D02*
X93540355Y-83533333D01*
X93540355Y-83533333D02*
X93502260Y-83609523D01*
X93502260Y-83609523D02*
X93464164Y-83647619D01*
D10*
X122261904Y-61894700D02*
X122404761Y-61942319D01*
X122404761Y-61942319D02*
X122642856Y-61942319D01*
X122642856Y-61942319D02*
X122738094Y-61894700D01*
X122738094Y-61894700D02*
X122785713Y-61847080D01*
X122785713Y-61847080D02*
X122833332Y-61751842D01*
X122833332Y-61751842D02*
X122833332Y-61656604D01*
X122833332Y-61656604D02*
X122785713Y-61561366D01*
X122785713Y-61561366D02*
X122738094Y-61513747D01*
X122738094Y-61513747D02*
X122642856Y-61466128D01*
X122642856Y-61466128D02*
X122452380Y-61418509D01*
X122452380Y-61418509D02*
X122357142Y-61370890D01*
X122357142Y-61370890D02*
X122309523Y-61323271D01*
X122309523Y-61323271D02*
X122261904Y-61228033D01*
X122261904Y-61228033D02*
X122261904Y-61132795D01*
X122261904Y-61132795D02*
X122309523Y-61037557D01*
X122309523Y-61037557D02*
X122357142Y-60989938D01*
X122357142Y-60989938D02*
X122452380Y-60942319D01*
X122452380Y-60942319D02*
X122690475Y-60942319D01*
X122690475Y-60942319D02*
X122833332Y-60989938D01*
X123690475Y-61894700D02*
X123595237Y-61942319D01*
X123595237Y-61942319D02*
X123404761Y-61942319D01*
X123404761Y-61942319D02*
X123309523Y-61894700D01*
X123309523Y-61894700D02*
X123261904Y-61847080D01*
X123261904Y-61847080D02*
X123214285Y-61751842D01*
X123214285Y-61751842D02*
X123214285Y-61466128D01*
X123214285Y-61466128D02*
X123261904Y-61370890D01*
X123261904Y-61370890D02*
X123309523Y-61323271D01*
X123309523Y-61323271D02*
X123404761Y-61275652D01*
X123404761Y-61275652D02*
X123595237Y-61275652D01*
X123595237Y-61275652D02*
X123690475Y-61323271D01*
X124119047Y-61942319D02*
X124119047Y-61275652D01*
X124119047Y-61466128D02*
X124166666Y-61370890D01*
X124166666Y-61370890D02*
X124214285Y-61323271D01*
X124214285Y-61323271D02*
X124309523Y-61275652D01*
X124309523Y-61275652D02*
X124404761Y-61275652D01*
X125119047Y-61894700D02*
X125023809Y-61942319D01*
X125023809Y-61942319D02*
X124833333Y-61942319D01*
X124833333Y-61942319D02*
X124738095Y-61894700D01*
X124738095Y-61894700D02*
X124690476Y-61799461D01*
X124690476Y-61799461D02*
X124690476Y-61418509D01*
X124690476Y-61418509D02*
X124738095Y-61323271D01*
X124738095Y-61323271D02*
X124833333Y-61275652D01*
X124833333Y-61275652D02*
X125023809Y-61275652D01*
X125023809Y-61275652D02*
X125119047Y-61323271D01*
X125119047Y-61323271D02*
X125166666Y-61418509D01*
X125166666Y-61418509D02*
X125166666Y-61513747D01*
X125166666Y-61513747D02*
X124690476Y-61608985D01*
X125500000Y-61275652D02*
X125690476Y-61942319D01*
X125690476Y-61942319D02*
X125880952Y-61466128D01*
X125880952Y-61466128D02*
X126071428Y-61942319D01*
X126071428Y-61942319D02*
X126261904Y-61275652D01*
X126404762Y-62037557D02*
X127166666Y-62037557D01*
X127261905Y-60942319D02*
X127833333Y-60942319D01*
X127547619Y-61942319D02*
X127547619Y-60942319D01*
X128547619Y-61894700D02*
X128452381Y-61942319D01*
X128452381Y-61942319D02*
X128261905Y-61942319D01*
X128261905Y-61942319D02*
X128166667Y-61894700D01*
X128166667Y-61894700D02*
X128119048Y-61799461D01*
X128119048Y-61799461D02*
X128119048Y-61418509D01*
X128119048Y-61418509D02*
X128166667Y-61323271D01*
X128166667Y-61323271D02*
X128261905Y-61275652D01*
X128261905Y-61275652D02*
X128452381Y-61275652D01*
X128452381Y-61275652D02*
X128547619Y-61323271D01*
X128547619Y-61323271D02*
X128595238Y-61418509D01*
X128595238Y-61418509D02*
X128595238Y-61513747D01*
X128595238Y-61513747D02*
X128119048Y-61608985D01*
X129023810Y-61942319D02*
X129023810Y-61275652D01*
X129023810Y-61466128D02*
X129071429Y-61370890D01*
X129071429Y-61370890D02*
X129119048Y-61323271D01*
X129119048Y-61323271D02*
X129214286Y-61275652D01*
X129214286Y-61275652D02*
X129309524Y-61275652D01*
X129642858Y-61942319D02*
X129642858Y-61275652D01*
X129642858Y-61370890D02*
X129690477Y-61323271D01*
X129690477Y-61323271D02*
X129785715Y-61275652D01*
X129785715Y-61275652D02*
X129928572Y-61275652D01*
X129928572Y-61275652D02*
X130023810Y-61323271D01*
X130023810Y-61323271D02*
X130071429Y-61418509D01*
X130071429Y-61418509D02*
X130071429Y-61942319D01*
X130071429Y-61418509D02*
X130119048Y-61323271D01*
X130119048Y-61323271D02*
X130214286Y-61275652D01*
X130214286Y-61275652D02*
X130357143Y-61275652D01*
X130357143Y-61275652D02*
X130452382Y-61323271D01*
X130452382Y-61323271D02*
X130500001Y-61418509D01*
X130500001Y-61418509D02*
X130500001Y-61942319D01*
X130976191Y-61942319D02*
X130976191Y-61275652D01*
X130976191Y-60942319D02*
X130928572Y-60989938D01*
X130928572Y-60989938D02*
X130976191Y-61037557D01*
X130976191Y-61037557D02*
X131023810Y-60989938D01*
X131023810Y-60989938D02*
X130976191Y-60942319D01*
X130976191Y-60942319D02*
X130976191Y-61037557D01*
X131452381Y-61275652D02*
X131452381Y-61942319D01*
X131452381Y-61370890D02*
X131500000Y-61323271D01*
X131500000Y-61323271D02*
X131595238Y-61275652D01*
X131595238Y-61275652D02*
X131738095Y-61275652D01*
X131738095Y-61275652D02*
X131833333Y-61323271D01*
X131833333Y-61323271D02*
X131880952Y-61418509D01*
X131880952Y-61418509D02*
X131880952Y-61942319D01*
X132785714Y-61942319D02*
X132785714Y-61418509D01*
X132785714Y-61418509D02*
X132738095Y-61323271D01*
X132738095Y-61323271D02*
X132642857Y-61275652D01*
X132642857Y-61275652D02*
X132452381Y-61275652D01*
X132452381Y-61275652D02*
X132357143Y-61323271D01*
X132785714Y-61894700D02*
X132690476Y-61942319D01*
X132690476Y-61942319D02*
X132452381Y-61942319D01*
X132452381Y-61942319D02*
X132357143Y-61894700D01*
X132357143Y-61894700D02*
X132309524Y-61799461D01*
X132309524Y-61799461D02*
X132309524Y-61704223D01*
X132309524Y-61704223D02*
X132357143Y-61608985D01*
X132357143Y-61608985D02*
X132452381Y-61561366D01*
X132452381Y-61561366D02*
X132690476Y-61561366D01*
X132690476Y-61561366D02*
X132785714Y-61513747D01*
X133404762Y-61942319D02*
X133309524Y-61894700D01*
X133309524Y-61894700D02*
X133261905Y-61799461D01*
X133261905Y-61799461D02*
X133261905Y-60942319D01*
X133547620Y-62037557D02*
X134309524Y-62037557D01*
X134738096Y-60942319D02*
X134833334Y-60942319D01*
X134833334Y-60942319D02*
X134928572Y-60989938D01*
X134928572Y-60989938D02*
X134976191Y-61037557D01*
X134976191Y-61037557D02*
X135023810Y-61132795D01*
X135023810Y-61132795D02*
X135071429Y-61323271D01*
X135071429Y-61323271D02*
X135071429Y-61561366D01*
X135071429Y-61561366D02*
X135023810Y-61751842D01*
X135023810Y-61751842D02*
X134976191Y-61847080D01*
X134976191Y-61847080D02*
X134928572Y-61894700D01*
X134928572Y-61894700D02*
X134833334Y-61942319D01*
X134833334Y-61942319D02*
X134738096Y-61942319D01*
X134738096Y-61942319D02*
X134642858Y-61894700D01*
X134642858Y-61894700D02*
X134595239Y-61847080D01*
X134595239Y-61847080D02*
X134547620Y-61751842D01*
X134547620Y-61751842D02*
X134500001Y-61561366D01*
X134500001Y-61561366D02*
X134500001Y-61323271D01*
X134500001Y-61323271D02*
X134547620Y-61132795D01*
X134547620Y-61132795D02*
X134595239Y-61037557D01*
X134595239Y-61037557D02*
X134642858Y-60989938D01*
X134642858Y-60989938D02*
X134738096Y-60942319D01*
X136023810Y-61942319D02*
X135452382Y-61942319D01*
X135738096Y-61942319D02*
X135738096Y-60942319D01*
X135738096Y-60942319D02*
X135642858Y-61085176D01*
X135642858Y-61085176D02*
X135547620Y-61180414D01*
X135547620Y-61180414D02*
X135452382Y-61228033D01*
X136357144Y-61942319D02*
X136880953Y-61275652D01*
X136357144Y-61275652D02*
X136880953Y-61942319D01*
X137452382Y-60942319D02*
X137547620Y-60942319D01*
X137547620Y-60942319D02*
X137642858Y-60989938D01*
X137642858Y-60989938D02*
X137690477Y-61037557D01*
X137690477Y-61037557D02*
X137738096Y-61132795D01*
X137738096Y-61132795D02*
X137785715Y-61323271D01*
X137785715Y-61323271D02*
X137785715Y-61561366D01*
X137785715Y-61561366D02*
X137738096Y-61751842D01*
X137738096Y-61751842D02*
X137690477Y-61847080D01*
X137690477Y-61847080D02*
X137642858Y-61894700D01*
X137642858Y-61894700D02*
X137547620Y-61942319D01*
X137547620Y-61942319D02*
X137452382Y-61942319D01*
X137452382Y-61942319D02*
X137357144Y-61894700D01*
X137357144Y-61894700D02*
X137309525Y-61847080D01*
X137309525Y-61847080D02*
X137261906Y-61751842D01*
X137261906Y-61751842D02*
X137214287Y-61561366D01*
X137214287Y-61561366D02*
X137214287Y-61323271D01*
X137214287Y-61323271D02*
X137261906Y-61132795D01*
X137261906Y-61132795D02*
X137309525Y-61037557D01*
X137309525Y-61037557D02*
X137357144Y-60989938D01*
X137357144Y-60989938D02*
X137452382Y-60942319D01*
X138166668Y-61037557D02*
X138214287Y-60989938D01*
X138214287Y-60989938D02*
X138309525Y-60942319D01*
X138309525Y-60942319D02*
X138547620Y-60942319D01*
X138547620Y-60942319D02*
X138642858Y-60989938D01*
X138642858Y-60989938D02*
X138690477Y-61037557D01*
X138690477Y-61037557D02*
X138738096Y-61132795D01*
X138738096Y-61132795D02*
X138738096Y-61228033D01*
X138738096Y-61228033D02*
X138690477Y-61370890D01*
X138690477Y-61370890D02*
X138119049Y-61942319D01*
X138119049Y-61942319D02*
X138738096Y-61942319D01*
X129690476Y-58922319D02*
X129690476Y-59636604D01*
X129690476Y-59636604D02*
X129642857Y-59779461D01*
X129642857Y-59779461D02*
X129547619Y-59874700D01*
X129547619Y-59874700D02*
X129404762Y-59922319D01*
X129404762Y-59922319D02*
X129309524Y-59922319D01*
X130690476Y-59922319D02*
X130119048Y-59922319D01*
X130404762Y-59922319D02*
X130404762Y-58922319D01*
X130404762Y-58922319D02*
X130309524Y-59065176D01*
X130309524Y-59065176D02*
X130214286Y-59160414D01*
X130214286Y-59160414D02*
X130119048Y-59208033D01*
X131071429Y-59017557D02*
X131119048Y-58969938D01*
X131119048Y-58969938D02*
X131214286Y-58922319D01*
X131214286Y-58922319D02*
X131452381Y-58922319D01*
X131452381Y-58922319D02*
X131547619Y-58969938D01*
X131547619Y-58969938D02*
X131595238Y-59017557D01*
X131595238Y-59017557D02*
X131642857Y-59112795D01*
X131642857Y-59112795D02*
X131642857Y-59208033D01*
X131642857Y-59208033D02*
X131595238Y-59350890D01*
X131595238Y-59350890D02*
X131023810Y-59922319D01*
X131023810Y-59922319D02*
X131642857Y-59922319D01*
X150561366Y-61261904D02*
X150513747Y-61214285D01*
X150513747Y-61214285D02*
X150466128Y-61119047D01*
X150466128Y-61119047D02*
X150561366Y-60928571D01*
X150561366Y-60928571D02*
X150513747Y-60833333D01*
X150513747Y-60833333D02*
X150466128Y-60785714D01*
X147922319Y-61809523D02*
X148636604Y-61809523D01*
X148636604Y-61809523D02*
X148779461Y-61857142D01*
X148779461Y-61857142D02*
X148874700Y-61952380D01*
X148874700Y-61952380D02*
X148922319Y-62095237D01*
X148922319Y-62095237D02*
X148922319Y-62190475D01*
X148922319Y-60809523D02*
X148922319Y-61380951D01*
X148922319Y-61095237D02*
X147922319Y-61095237D01*
X147922319Y-61095237D02*
X148065176Y-61190475D01*
X148065176Y-61190475D02*
X148160414Y-61285713D01*
X148160414Y-61285713D02*
X148208033Y-61380951D01*
X148922319Y-59857142D02*
X148922319Y-60428570D01*
X148922319Y-60142856D02*
X147922319Y-60142856D01*
X147922319Y-60142856D02*
X148065176Y-60238094D01*
X148065176Y-60238094D02*
X148160414Y-60333332D01*
X148160414Y-60333332D02*
X148208033Y-60428570D01*
X55142380Y-97789580D02*
X55094761Y-97837200D01*
X55094761Y-97837200D02*
X54951904Y-97884819D01*
X54951904Y-97884819D02*
X54856666Y-97884819D01*
X54856666Y-97884819D02*
X54713809Y-97837200D01*
X54713809Y-97837200D02*
X54618571Y-97741961D01*
X54618571Y-97741961D02*
X54570952Y-97646723D01*
X54570952Y-97646723D02*
X54523333Y-97456247D01*
X54523333Y-97456247D02*
X54523333Y-97313390D01*
X54523333Y-97313390D02*
X54570952Y-97122914D01*
X54570952Y-97122914D02*
X54618571Y-97027676D01*
X54618571Y-97027676D02*
X54713809Y-96932438D01*
X54713809Y-96932438D02*
X54856666Y-96884819D01*
X54856666Y-96884819D02*
X54951904Y-96884819D01*
X54951904Y-96884819D02*
X55094761Y-96932438D01*
X55094761Y-96932438D02*
X55142380Y-96980057D01*
X55570952Y-97884819D02*
X55570952Y-96884819D01*
X55570952Y-96884819D02*
X55809047Y-96884819D01*
X55809047Y-96884819D02*
X55951904Y-96932438D01*
X55951904Y-96932438D02*
X56047142Y-97027676D01*
X56047142Y-97027676D02*
X56094761Y-97122914D01*
X56094761Y-97122914D02*
X56142380Y-97313390D01*
X56142380Y-97313390D02*
X56142380Y-97456247D01*
X56142380Y-97456247D02*
X56094761Y-97646723D01*
X56094761Y-97646723D02*
X56047142Y-97741961D01*
X56047142Y-97741961D02*
X55951904Y-97837200D01*
X55951904Y-97837200D02*
X55809047Y-97884819D01*
X55809047Y-97884819D02*
X55570952Y-97884819D01*
X56999523Y-97218152D02*
X56999523Y-97884819D01*
X56761428Y-96837200D02*
X56523333Y-97551485D01*
X56523333Y-97551485D02*
X57142380Y-97551485D01*
X57713809Y-96884819D02*
X57809047Y-96884819D01*
X57809047Y-96884819D02*
X57904285Y-96932438D01*
X57904285Y-96932438D02*
X57951904Y-96980057D01*
X57951904Y-96980057D02*
X57999523Y-97075295D01*
X57999523Y-97075295D02*
X58047142Y-97265771D01*
X58047142Y-97265771D02*
X58047142Y-97503866D01*
X58047142Y-97503866D02*
X57999523Y-97694342D01*
X57999523Y-97694342D02*
X57951904Y-97789580D01*
X57951904Y-97789580D02*
X57904285Y-97837200D01*
X57904285Y-97837200D02*
X57809047Y-97884819D01*
X57809047Y-97884819D02*
X57713809Y-97884819D01*
X57713809Y-97884819D02*
X57618571Y-97837200D01*
X57618571Y-97837200D02*
X57570952Y-97789580D01*
X57570952Y-97789580D02*
X57523333Y-97694342D01*
X57523333Y-97694342D02*
X57475714Y-97503866D01*
X57475714Y-97503866D02*
X57475714Y-97265771D01*
X57475714Y-97265771D02*
X57523333Y-97075295D01*
X57523333Y-97075295D02*
X57570952Y-96980057D01*
X57570952Y-96980057D02*
X57618571Y-96932438D01*
X57618571Y-96932438D02*
X57713809Y-96884819D01*
X58951904Y-96884819D02*
X58475714Y-96884819D01*
X58475714Y-96884819D02*
X58428095Y-97361009D01*
X58428095Y-97361009D02*
X58475714Y-97313390D01*
X58475714Y-97313390D02*
X58570952Y-97265771D01*
X58570952Y-97265771D02*
X58809047Y-97265771D01*
X58809047Y-97265771D02*
X58904285Y-97313390D01*
X58904285Y-97313390D02*
X58951904Y-97361009D01*
X58951904Y-97361009D02*
X58999523Y-97456247D01*
X58999523Y-97456247D02*
X58999523Y-97694342D01*
X58999523Y-97694342D02*
X58951904Y-97789580D01*
X58951904Y-97789580D02*
X58904285Y-97837200D01*
X58904285Y-97837200D02*
X58809047Y-97884819D01*
X58809047Y-97884819D02*
X58570952Y-97884819D01*
X58570952Y-97884819D02*
X58475714Y-97837200D01*
X58475714Y-97837200D02*
X58428095Y-97789580D01*
X59618571Y-96884819D02*
X59713809Y-96884819D01*
X59713809Y-96884819D02*
X59809047Y-96932438D01*
X59809047Y-96932438D02*
X59856666Y-96980057D01*
X59856666Y-96980057D02*
X59904285Y-97075295D01*
X59904285Y-97075295D02*
X59951904Y-97265771D01*
X59951904Y-97265771D02*
X59951904Y-97503866D01*
X59951904Y-97503866D02*
X59904285Y-97694342D01*
X59904285Y-97694342D02*
X59856666Y-97789580D01*
X59856666Y-97789580D02*
X59809047Y-97837200D01*
X59809047Y-97837200D02*
X59713809Y-97884819D01*
X59713809Y-97884819D02*
X59618571Y-97884819D01*
X59618571Y-97884819D02*
X59523333Y-97837200D01*
X59523333Y-97837200D02*
X59475714Y-97789580D01*
X59475714Y-97789580D02*
X59428095Y-97694342D01*
X59428095Y-97694342D02*
X59380476Y-97503866D01*
X59380476Y-97503866D02*
X59380476Y-97265771D01*
X59380476Y-97265771D02*
X59428095Y-97075295D01*
X59428095Y-97075295D02*
X59475714Y-96980057D01*
X59475714Y-96980057D02*
X59523333Y-96932438D01*
X59523333Y-96932438D02*
X59618571Y-96884819D01*
X60713809Y-97361009D02*
X60856666Y-97408628D01*
X60856666Y-97408628D02*
X60904285Y-97456247D01*
X60904285Y-97456247D02*
X60951904Y-97551485D01*
X60951904Y-97551485D02*
X60951904Y-97694342D01*
X60951904Y-97694342D02*
X60904285Y-97789580D01*
X60904285Y-97789580D02*
X60856666Y-97837200D01*
X60856666Y-97837200D02*
X60761428Y-97884819D01*
X60761428Y-97884819D02*
X60380476Y-97884819D01*
X60380476Y-97884819D02*
X60380476Y-96884819D01*
X60380476Y-96884819D02*
X60713809Y-96884819D01*
X60713809Y-96884819D02*
X60809047Y-96932438D01*
X60809047Y-96932438D02*
X60856666Y-96980057D01*
X60856666Y-96980057D02*
X60904285Y-97075295D01*
X60904285Y-97075295D02*
X60904285Y-97170533D01*
X60904285Y-97170533D02*
X60856666Y-97265771D01*
X60856666Y-97265771D02*
X60809047Y-97313390D01*
X60809047Y-97313390D02*
X60713809Y-97361009D01*
X60713809Y-97361009D02*
X60380476Y-97361009D01*
X61380476Y-97361009D02*
X61713809Y-97361009D01*
X61856666Y-97884819D02*
X61380476Y-97884819D01*
X61380476Y-97884819D02*
X61380476Y-96884819D01*
X61380476Y-96884819D02*
X61856666Y-96884819D01*
X57644819Y-109411904D02*
X58454342Y-109411904D01*
X58454342Y-109411904D02*
X58549580Y-109364285D01*
X58549580Y-109364285D02*
X58597200Y-109316666D01*
X58597200Y-109316666D02*
X58644819Y-109221428D01*
X58644819Y-109221428D02*
X58644819Y-109030952D01*
X58644819Y-109030952D02*
X58597200Y-108935714D01*
X58597200Y-108935714D02*
X58549580Y-108888095D01*
X58549580Y-108888095D02*
X58454342Y-108840476D01*
X58454342Y-108840476D02*
X57644819Y-108840476D01*
X57644819Y-107888095D02*
X57644819Y-108364285D01*
X57644819Y-108364285D02*
X58121009Y-108411904D01*
X58121009Y-108411904D02*
X58073390Y-108364285D01*
X58073390Y-108364285D02*
X58025771Y-108269047D01*
X58025771Y-108269047D02*
X58025771Y-108030952D01*
X58025771Y-108030952D02*
X58073390Y-107935714D01*
X58073390Y-107935714D02*
X58121009Y-107888095D01*
X58121009Y-107888095D02*
X58216247Y-107840476D01*
X58216247Y-107840476D02*
X58454342Y-107840476D01*
X58454342Y-107840476D02*
X58549580Y-107888095D01*
X58549580Y-107888095D02*
X58597200Y-107935714D01*
X58597200Y-107935714D02*
X58644819Y-108030952D01*
X58644819Y-108030952D02*
X58644819Y-108269047D01*
X58644819Y-108269047D02*
X58597200Y-108364285D01*
X58597200Y-108364285D02*
X58549580Y-108411904D01*
X72738095Y-61561366D02*
X72785714Y-61513747D01*
X72785714Y-61513747D02*
X72880952Y-61466128D01*
X72880952Y-61466128D02*
X73071428Y-61561366D01*
X73071428Y-61561366D02*
X73166666Y-61513747D01*
X73166666Y-61513747D02*
X73214285Y-61466128D01*
X72666666Y-58922319D02*
X72666666Y-59636604D01*
X72666666Y-59636604D02*
X72619047Y-59779461D01*
X72619047Y-59779461D02*
X72523809Y-59874700D01*
X72523809Y-59874700D02*
X72380952Y-59922319D01*
X72380952Y-59922319D02*
X72285714Y-59922319D01*
X73571428Y-59255652D02*
X73571428Y-59922319D01*
X73333333Y-58874700D02*
X73095238Y-59588985D01*
X73095238Y-59588985D02*
X73714285Y-59588985D01*
X60404761Y-133954819D02*
X59833333Y-133954819D01*
X60119047Y-133954819D02*
X60119047Y-132954819D01*
X60119047Y-132954819D02*
X60023809Y-133097676D01*
X60023809Y-133097676D02*
X59928571Y-133192914D01*
X59928571Y-133192914D02*
X59833333Y-133240533D01*
X61023809Y-132954819D02*
X61119047Y-132954819D01*
X61119047Y-132954819D02*
X61214285Y-133002438D01*
X61214285Y-133002438D02*
X61261904Y-133050057D01*
X61261904Y-133050057D02*
X61309523Y-133145295D01*
X61309523Y-133145295D02*
X61357142Y-133335771D01*
X61357142Y-133335771D02*
X61357142Y-133573866D01*
X61357142Y-133573866D02*
X61309523Y-133764342D01*
X61309523Y-133764342D02*
X61261904Y-133859580D01*
X61261904Y-133859580D02*
X61214285Y-133907200D01*
X61214285Y-133907200D02*
X61119047Y-133954819D01*
X61119047Y-133954819D02*
X61023809Y-133954819D01*
X61023809Y-133954819D02*
X60928571Y-133907200D01*
X60928571Y-133907200D02*
X60880952Y-133859580D01*
X60880952Y-133859580D02*
X60833333Y-133764342D01*
X60833333Y-133764342D02*
X60785714Y-133573866D01*
X60785714Y-133573866D02*
X60785714Y-133335771D01*
X60785714Y-133335771D02*
X60833333Y-133145295D01*
X60833333Y-133145295D02*
X60880952Y-133050057D01*
X60880952Y-133050057D02*
X60928571Y-133002438D01*
X60928571Y-133002438D02*
X61023809Y-132954819D01*
X61785714Y-133954819D02*
X61785714Y-132954819D01*
X61880952Y-133573866D02*
X62166666Y-133954819D01*
X62166666Y-133288152D02*
X61785714Y-133669104D01*
X109243019Y-88571904D02*
X108243019Y-88571904D01*
X109243019Y-88000476D02*
X108671590Y-88429047D01*
X108243019Y-88000476D02*
X108814447Y-88571904D01*
D11*
X110952055Y-85171428D02*
X110152055Y-85171428D01*
X110152055Y-85171428D02*
X110152055Y-84980952D01*
X110152055Y-84980952D02*
X110190150Y-84866666D01*
X110190150Y-84866666D02*
X110266340Y-84790476D01*
X110266340Y-84790476D02*
X110342531Y-84752381D01*
X110342531Y-84752381D02*
X110494912Y-84714285D01*
X110494912Y-84714285D02*
X110609198Y-84714285D01*
X110609198Y-84714285D02*
X110761579Y-84752381D01*
X110761579Y-84752381D02*
X110837769Y-84790476D01*
X110837769Y-84790476D02*
X110913960Y-84866666D01*
X110913960Y-84866666D02*
X110952055Y-84980952D01*
X110952055Y-84980952D02*
X110952055Y-85171428D01*
X110152055Y-84447619D02*
X110152055Y-83914285D01*
X110152055Y-83914285D02*
X110952055Y-84447619D01*
X110952055Y-84447619D02*
X110952055Y-83914285D01*
X110152055Y-83685714D02*
X110152055Y-83152380D01*
X110152055Y-83152380D02*
X110952055Y-83495238D01*
D10*
X83162986Y-100812099D02*
X82829653Y-100335908D01*
X82591558Y-100812099D02*
X82591558Y-99812099D01*
X82591558Y-99812099D02*
X82972510Y-99812099D01*
X82972510Y-99812099D02*
X83067748Y-99859718D01*
X83067748Y-99859718D02*
X83115367Y-99907337D01*
X83115367Y-99907337D02*
X83162986Y-100002575D01*
X83162986Y-100002575D02*
X83162986Y-100145432D01*
X83162986Y-100145432D02*
X83115367Y-100240670D01*
X83115367Y-100240670D02*
X83067748Y-100288289D01*
X83067748Y-100288289D02*
X82972510Y-100335908D01*
X82972510Y-100335908D02*
X82591558Y-100335908D01*
X83591558Y-100288289D02*
X83924891Y-100288289D01*
X84067748Y-100812099D02*
X83591558Y-100812099D01*
X83591558Y-100812099D02*
X83591558Y-99812099D01*
X83591558Y-99812099D02*
X84067748Y-99812099D01*
X84829653Y-100288289D02*
X84496320Y-100288289D01*
X84496320Y-100812099D02*
X84496320Y-99812099D01*
X84496320Y-99812099D02*
X84972510Y-99812099D01*
X85496320Y-99812099D02*
X85496320Y-100050194D01*
X85258225Y-99954956D02*
X85496320Y-100050194D01*
X85496320Y-100050194D02*
X85734415Y-99954956D01*
X85353463Y-100240670D02*
X85496320Y-100050194D01*
X85496320Y-100050194D02*
X85639177Y-100240670D01*
X86258225Y-99812099D02*
X86258225Y-100050194D01*
X86020130Y-99954956D02*
X86258225Y-100050194D01*
X86258225Y-100050194D02*
X86496320Y-99954956D01*
X86115368Y-100240670D02*
X86258225Y-100050194D01*
X86258225Y-100050194D02*
X86401082Y-100240670D01*
X100537219Y-88571904D02*
X99537219Y-88571904D01*
X100537219Y-88000476D02*
X99965790Y-88429047D01*
X99537219Y-88000476D02*
X100108647Y-88571904D01*
D11*
X102246255Y-85171428D02*
X101446255Y-85171428D01*
X101446255Y-85171428D02*
X101446255Y-84980952D01*
X101446255Y-84980952D02*
X101484350Y-84866666D01*
X101484350Y-84866666D02*
X101560540Y-84790476D01*
X101560540Y-84790476D02*
X101636731Y-84752381D01*
X101636731Y-84752381D02*
X101789112Y-84714285D01*
X101789112Y-84714285D02*
X101903398Y-84714285D01*
X101903398Y-84714285D02*
X102055779Y-84752381D01*
X102055779Y-84752381D02*
X102131969Y-84790476D01*
X102131969Y-84790476D02*
X102208160Y-84866666D01*
X102208160Y-84866666D02*
X102246255Y-84980952D01*
X102246255Y-84980952D02*
X102246255Y-85171428D01*
X101446255Y-84447619D02*
X101446255Y-83914285D01*
X101446255Y-83914285D02*
X102246255Y-84447619D01*
X102246255Y-84447619D02*
X102246255Y-83914285D01*
X101446255Y-83266666D02*
X101446255Y-83419047D01*
X101446255Y-83419047D02*
X101484350Y-83495238D01*
X101484350Y-83495238D02*
X101522445Y-83533333D01*
X101522445Y-83533333D02*
X101636731Y-83609523D01*
X101636731Y-83609523D02*
X101789112Y-83647619D01*
X101789112Y-83647619D02*
X102093874Y-83647619D01*
X102093874Y-83647619D02*
X102170064Y-83609523D01*
X102170064Y-83609523D02*
X102208160Y-83571428D01*
X102208160Y-83571428D02*
X102246255Y-83495238D01*
X102246255Y-83495238D02*
X102246255Y-83342857D01*
X102246255Y-83342857D02*
X102208160Y-83266666D01*
X102208160Y-83266666D02*
X102170064Y-83228571D01*
X102170064Y-83228571D02*
X102093874Y-83190476D01*
X102093874Y-83190476D02*
X101903398Y-83190476D01*
X101903398Y-83190476D02*
X101827207Y-83228571D01*
X101827207Y-83228571D02*
X101789112Y-83266666D01*
X101789112Y-83266666D02*
X101751017Y-83342857D01*
X101751017Y-83342857D02*
X101751017Y-83495238D01*
X101751017Y-83495238D02*
X101789112Y-83571428D01*
X101789112Y-83571428D02*
X101827207Y-83609523D01*
X101827207Y-83609523D02*
X101903398Y-83647619D01*
D10*
X107238095Y-61561366D02*
X107285714Y-61513747D01*
X107285714Y-61513747D02*
X107380952Y-61466128D01*
X107380952Y-61466128D02*
X107571428Y-61561366D01*
X107571428Y-61561366D02*
X107666666Y-61513747D01*
X107666666Y-61513747D02*
X107714285Y-61466128D01*
X107166666Y-58922319D02*
X107166666Y-59636604D01*
X107166666Y-59636604D02*
X107119047Y-59779461D01*
X107119047Y-59779461D02*
X107023809Y-59874700D01*
X107023809Y-59874700D02*
X106880952Y-59922319D01*
X106880952Y-59922319D02*
X106785714Y-59922319D01*
X107547619Y-58922319D02*
X108214285Y-58922319D01*
X108214285Y-58922319D02*
X107785714Y-59922319D01*
X62904761Y-144454819D02*
X62333333Y-144454819D01*
X62619047Y-144454819D02*
X62619047Y-143454819D01*
X62619047Y-143454819D02*
X62523809Y-143597676D01*
X62523809Y-143597676D02*
X62428571Y-143692914D01*
X62428571Y-143692914D02*
X62333333Y-143740533D01*
X63523809Y-143454819D02*
X63619047Y-143454819D01*
X63619047Y-143454819D02*
X63714285Y-143502438D01*
X63714285Y-143502438D02*
X63761904Y-143550057D01*
X63761904Y-143550057D02*
X63809523Y-143645295D01*
X63809523Y-143645295D02*
X63857142Y-143835771D01*
X63857142Y-143835771D02*
X63857142Y-144073866D01*
X63857142Y-144073866D02*
X63809523Y-144264342D01*
X63809523Y-144264342D02*
X63761904Y-144359580D01*
X63761904Y-144359580D02*
X63714285Y-144407200D01*
X63714285Y-144407200D02*
X63619047Y-144454819D01*
X63619047Y-144454819D02*
X63523809Y-144454819D01*
X63523809Y-144454819D02*
X63428571Y-144407200D01*
X63428571Y-144407200D02*
X63380952Y-144359580D01*
X63380952Y-144359580D02*
X63333333Y-144264342D01*
X63333333Y-144264342D02*
X63285714Y-144073866D01*
X63285714Y-144073866D02*
X63285714Y-143835771D01*
X63285714Y-143835771D02*
X63333333Y-143645295D01*
X63333333Y-143645295D02*
X63380952Y-143550057D01*
X63380952Y-143550057D02*
X63428571Y-143502438D01*
X63428571Y-143502438D02*
X63523809Y-143454819D01*
X64285714Y-144454819D02*
X64285714Y-143454819D01*
X64380952Y-144073866D02*
X64666666Y-144454819D01*
X64666666Y-143788152D02*
X64285714Y-144169104D01*
X58954819Y-142095238D02*
X58478628Y-142428571D01*
X58954819Y-142666666D02*
X57954819Y-142666666D01*
X57954819Y-142666666D02*
X57954819Y-142285714D01*
X57954819Y-142285714D02*
X58002438Y-142190476D01*
X58002438Y-142190476D02*
X58050057Y-142142857D01*
X58050057Y-142142857D02*
X58145295Y-142095238D01*
X58145295Y-142095238D02*
X58288152Y-142095238D01*
X58288152Y-142095238D02*
X58383390Y-142142857D01*
X58383390Y-142142857D02*
X58431009Y-142190476D01*
X58431009Y-142190476D02*
X58478628Y-142285714D01*
X58478628Y-142285714D02*
X58478628Y-142666666D01*
X57954819Y-141809523D02*
X58954819Y-141476190D01*
X58954819Y-141476190D02*
X57954819Y-141142857D01*
X58288152Y-140380952D02*
X58954819Y-140380952D01*
X57907200Y-140619047D02*
X58621485Y-140857142D01*
X58621485Y-140857142D02*
X58621485Y-140238095D01*
X135404761Y-127324819D02*
X134833333Y-127324819D01*
X135119047Y-127324819D02*
X135119047Y-126324819D01*
X135119047Y-126324819D02*
X135023809Y-126467676D01*
X135023809Y-126467676D02*
X134928571Y-126562914D01*
X134928571Y-126562914D02*
X134833333Y-126610533D01*
X136023809Y-126324819D02*
X136119047Y-126324819D01*
X136119047Y-126324819D02*
X136214285Y-126372438D01*
X136214285Y-126372438D02*
X136261904Y-126420057D01*
X136261904Y-126420057D02*
X136309523Y-126515295D01*
X136309523Y-126515295D02*
X136357142Y-126705771D01*
X136357142Y-126705771D02*
X136357142Y-126943866D01*
X136357142Y-126943866D02*
X136309523Y-127134342D01*
X136309523Y-127134342D02*
X136261904Y-127229580D01*
X136261904Y-127229580D02*
X136214285Y-127277200D01*
X136214285Y-127277200D02*
X136119047Y-127324819D01*
X136119047Y-127324819D02*
X136023809Y-127324819D01*
X136023809Y-127324819D02*
X135928571Y-127277200D01*
X135928571Y-127277200D02*
X135880952Y-127229580D01*
X135880952Y-127229580D02*
X135833333Y-127134342D01*
X135833333Y-127134342D02*
X135785714Y-126943866D01*
X135785714Y-126943866D02*
X135785714Y-126705771D01*
X135785714Y-126705771D02*
X135833333Y-126515295D01*
X135833333Y-126515295D02*
X135880952Y-126420057D01*
X135880952Y-126420057D02*
X135928571Y-126372438D01*
X135928571Y-126372438D02*
X136023809Y-126324819D01*
X136785714Y-127324819D02*
X136785714Y-126324819D01*
X136880952Y-126943866D02*
X137166666Y-127324819D01*
X137166666Y-126658152D02*
X136785714Y-127039104D01*
X135357142Y-124954819D02*
X135023809Y-124478628D01*
X134785714Y-124954819D02*
X134785714Y-123954819D01*
X134785714Y-123954819D02*
X135166666Y-123954819D01*
X135166666Y-123954819D02*
X135261904Y-124002438D01*
X135261904Y-124002438D02*
X135309523Y-124050057D01*
X135309523Y-124050057D02*
X135357142Y-124145295D01*
X135357142Y-124145295D02*
X135357142Y-124288152D01*
X135357142Y-124288152D02*
X135309523Y-124383390D01*
X135309523Y-124383390D02*
X135261904Y-124431009D01*
X135261904Y-124431009D02*
X135166666Y-124478628D01*
X135166666Y-124478628D02*
X134785714Y-124478628D01*
X136309523Y-124954819D02*
X135738095Y-124954819D01*
X136023809Y-124954819D02*
X136023809Y-123954819D01*
X136023809Y-123954819D02*
X135928571Y-124097676D01*
X135928571Y-124097676D02*
X135833333Y-124192914D01*
X135833333Y-124192914D02*
X135738095Y-124240533D01*
X136880952Y-124383390D02*
X136785714Y-124335771D01*
X136785714Y-124335771D02*
X136738095Y-124288152D01*
X136738095Y-124288152D02*
X136690476Y-124192914D01*
X136690476Y-124192914D02*
X136690476Y-124145295D01*
X136690476Y-124145295D02*
X136738095Y-124050057D01*
X136738095Y-124050057D02*
X136785714Y-124002438D01*
X136785714Y-124002438D02*
X136880952Y-123954819D01*
X136880952Y-123954819D02*
X137071428Y-123954819D01*
X137071428Y-123954819D02*
X137166666Y-124002438D01*
X137166666Y-124002438D02*
X137214285Y-124050057D01*
X137214285Y-124050057D02*
X137261904Y-124145295D01*
X137261904Y-124145295D02*
X137261904Y-124192914D01*
X137261904Y-124192914D02*
X137214285Y-124288152D01*
X137214285Y-124288152D02*
X137166666Y-124335771D01*
X137166666Y-124335771D02*
X137071428Y-124383390D01*
X137071428Y-124383390D02*
X136880952Y-124383390D01*
X136880952Y-124383390D02*
X136785714Y-124431009D01*
X136785714Y-124431009D02*
X136738095Y-124478628D01*
X136738095Y-124478628D02*
X136690476Y-124573866D01*
X136690476Y-124573866D02*
X136690476Y-124764342D01*
X136690476Y-124764342D02*
X136738095Y-124859580D01*
X136738095Y-124859580D02*
X136785714Y-124907200D01*
X136785714Y-124907200D02*
X136880952Y-124954819D01*
X136880952Y-124954819D02*
X137071428Y-124954819D01*
X137071428Y-124954819D02*
X137166666Y-124907200D01*
X137166666Y-124907200D02*
X137214285Y-124859580D01*
X137214285Y-124859580D02*
X137261904Y-124764342D01*
X137261904Y-124764342D02*
X137261904Y-124573866D01*
X137261904Y-124573866D02*
X137214285Y-124478628D01*
X137214285Y-124478628D02*
X137166666Y-124431009D01*
X137166666Y-124431009D02*
X137071428Y-124383390D01*
X150561366Y-72761904D02*
X150513747Y-72714285D01*
X150513747Y-72714285D02*
X150466128Y-72619047D01*
X150466128Y-72619047D02*
X150561366Y-72428571D01*
X150561366Y-72428571D02*
X150513747Y-72333333D01*
X150513747Y-72333333D02*
X150466128Y-72285714D01*
X147922319Y-72833333D02*
X148636604Y-72833333D01*
X148636604Y-72833333D02*
X148779461Y-72880952D01*
X148779461Y-72880952D02*
X148874700Y-72976190D01*
X148874700Y-72976190D02*
X148922319Y-73119047D01*
X148922319Y-73119047D02*
X148922319Y-73214285D01*
X148922319Y-72309523D02*
X148922319Y-72119047D01*
X148922319Y-72119047D02*
X148874700Y-72023809D01*
X148874700Y-72023809D02*
X148827080Y-71976190D01*
X148827080Y-71976190D02*
X148684223Y-71880952D01*
X148684223Y-71880952D02*
X148493747Y-71833333D01*
X148493747Y-71833333D02*
X148112795Y-71833333D01*
X148112795Y-71833333D02*
X148017557Y-71880952D01*
X148017557Y-71880952D02*
X147969938Y-71928571D01*
X147969938Y-71928571D02*
X147922319Y-72023809D01*
X147922319Y-72023809D02*
X147922319Y-72214285D01*
X147922319Y-72214285D02*
X147969938Y-72309523D01*
X147969938Y-72309523D02*
X148017557Y-72357142D01*
X148017557Y-72357142D02*
X148112795Y-72404761D01*
X148112795Y-72404761D02*
X148350890Y-72404761D01*
X148350890Y-72404761D02*
X148446128Y-72357142D01*
X148446128Y-72357142D02*
X148493747Y-72309523D01*
X148493747Y-72309523D02*
X148541366Y-72214285D01*
X148541366Y-72214285D02*
X148541366Y-72023809D01*
X148541366Y-72023809D02*
X148493747Y-71928571D01*
X148493747Y-71928571D02*
X148446128Y-71880952D01*
X148446128Y-71880952D02*
X148350890Y-71833333D01*
X118738095Y-61561366D02*
X118785714Y-61513747D01*
X118785714Y-61513747D02*
X118880952Y-61466128D01*
X118880952Y-61466128D02*
X119071428Y-61561366D01*
X119071428Y-61561366D02*
X119166666Y-61513747D01*
X119166666Y-61513747D02*
X119214285Y-61466128D01*
X118666666Y-58922319D02*
X118666666Y-59636604D01*
X118666666Y-59636604D02*
X118619047Y-59779461D01*
X118619047Y-59779461D02*
X118523809Y-59874700D01*
X118523809Y-59874700D02*
X118380952Y-59922319D01*
X118380952Y-59922319D02*
X118285714Y-59922319D01*
X119285714Y-59350890D02*
X119190476Y-59303271D01*
X119190476Y-59303271D02*
X119142857Y-59255652D01*
X119142857Y-59255652D02*
X119095238Y-59160414D01*
X119095238Y-59160414D02*
X119095238Y-59112795D01*
X119095238Y-59112795D02*
X119142857Y-59017557D01*
X119142857Y-59017557D02*
X119190476Y-58969938D01*
X119190476Y-58969938D02*
X119285714Y-58922319D01*
X119285714Y-58922319D02*
X119476190Y-58922319D01*
X119476190Y-58922319D02*
X119571428Y-58969938D01*
X119571428Y-58969938D02*
X119619047Y-59017557D01*
X119619047Y-59017557D02*
X119666666Y-59112795D01*
X119666666Y-59112795D02*
X119666666Y-59160414D01*
X119666666Y-59160414D02*
X119619047Y-59255652D01*
X119619047Y-59255652D02*
X119571428Y-59303271D01*
X119571428Y-59303271D02*
X119476190Y-59350890D01*
X119476190Y-59350890D02*
X119285714Y-59350890D01*
X119285714Y-59350890D02*
X119190476Y-59398509D01*
X119190476Y-59398509D02*
X119142857Y-59446128D01*
X119142857Y-59446128D02*
X119095238Y-59541366D01*
X119095238Y-59541366D02*
X119095238Y-59731842D01*
X119095238Y-59731842D02*
X119142857Y-59827080D01*
X119142857Y-59827080D02*
X119190476Y-59874700D01*
X119190476Y-59874700D02*
X119285714Y-59922319D01*
X119285714Y-59922319D02*
X119476190Y-59922319D01*
X119476190Y-59922319D02*
X119571428Y-59874700D01*
X119571428Y-59874700D02*
X119619047Y-59827080D01*
X119619047Y-59827080D02*
X119666666Y-59731842D01*
X119666666Y-59731842D02*
X119666666Y-59541366D01*
X119666666Y-59541366D02*
X119619047Y-59446128D01*
X119619047Y-59446128D02*
X119571428Y-59398509D01*
X119571428Y-59398509D02*
X119476190Y-59350890D01*
X95238095Y-61561366D02*
X95285714Y-61513747D01*
X95285714Y-61513747D02*
X95380952Y-61466128D01*
X95380952Y-61466128D02*
X95571428Y-61561366D01*
X95571428Y-61561366D02*
X95666666Y-61513747D01*
X95666666Y-61513747D02*
X95714285Y-61466128D01*
X95166666Y-58922319D02*
X95166666Y-59636604D01*
X95166666Y-59636604D02*
X95119047Y-59779461D01*
X95119047Y-59779461D02*
X95023809Y-59874700D01*
X95023809Y-59874700D02*
X94880952Y-59922319D01*
X94880952Y-59922319D02*
X94785714Y-59922319D01*
X96071428Y-58922319D02*
X95880952Y-58922319D01*
X95880952Y-58922319D02*
X95785714Y-58969938D01*
X95785714Y-58969938D02*
X95738095Y-59017557D01*
X95738095Y-59017557D02*
X95642857Y-59160414D01*
X95642857Y-59160414D02*
X95595238Y-59350890D01*
X95595238Y-59350890D02*
X95595238Y-59731842D01*
X95595238Y-59731842D02*
X95642857Y-59827080D01*
X95642857Y-59827080D02*
X95690476Y-59874700D01*
X95690476Y-59874700D02*
X95785714Y-59922319D01*
X95785714Y-59922319D02*
X95976190Y-59922319D01*
X95976190Y-59922319D02*
X96071428Y-59874700D01*
X96071428Y-59874700D02*
X96119047Y-59827080D01*
X96119047Y-59827080D02*
X96166666Y-59731842D01*
X96166666Y-59731842D02*
X96166666Y-59493747D01*
X96166666Y-59493747D02*
X96119047Y-59398509D01*
X96119047Y-59398509D02*
X96071428Y-59350890D01*
X96071428Y-59350890D02*
X95976190Y-59303271D01*
X95976190Y-59303271D02*
X95785714Y-59303271D01*
X95785714Y-59303271D02*
X95690476Y-59350890D01*
X95690476Y-59350890D02*
X95642857Y-59398509D01*
X95642857Y-59398509D02*
X95595238Y-59493747D01*
D12*
X51733333Y-148432208D02*
X51733333Y-147482208D01*
X51733333Y-147482208D02*
X52050000Y-148160779D01*
X52050000Y-148160779D02*
X52366666Y-147482208D01*
X52366666Y-147482208D02*
X52366666Y-148432208D01*
X52819047Y-148432208D02*
X52819047Y-147482208D01*
X52819047Y-147934589D02*
X53361904Y-147934589D01*
X53361904Y-148432208D02*
X53361904Y-147482208D01*
X53723809Y-147482208D02*
X54311904Y-147482208D01*
X54311904Y-147482208D02*
X53995237Y-147844112D01*
X53995237Y-147844112D02*
X54130952Y-147844112D01*
X54130952Y-147844112D02*
X54221428Y-147889350D01*
X54221428Y-147889350D02*
X54266666Y-147934589D01*
X54266666Y-147934589D02*
X54311904Y-148025065D01*
X54311904Y-148025065D02*
X54311904Y-148251255D01*
X54311904Y-148251255D02*
X54266666Y-148341731D01*
X54266666Y-148341731D02*
X54221428Y-148386970D01*
X54221428Y-148386970D02*
X54130952Y-148432208D01*
X54130952Y-148432208D02*
X53859523Y-148432208D01*
X53859523Y-148432208D02*
X53769047Y-148386970D01*
X53769047Y-148386970D02*
X53723809Y-148341731D01*
D10*
X113584819Y-125405238D02*
X113584819Y-125976666D01*
X113584819Y-125690952D02*
X112584819Y-125690952D01*
X112584819Y-125690952D02*
X112727676Y-125786190D01*
X112727676Y-125786190D02*
X112822914Y-125881428D01*
X112822914Y-125881428D02*
X112870533Y-125976666D01*
X112584819Y-124786190D02*
X112584819Y-124690952D01*
X112584819Y-124690952D02*
X112632438Y-124595714D01*
X112632438Y-124595714D02*
X112680057Y-124548095D01*
X112680057Y-124548095D02*
X112775295Y-124500476D01*
X112775295Y-124500476D02*
X112965771Y-124452857D01*
X112965771Y-124452857D02*
X113203866Y-124452857D01*
X113203866Y-124452857D02*
X113394342Y-124500476D01*
X113394342Y-124500476D02*
X113489580Y-124548095D01*
X113489580Y-124548095D02*
X113537200Y-124595714D01*
X113537200Y-124595714D02*
X113584819Y-124690952D01*
X113584819Y-124690952D02*
X113584819Y-124786190D01*
X113584819Y-124786190D02*
X113537200Y-124881428D01*
X113537200Y-124881428D02*
X113489580Y-124929047D01*
X113489580Y-124929047D02*
X113394342Y-124976666D01*
X113394342Y-124976666D02*
X113203866Y-125024285D01*
X113203866Y-125024285D02*
X112965771Y-125024285D01*
X112965771Y-125024285D02*
X112775295Y-124976666D01*
X112775295Y-124976666D02*
X112680057Y-124929047D01*
X112680057Y-124929047D02*
X112632438Y-124881428D01*
X112632438Y-124881428D02*
X112584819Y-124786190D01*
X113584819Y-124024285D02*
X112584819Y-124024285D01*
X113203866Y-123929047D02*
X113584819Y-123643333D01*
X112918152Y-123643333D02*
X113299104Y-124024285D01*
X115954819Y-125452857D02*
X115478628Y-125786190D01*
X115954819Y-126024285D02*
X114954819Y-126024285D01*
X114954819Y-126024285D02*
X114954819Y-125643333D01*
X114954819Y-125643333D02*
X115002438Y-125548095D01*
X115002438Y-125548095D02*
X115050057Y-125500476D01*
X115050057Y-125500476D02*
X115145295Y-125452857D01*
X115145295Y-125452857D02*
X115288152Y-125452857D01*
X115288152Y-125452857D02*
X115383390Y-125500476D01*
X115383390Y-125500476D02*
X115431009Y-125548095D01*
X115431009Y-125548095D02*
X115478628Y-125643333D01*
X115478628Y-125643333D02*
X115478628Y-126024285D01*
X115954819Y-124500476D02*
X115954819Y-125071904D01*
X115954819Y-124786190D02*
X114954819Y-124786190D01*
X114954819Y-124786190D02*
X115097676Y-124881428D01*
X115097676Y-124881428D02*
X115192914Y-124976666D01*
X115192914Y-124976666D02*
X115240533Y-125071904D01*
X114954819Y-124167142D02*
X114954819Y-123548095D01*
X114954819Y-123548095D02*
X115335771Y-123881428D01*
X115335771Y-123881428D02*
X115335771Y-123738571D01*
X115335771Y-123738571D02*
X115383390Y-123643333D01*
X115383390Y-123643333D02*
X115431009Y-123595714D01*
X115431009Y-123595714D02*
X115526247Y-123548095D01*
X115526247Y-123548095D02*
X115764342Y-123548095D01*
X115764342Y-123548095D02*
X115859580Y-123595714D01*
X115859580Y-123595714D02*
X115907200Y-123643333D01*
X115907200Y-123643333D02*
X115954819Y-123738571D01*
X115954819Y-123738571D02*
X115954819Y-124024285D01*
X115954819Y-124024285D02*
X115907200Y-124119523D01*
X115907200Y-124119523D02*
X115859580Y-124167142D01*
X142207200Y-120209524D02*
X142254819Y-120066667D01*
X142254819Y-120066667D02*
X142254819Y-119828572D01*
X142254819Y-119828572D02*
X142207200Y-119733334D01*
X142207200Y-119733334D02*
X142159580Y-119685715D01*
X142159580Y-119685715D02*
X142064342Y-119638096D01*
X142064342Y-119638096D02*
X141969104Y-119638096D01*
X141969104Y-119638096D02*
X141873866Y-119685715D01*
X141873866Y-119685715D02*
X141826247Y-119733334D01*
X141826247Y-119733334D02*
X141778628Y-119828572D01*
X141778628Y-119828572D02*
X141731009Y-120019048D01*
X141731009Y-120019048D02*
X141683390Y-120114286D01*
X141683390Y-120114286D02*
X141635771Y-120161905D01*
X141635771Y-120161905D02*
X141540533Y-120209524D01*
X141540533Y-120209524D02*
X141445295Y-120209524D01*
X141445295Y-120209524D02*
X141350057Y-120161905D01*
X141350057Y-120161905D02*
X141302438Y-120114286D01*
X141302438Y-120114286D02*
X141254819Y-120019048D01*
X141254819Y-120019048D02*
X141254819Y-119780953D01*
X141254819Y-119780953D02*
X141302438Y-119638096D01*
X141588152Y-119352381D02*
X141588152Y-118971429D01*
X141254819Y-119209524D02*
X142111961Y-119209524D01*
X142111961Y-119209524D02*
X142207200Y-119161905D01*
X142207200Y-119161905D02*
X142254819Y-119066667D01*
X142254819Y-119066667D02*
X142254819Y-118971429D01*
X142254819Y-118209524D02*
X141731009Y-118209524D01*
X141731009Y-118209524D02*
X141635771Y-118257143D01*
X141635771Y-118257143D02*
X141588152Y-118352381D01*
X141588152Y-118352381D02*
X141588152Y-118542857D01*
X141588152Y-118542857D02*
X141635771Y-118638095D01*
X142207200Y-118209524D02*
X142254819Y-118304762D01*
X142254819Y-118304762D02*
X142254819Y-118542857D01*
X142254819Y-118542857D02*
X142207200Y-118638095D01*
X142207200Y-118638095D02*
X142111961Y-118685714D01*
X142111961Y-118685714D02*
X142016723Y-118685714D01*
X142016723Y-118685714D02*
X141921485Y-118638095D01*
X141921485Y-118638095D02*
X141873866Y-118542857D01*
X141873866Y-118542857D02*
X141873866Y-118304762D01*
X141873866Y-118304762D02*
X141826247Y-118209524D01*
X142254819Y-117733333D02*
X141588152Y-117733333D01*
X141778628Y-117733333D02*
X141683390Y-117685714D01*
X141683390Y-117685714D02*
X141635771Y-117638095D01*
X141635771Y-117638095D02*
X141588152Y-117542857D01*
X141588152Y-117542857D02*
X141588152Y-117447619D01*
X141588152Y-117257142D02*
X141588152Y-116876190D01*
X141254819Y-117114285D02*
X142111961Y-117114285D01*
X142111961Y-117114285D02*
X142207200Y-117066666D01*
X142207200Y-117066666D02*
X142254819Y-116971428D01*
X142254819Y-116971428D02*
X142254819Y-116876190D01*
X141207200Y-115828571D02*
X142492914Y-116685713D01*
X142207200Y-115542856D02*
X142254819Y-115399999D01*
X142254819Y-115399999D02*
X142254819Y-115161904D01*
X142254819Y-115161904D02*
X142207200Y-115066666D01*
X142207200Y-115066666D02*
X142159580Y-115019047D01*
X142159580Y-115019047D02*
X142064342Y-114971428D01*
X142064342Y-114971428D02*
X141969104Y-114971428D01*
X141969104Y-114971428D02*
X141873866Y-115019047D01*
X141873866Y-115019047D02*
X141826247Y-115066666D01*
X141826247Y-115066666D02*
X141778628Y-115161904D01*
X141778628Y-115161904D02*
X141731009Y-115352380D01*
X141731009Y-115352380D02*
X141683390Y-115447618D01*
X141683390Y-115447618D02*
X141635771Y-115495237D01*
X141635771Y-115495237D02*
X141540533Y-115542856D01*
X141540533Y-115542856D02*
X141445295Y-115542856D01*
X141445295Y-115542856D02*
X141350057Y-115495237D01*
X141350057Y-115495237D02*
X141302438Y-115447618D01*
X141302438Y-115447618D02*
X141254819Y-115352380D01*
X141254819Y-115352380D02*
X141254819Y-115114285D01*
X141254819Y-115114285D02*
X141302438Y-114971428D01*
X141588152Y-114685713D02*
X141588152Y-114304761D01*
X141254819Y-114542856D02*
X142111961Y-114542856D01*
X142111961Y-114542856D02*
X142207200Y-114495237D01*
X142207200Y-114495237D02*
X142254819Y-114399999D01*
X142254819Y-114399999D02*
X142254819Y-114304761D01*
X142254819Y-113828570D02*
X142207200Y-113923808D01*
X142207200Y-113923808D02*
X142159580Y-113971427D01*
X142159580Y-113971427D02*
X142064342Y-114019046D01*
X142064342Y-114019046D02*
X141778628Y-114019046D01*
X141778628Y-114019046D02*
X141683390Y-113971427D01*
X141683390Y-113971427D02*
X141635771Y-113923808D01*
X141635771Y-113923808D02*
X141588152Y-113828570D01*
X141588152Y-113828570D02*
X141588152Y-113685713D01*
X141588152Y-113685713D02*
X141635771Y-113590475D01*
X141635771Y-113590475D02*
X141683390Y-113542856D01*
X141683390Y-113542856D02*
X141778628Y-113495237D01*
X141778628Y-113495237D02*
X142064342Y-113495237D01*
X142064342Y-113495237D02*
X142159580Y-113542856D01*
X142159580Y-113542856D02*
X142207200Y-113590475D01*
X142207200Y-113590475D02*
X142254819Y-113685713D01*
X142254819Y-113685713D02*
X142254819Y-113828570D01*
X141588152Y-113066665D02*
X142588152Y-113066665D01*
X141635771Y-113066665D02*
X141588152Y-112971427D01*
X141588152Y-112971427D02*
X141588152Y-112780951D01*
X141588152Y-112780951D02*
X141635771Y-112685713D01*
X141635771Y-112685713D02*
X141683390Y-112638094D01*
X141683390Y-112638094D02*
X141778628Y-112590475D01*
X141778628Y-112590475D02*
X142064342Y-112590475D01*
X142064342Y-112590475D02*
X142159580Y-112638094D01*
X142159580Y-112638094D02*
X142207200Y-112685713D01*
X142207200Y-112685713D02*
X142254819Y-112780951D01*
X142254819Y-112780951D02*
X142254819Y-112971427D01*
X142254819Y-112971427D02*
X142207200Y-113066665D01*
X145907200Y-116333332D02*
X145954819Y-116190475D01*
X145954819Y-116190475D02*
X145954819Y-115952380D01*
X145954819Y-115952380D02*
X145907200Y-115857142D01*
X145907200Y-115857142D02*
X145859580Y-115809523D01*
X145859580Y-115809523D02*
X145764342Y-115761904D01*
X145764342Y-115761904D02*
X145669104Y-115761904D01*
X145669104Y-115761904D02*
X145573866Y-115809523D01*
X145573866Y-115809523D02*
X145526247Y-115857142D01*
X145526247Y-115857142D02*
X145478628Y-115952380D01*
X145478628Y-115952380D02*
X145431009Y-116142856D01*
X145431009Y-116142856D02*
X145383390Y-116238094D01*
X145383390Y-116238094D02*
X145335771Y-116285713D01*
X145335771Y-116285713D02*
X145240533Y-116333332D01*
X145240533Y-116333332D02*
X145145295Y-116333332D01*
X145145295Y-116333332D02*
X145050057Y-116285713D01*
X145050057Y-116285713D02*
X145002438Y-116238094D01*
X145002438Y-116238094D02*
X144954819Y-116142856D01*
X144954819Y-116142856D02*
X144954819Y-115904761D01*
X144954819Y-115904761D02*
X145002438Y-115761904D01*
X144954819Y-115428570D02*
X145954819Y-115190475D01*
X145954819Y-115190475D02*
X145240533Y-114999999D01*
X145240533Y-114999999D02*
X145954819Y-114809523D01*
X145954819Y-114809523D02*
X144954819Y-114571428D01*
X145050057Y-114238094D02*
X145002438Y-114190475D01*
X145002438Y-114190475D02*
X144954819Y-114095237D01*
X144954819Y-114095237D02*
X144954819Y-113857142D01*
X144954819Y-113857142D02*
X145002438Y-113761904D01*
X145002438Y-113761904D02*
X145050057Y-113714285D01*
X145050057Y-113714285D02*
X145145295Y-113666666D01*
X145145295Y-113666666D02*
X145240533Y-113666666D01*
X145240533Y-113666666D02*
X145383390Y-113714285D01*
X145383390Y-113714285D02*
X145954819Y-114285713D01*
X145954819Y-114285713D02*
X145954819Y-113666666D01*
X79050057Y-128666666D02*
X79002438Y-128619047D01*
X79002438Y-128619047D02*
X78954819Y-128523809D01*
X78954819Y-128523809D02*
X78954819Y-128285714D01*
X78954819Y-128285714D02*
X79002438Y-128190476D01*
X79002438Y-128190476D02*
X79050057Y-128142857D01*
X79050057Y-128142857D02*
X79145295Y-128095238D01*
X79145295Y-128095238D02*
X79240533Y-128095238D01*
X79240533Y-128095238D02*
X79383390Y-128142857D01*
X79383390Y-128142857D02*
X79954819Y-128714285D01*
X79954819Y-128714285D02*
X79954819Y-128095238D01*
X78954819Y-127476190D02*
X78954819Y-127380952D01*
X78954819Y-127380952D02*
X79002438Y-127285714D01*
X79002438Y-127285714D02*
X79050057Y-127238095D01*
X79050057Y-127238095D02*
X79145295Y-127190476D01*
X79145295Y-127190476D02*
X79335771Y-127142857D01*
X79335771Y-127142857D02*
X79573866Y-127142857D01*
X79573866Y-127142857D02*
X79764342Y-127190476D01*
X79764342Y-127190476D02*
X79859580Y-127238095D01*
X79859580Y-127238095D02*
X79907200Y-127285714D01*
X79907200Y-127285714D02*
X79954819Y-127380952D01*
X79954819Y-127380952D02*
X79954819Y-127476190D01*
X79954819Y-127476190D02*
X79907200Y-127571428D01*
X79907200Y-127571428D02*
X79859580Y-127619047D01*
X79859580Y-127619047D02*
X79764342Y-127666666D01*
X79764342Y-127666666D02*
X79573866Y-127714285D01*
X79573866Y-127714285D02*
X79335771Y-127714285D01*
X79335771Y-127714285D02*
X79145295Y-127666666D01*
X79145295Y-127666666D02*
X79050057Y-127619047D01*
X79050057Y-127619047D02*
X79002438Y-127571428D01*
X79002438Y-127571428D02*
X78954819Y-127476190D01*
X79954819Y-126714285D02*
X78954819Y-126714285D01*
X79573866Y-126619047D02*
X79954819Y-126333333D01*
X79288152Y-126333333D02*
X79669104Y-126714285D01*
X77954819Y-128142857D02*
X77478628Y-128476190D01*
X77954819Y-128714285D02*
X76954819Y-128714285D01*
X76954819Y-128714285D02*
X76954819Y-128333333D01*
X76954819Y-128333333D02*
X77002438Y-128238095D01*
X77002438Y-128238095D02*
X77050057Y-128190476D01*
X77050057Y-128190476D02*
X77145295Y-128142857D01*
X77145295Y-128142857D02*
X77288152Y-128142857D01*
X77288152Y-128142857D02*
X77383390Y-128190476D01*
X77383390Y-128190476D02*
X77431009Y-128238095D01*
X77431009Y-128238095D02*
X77478628Y-128333333D01*
X77478628Y-128333333D02*
X77478628Y-128714285D01*
X77050057Y-127761904D02*
X77002438Y-127714285D01*
X77002438Y-127714285D02*
X76954819Y-127619047D01*
X76954819Y-127619047D02*
X76954819Y-127380952D01*
X76954819Y-127380952D02*
X77002438Y-127285714D01*
X77002438Y-127285714D02*
X77050057Y-127238095D01*
X77050057Y-127238095D02*
X77145295Y-127190476D01*
X77145295Y-127190476D02*
X77240533Y-127190476D01*
X77240533Y-127190476D02*
X77383390Y-127238095D01*
X77383390Y-127238095D02*
X77954819Y-127809523D01*
X77954819Y-127809523D02*
X77954819Y-127190476D01*
X77050057Y-126809523D02*
X77002438Y-126761904D01*
X77002438Y-126761904D02*
X76954819Y-126666666D01*
X76954819Y-126666666D02*
X76954819Y-126428571D01*
X76954819Y-126428571D02*
X77002438Y-126333333D01*
X77002438Y-126333333D02*
X77050057Y-126285714D01*
X77050057Y-126285714D02*
X77145295Y-126238095D01*
X77145295Y-126238095D02*
X77240533Y-126238095D01*
X77240533Y-126238095D02*
X77383390Y-126285714D01*
X77383390Y-126285714D02*
X77954819Y-126857142D01*
X77954819Y-126857142D02*
X77954819Y-126238095D01*
X127110057Y-107190475D02*
X127062438Y-107142856D01*
X127062438Y-107142856D02*
X127014819Y-107047618D01*
X127014819Y-107047618D02*
X127014819Y-106809523D01*
X127014819Y-106809523D02*
X127062438Y-106714285D01*
X127062438Y-106714285D02*
X127110057Y-106666666D01*
X127110057Y-106666666D02*
X127205295Y-106619047D01*
X127205295Y-106619047D02*
X127300533Y-106619047D01*
X127300533Y-106619047D02*
X127443390Y-106666666D01*
X127443390Y-106666666D02*
X128014819Y-107238094D01*
X128014819Y-107238094D02*
X128014819Y-106619047D01*
X128014819Y-106190475D02*
X127014819Y-106190475D01*
X127633866Y-106095237D02*
X128014819Y-105809523D01*
X127348152Y-105809523D02*
X127729104Y-106190475D01*
D11*
X123354602Y-105214285D02*
X122983174Y-105474285D01*
X123354602Y-105659999D02*
X122574602Y-105659999D01*
X122574602Y-105659999D02*
X122574602Y-105362856D01*
X122574602Y-105362856D02*
X122611745Y-105288571D01*
X122611745Y-105288571D02*
X122648888Y-105251428D01*
X122648888Y-105251428D02*
X122723174Y-105214285D01*
X122723174Y-105214285D02*
X122834602Y-105214285D01*
X122834602Y-105214285D02*
X122908888Y-105251428D01*
X122908888Y-105251428D02*
X122946031Y-105288571D01*
X122946031Y-105288571D02*
X122983174Y-105362856D01*
X122983174Y-105362856D02*
X122983174Y-105659999D01*
X122574602Y-104991428D02*
X123354602Y-104731428D01*
X123354602Y-104731428D02*
X122574602Y-104471428D01*
X122648888Y-104248571D02*
X122611745Y-104211428D01*
X122611745Y-104211428D02*
X122574602Y-104137143D01*
X122574602Y-104137143D02*
X122574602Y-103951428D01*
X122574602Y-103951428D02*
X122611745Y-103877143D01*
X122611745Y-103877143D02*
X122648888Y-103840000D01*
X122648888Y-103840000D02*
X122723174Y-103802857D01*
X122723174Y-103802857D02*
X122797460Y-103802857D01*
X122797460Y-103802857D02*
X122908888Y-103840000D01*
X122908888Y-103840000D02*
X123354602Y-104285714D01*
X123354602Y-104285714D02*
X123354602Y-103802857D01*
D10*
X124454819Y-123023809D02*
X124454819Y-122452381D01*
X125454819Y-122738095D02*
X124454819Y-122738095D01*
X125454819Y-121642857D02*
X125454819Y-122119047D01*
X125454819Y-122119047D02*
X124454819Y-122119047D01*
X124454819Y-121452380D02*
X125454819Y-121119047D01*
X125454819Y-121119047D02*
X124454819Y-120785714D01*
X124550057Y-120499999D02*
X124502438Y-120452380D01*
X124502438Y-120452380D02*
X124454819Y-120357142D01*
X124454819Y-120357142D02*
X124454819Y-120119047D01*
X124454819Y-120119047D02*
X124502438Y-120023809D01*
X124502438Y-120023809D02*
X124550057Y-119976190D01*
X124550057Y-119976190D02*
X124645295Y-119928571D01*
X124645295Y-119928571D02*
X124740533Y-119928571D01*
X124740533Y-119928571D02*
X124883390Y-119976190D01*
X124883390Y-119976190D02*
X125454819Y-120547618D01*
X125454819Y-120547618D02*
X125454819Y-119928571D01*
X124454819Y-119595237D02*
X124454819Y-118976190D01*
X124454819Y-118976190D02*
X124835771Y-119309523D01*
X124835771Y-119309523D02*
X124835771Y-119166666D01*
X124835771Y-119166666D02*
X124883390Y-119071428D01*
X124883390Y-119071428D02*
X124931009Y-119023809D01*
X124931009Y-119023809D02*
X125026247Y-118976190D01*
X125026247Y-118976190D02*
X125264342Y-118976190D01*
X125264342Y-118976190D02*
X125359580Y-119023809D01*
X125359580Y-119023809D02*
X125407200Y-119071428D01*
X125407200Y-119071428D02*
X125454819Y-119166666D01*
X125454819Y-119166666D02*
X125454819Y-119452380D01*
X125454819Y-119452380D02*
X125407200Y-119547618D01*
X125407200Y-119547618D02*
X125359580Y-119595237D01*
X124454819Y-118642856D02*
X124454819Y-117976190D01*
X124454819Y-117976190D02*
X125454819Y-118404761D01*
X124550057Y-117642856D02*
X124502438Y-117595237D01*
X124502438Y-117595237D02*
X124454819Y-117499999D01*
X124454819Y-117499999D02*
X124454819Y-117261904D01*
X124454819Y-117261904D02*
X124502438Y-117166666D01*
X124502438Y-117166666D02*
X124550057Y-117119047D01*
X124550057Y-117119047D02*
X124645295Y-117071428D01*
X124645295Y-117071428D02*
X124740533Y-117071428D01*
X124740533Y-117071428D02*
X124883390Y-117119047D01*
X124883390Y-117119047D02*
X125454819Y-117690475D01*
X125454819Y-117690475D02*
X125454819Y-117071428D01*
X121454819Y-120261904D02*
X122264342Y-120261904D01*
X122264342Y-120261904D02*
X122359580Y-120214285D01*
X122359580Y-120214285D02*
X122407200Y-120166666D01*
X122407200Y-120166666D02*
X122454819Y-120071428D01*
X122454819Y-120071428D02*
X122454819Y-119880952D01*
X122454819Y-119880952D02*
X122407200Y-119785714D01*
X122407200Y-119785714D02*
X122359580Y-119738095D01*
X122359580Y-119738095D02*
X122264342Y-119690476D01*
X122264342Y-119690476D02*
X121454819Y-119690476D01*
X121788152Y-118785714D02*
X122454819Y-118785714D01*
X121407200Y-119023809D02*
X122121485Y-119261904D01*
X122121485Y-119261904D02*
X122121485Y-118642857D01*
X65713619Y-88571904D02*
X64713619Y-88571904D01*
X65713619Y-88000476D02*
X65142190Y-88429047D01*
X64713619Y-88000476D02*
X65285047Y-88571904D01*
D11*
X67422655Y-85171428D02*
X66622655Y-85171428D01*
X66622655Y-85171428D02*
X66622655Y-84980952D01*
X66622655Y-84980952D02*
X66660750Y-84866666D01*
X66660750Y-84866666D02*
X66736940Y-84790476D01*
X66736940Y-84790476D02*
X66813131Y-84752381D01*
X66813131Y-84752381D02*
X66965512Y-84714285D01*
X66965512Y-84714285D02*
X67079798Y-84714285D01*
X67079798Y-84714285D02*
X67232179Y-84752381D01*
X67232179Y-84752381D02*
X67308369Y-84790476D01*
X67308369Y-84790476D02*
X67384560Y-84866666D01*
X67384560Y-84866666D02*
X67422655Y-84980952D01*
X67422655Y-84980952D02*
X67422655Y-85171428D01*
X66622655Y-84447619D02*
X66622655Y-83914285D01*
X66622655Y-83914285D02*
X67422655Y-84447619D01*
X67422655Y-84447619D02*
X67422655Y-83914285D01*
X66698845Y-83647619D02*
X66660750Y-83609523D01*
X66660750Y-83609523D02*
X66622655Y-83533333D01*
X66622655Y-83533333D02*
X66622655Y-83342857D01*
X66622655Y-83342857D02*
X66660750Y-83266666D01*
X66660750Y-83266666D02*
X66698845Y-83228571D01*
X66698845Y-83228571D02*
X66775036Y-83190476D01*
X66775036Y-83190476D02*
X66851226Y-83190476D01*
X66851226Y-83190476D02*
X66965512Y-83228571D01*
X66965512Y-83228571D02*
X67422655Y-83685714D01*
X67422655Y-83685714D02*
X67422655Y-83190476D01*
D12*
X146733333Y-148432208D02*
X146733333Y-147482208D01*
X146733333Y-147482208D02*
X147050000Y-148160779D01*
X147050000Y-148160779D02*
X147366666Y-147482208D01*
X147366666Y-147482208D02*
X147366666Y-148432208D01*
X147819047Y-148432208D02*
X147819047Y-147482208D01*
X147819047Y-147934589D02*
X148361904Y-147934589D01*
X148361904Y-148432208D02*
X148361904Y-147482208D01*
X149221428Y-147798874D02*
X149221428Y-148432208D01*
X148995237Y-147436970D02*
X148769047Y-148115541D01*
X148769047Y-148115541D02*
X149357142Y-148115541D01*
D10*
X115859580Y-147166666D02*
X115907200Y-147214285D01*
X115907200Y-147214285D02*
X115954819Y-147357142D01*
X115954819Y-147357142D02*
X115954819Y-147452380D01*
X115954819Y-147452380D02*
X115907200Y-147595237D01*
X115907200Y-147595237D02*
X115811961Y-147690475D01*
X115811961Y-147690475D02*
X115716723Y-147738094D01*
X115716723Y-147738094D02*
X115526247Y-147785713D01*
X115526247Y-147785713D02*
X115383390Y-147785713D01*
X115383390Y-147785713D02*
X115192914Y-147738094D01*
X115192914Y-147738094D02*
X115097676Y-147690475D01*
X115097676Y-147690475D02*
X115002438Y-147595237D01*
X115002438Y-147595237D02*
X114954819Y-147452380D01*
X114954819Y-147452380D02*
X114954819Y-147357142D01*
X114954819Y-147357142D02*
X115002438Y-147214285D01*
X115002438Y-147214285D02*
X115050057Y-147166666D01*
X114954819Y-146833332D02*
X114954819Y-146166666D01*
X114954819Y-146166666D02*
X115954819Y-146595237D01*
X130990057Y-114840475D02*
X130942438Y-114792856D01*
X130942438Y-114792856D02*
X130894819Y-114697618D01*
X130894819Y-114697618D02*
X130894819Y-114459523D01*
X130894819Y-114459523D02*
X130942438Y-114364285D01*
X130942438Y-114364285D02*
X130990057Y-114316666D01*
X130990057Y-114316666D02*
X131085295Y-114269047D01*
X131085295Y-114269047D02*
X131180533Y-114269047D01*
X131180533Y-114269047D02*
X131323390Y-114316666D01*
X131323390Y-114316666D02*
X131894819Y-114888094D01*
X131894819Y-114888094D02*
X131894819Y-114269047D01*
X131894819Y-113840475D02*
X130894819Y-113840475D01*
X131513866Y-113745237D02*
X131894819Y-113459523D01*
X131228152Y-113459523D02*
X131609104Y-113840475D01*
D11*
X136354602Y-116364285D02*
X135983174Y-116624285D01*
X136354602Y-116809999D02*
X135574602Y-116809999D01*
X135574602Y-116809999D02*
X135574602Y-116512856D01*
X135574602Y-116512856D02*
X135611745Y-116438571D01*
X135611745Y-116438571D02*
X135648888Y-116401428D01*
X135648888Y-116401428D02*
X135723174Y-116364285D01*
X135723174Y-116364285D02*
X135834602Y-116364285D01*
X135834602Y-116364285D02*
X135908888Y-116401428D01*
X135908888Y-116401428D02*
X135946031Y-116438571D01*
X135946031Y-116438571D02*
X135983174Y-116512856D01*
X135983174Y-116512856D02*
X135983174Y-116809999D01*
X135574602Y-116141428D02*
X136354602Y-115881428D01*
X136354602Y-115881428D02*
X135574602Y-115621428D01*
X136354602Y-114952857D02*
X136354602Y-115398571D01*
X136354602Y-115175714D02*
X135574602Y-115175714D01*
X135574602Y-115175714D02*
X135686031Y-115250000D01*
X135686031Y-115250000D02*
X135760317Y-115324285D01*
X135760317Y-115324285D02*
X135797460Y-115398571D01*
D10*
X141878233Y-146859580D02*
X141830614Y-146907200D01*
X141830614Y-146907200D02*
X141687757Y-146954819D01*
X141687757Y-146954819D02*
X141592519Y-146954819D01*
X141592519Y-146954819D02*
X141449662Y-146907200D01*
X141449662Y-146907200D02*
X141354424Y-146811961D01*
X141354424Y-146811961D02*
X141306805Y-146716723D01*
X141306805Y-146716723D02*
X141259186Y-146526247D01*
X141259186Y-146526247D02*
X141259186Y-146383390D01*
X141259186Y-146383390D02*
X141306805Y-146192914D01*
X141306805Y-146192914D02*
X141354424Y-146097676D01*
X141354424Y-146097676D02*
X141449662Y-146002438D01*
X141449662Y-146002438D02*
X141592519Y-145954819D01*
X141592519Y-145954819D02*
X141687757Y-145954819D01*
X141687757Y-145954819D02*
X141830614Y-146002438D01*
X141830614Y-146002438D02*
X141878233Y-146050057D01*
X142735376Y-146288152D02*
X142735376Y-146954819D01*
X142497281Y-145907200D02*
X142259186Y-146621485D01*
X142259186Y-146621485D02*
X142878233Y-146621485D01*
X127825714Y-143454819D02*
X127492381Y-142978628D01*
X127254286Y-143454819D02*
X127254286Y-142454819D01*
X127254286Y-142454819D02*
X127635238Y-142454819D01*
X127635238Y-142454819D02*
X127730476Y-142502438D01*
X127730476Y-142502438D02*
X127778095Y-142550057D01*
X127778095Y-142550057D02*
X127825714Y-142645295D01*
X127825714Y-142645295D02*
X127825714Y-142788152D01*
X127825714Y-142788152D02*
X127778095Y-142883390D01*
X127778095Y-142883390D02*
X127730476Y-142931009D01*
X127730476Y-142931009D02*
X127635238Y-142978628D01*
X127635238Y-142978628D02*
X127254286Y-142978628D01*
X128254286Y-143073866D02*
X129016191Y-143073866D01*
X129397143Y-142454819D02*
X130063809Y-142454819D01*
X130063809Y-142454819D02*
X129635238Y-143454819D01*
X130587619Y-142883390D02*
X130492381Y-142835771D01*
X130492381Y-142835771D02*
X130444762Y-142788152D01*
X130444762Y-142788152D02*
X130397143Y-142692914D01*
X130397143Y-142692914D02*
X130397143Y-142645295D01*
X130397143Y-142645295D02*
X130444762Y-142550057D01*
X130444762Y-142550057D02*
X130492381Y-142502438D01*
X130492381Y-142502438D02*
X130587619Y-142454819D01*
X130587619Y-142454819D02*
X130778095Y-142454819D01*
X130778095Y-142454819D02*
X130873333Y-142502438D01*
X130873333Y-142502438D02*
X130920952Y-142550057D01*
X130920952Y-142550057D02*
X130968571Y-142645295D01*
X130968571Y-142645295D02*
X130968571Y-142692914D01*
X130968571Y-142692914D02*
X130920952Y-142788152D01*
X130920952Y-142788152D02*
X130873333Y-142835771D01*
X130873333Y-142835771D02*
X130778095Y-142883390D01*
X130778095Y-142883390D02*
X130587619Y-142883390D01*
X130587619Y-142883390D02*
X130492381Y-142931009D01*
X130492381Y-142931009D02*
X130444762Y-142978628D01*
X130444762Y-142978628D02*
X130397143Y-143073866D01*
X130397143Y-143073866D02*
X130397143Y-143264342D01*
X130397143Y-143264342D02*
X130444762Y-143359580D01*
X130444762Y-143359580D02*
X130492381Y-143407200D01*
X130492381Y-143407200D02*
X130587619Y-143454819D01*
X130587619Y-143454819D02*
X130778095Y-143454819D01*
X130778095Y-143454819D02*
X130873333Y-143407200D01*
X130873333Y-143407200D02*
X130920952Y-143359580D01*
X130920952Y-143359580D02*
X130968571Y-143264342D01*
X130968571Y-143264342D02*
X130968571Y-143073866D01*
X130968571Y-143073866D02*
X130920952Y-142978628D01*
X130920952Y-142978628D02*
X130873333Y-142931009D01*
X130873333Y-142931009D02*
X130778095Y-142883390D01*
X131397143Y-142931009D02*
X131730476Y-142931009D01*
X131873333Y-143454819D02*
X131397143Y-143454819D01*
X131397143Y-143454819D02*
X131397143Y-142454819D01*
X131397143Y-142454819D02*
X131873333Y-142454819D01*
X132778095Y-142454819D02*
X132301905Y-142454819D01*
X132301905Y-142454819D02*
X132254286Y-142931009D01*
X132254286Y-142931009D02*
X132301905Y-142883390D01*
X132301905Y-142883390D02*
X132397143Y-142835771D01*
X132397143Y-142835771D02*
X132635238Y-142835771D01*
X132635238Y-142835771D02*
X132730476Y-142883390D01*
X132730476Y-142883390D02*
X132778095Y-142931009D01*
X132778095Y-142931009D02*
X132825714Y-143026247D01*
X132825714Y-143026247D02*
X132825714Y-143264342D01*
X132825714Y-143264342D02*
X132778095Y-143359580D01*
X132778095Y-143359580D02*
X132730476Y-143407200D01*
X132730476Y-143407200D02*
X132635238Y-143454819D01*
X132635238Y-143454819D02*
X132397143Y-143454819D01*
X132397143Y-143454819D02*
X132301905Y-143407200D01*
X132301905Y-143407200D02*
X132254286Y-143359580D01*
X133254286Y-143359580D02*
X133301905Y-143407200D01*
X133301905Y-143407200D02*
X133254286Y-143454819D01*
X133254286Y-143454819D02*
X133206667Y-143407200D01*
X133206667Y-143407200D02*
X133254286Y-143359580D01*
X133254286Y-143359580D02*
X133254286Y-143454819D01*
X133920952Y-142454819D02*
X134016190Y-142454819D01*
X134016190Y-142454819D02*
X134111428Y-142502438D01*
X134111428Y-142502438D02*
X134159047Y-142550057D01*
X134159047Y-142550057D02*
X134206666Y-142645295D01*
X134206666Y-142645295D02*
X134254285Y-142835771D01*
X134254285Y-142835771D02*
X134254285Y-143073866D01*
X134254285Y-143073866D02*
X134206666Y-143264342D01*
X134206666Y-143264342D02*
X134159047Y-143359580D01*
X134159047Y-143359580D02*
X134111428Y-143407200D01*
X134111428Y-143407200D02*
X134016190Y-143454819D01*
X134016190Y-143454819D02*
X133920952Y-143454819D01*
X133920952Y-143454819D02*
X133825714Y-143407200D01*
X133825714Y-143407200D02*
X133778095Y-143359580D01*
X133778095Y-143359580D02*
X133730476Y-143264342D01*
X133730476Y-143264342D02*
X133682857Y-143073866D01*
X133682857Y-143073866D02*
X133682857Y-142835771D01*
X133682857Y-142835771D02*
X133730476Y-142645295D01*
X133730476Y-142645295D02*
X133778095Y-142550057D01*
X133778095Y-142550057D02*
X133825714Y-142502438D01*
X133825714Y-142502438D02*
X133920952Y-142454819D01*
X134682857Y-143073866D02*
X135444762Y-143073866D01*
X136444761Y-143454819D02*
X135873333Y-143454819D01*
X136159047Y-143454819D02*
X136159047Y-142454819D01*
X136159047Y-142454819D02*
X136063809Y-142597676D01*
X136063809Y-142597676D02*
X135968571Y-142692914D01*
X135968571Y-142692914D02*
X135873333Y-142740533D01*
X136873333Y-143359580D02*
X136920952Y-143407200D01*
X136920952Y-143407200D02*
X136873333Y-143454819D01*
X136873333Y-143454819D02*
X136825714Y-143407200D01*
X136825714Y-143407200D02*
X136873333Y-143359580D01*
X136873333Y-143359580D02*
X136873333Y-143454819D01*
X137539999Y-142454819D02*
X137635237Y-142454819D01*
X137635237Y-142454819D02*
X137730475Y-142502438D01*
X137730475Y-142502438D02*
X137778094Y-142550057D01*
X137778094Y-142550057D02*
X137825713Y-142645295D01*
X137825713Y-142645295D02*
X137873332Y-142835771D01*
X137873332Y-142835771D02*
X137873332Y-143073866D01*
X137873332Y-143073866D02*
X137825713Y-143264342D01*
X137825713Y-143264342D02*
X137778094Y-143359580D01*
X137778094Y-143359580D02*
X137730475Y-143407200D01*
X137730475Y-143407200D02*
X137635237Y-143454819D01*
X137635237Y-143454819D02*
X137539999Y-143454819D01*
X137539999Y-143454819D02*
X137444761Y-143407200D01*
X137444761Y-143407200D02*
X137397142Y-143359580D01*
X137397142Y-143359580D02*
X137349523Y-143264342D01*
X137349523Y-143264342D02*
X137301904Y-143073866D01*
X137301904Y-143073866D02*
X137301904Y-142835771D01*
X137301904Y-142835771D02*
X137349523Y-142645295D01*
X137349523Y-142645295D02*
X137397142Y-142550057D01*
X137397142Y-142550057D02*
X137444761Y-142502438D01*
X137444761Y-142502438D02*
X137539999Y-142454819D01*
X131778095Y-147704819D02*
X131778095Y-148514342D01*
X131778095Y-148514342D02*
X131825714Y-148609580D01*
X131825714Y-148609580D02*
X131873333Y-148657200D01*
X131873333Y-148657200D02*
X131968571Y-148704819D01*
X131968571Y-148704819D02*
X132159047Y-148704819D01*
X132159047Y-148704819D02*
X132254285Y-148657200D01*
X132254285Y-148657200D02*
X132301904Y-148609580D01*
X132301904Y-148609580D02*
X132349523Y-148514342D01*
X132349523Y-148514342D02*
X132349523Y-147704819D01*
X132730476Y-147704819D02*
X133349523Y-147704819D01*
X133349523Y-147704819D02*
X133016190Y-148085771D01*
X133016190Y-148085771D02*
X133159047Y-148085771D01*
X133159047Y-148085771D02*
X133254285Y-148133390D01*
X133254285Y-148133390D02*
X133301904Y-148181009D01*
X133301904Y-148181009D02*
X133349523Y-148276247D01*
X133349523Y-148276247D02*
X133349523Y-148514342D01*
X133349523Y-148514342D02*
X133301904Y-148609580D01*
X133301904Y-148609580D02*
X133254285Y-148657200D01*
X133254285Y-148657200D02*
X133159047Y-148704819D01*
X133159047Y-148704819D02*
X132873333Y-148704819D01*
X132873333Y-148704819D02*
X132778095Y-148657200D01*
X132778095Y-148657200D02*
X132730476Y-148609580D01*
X74824819Y-128095238D02*
X74824819Y-128666666D01*
X74824819Y-128380952D02*
X73824819Y-128380952D01*
X73824819Y-128380952D02*
X73967676Y-128476190D01*
X73967676Y-128476190D02*
X74062914Y-128571428D01*
X74062914Y-128571428D02*
X74110533Y-128666666D01*
X73824819Y-127476190D02*
X73824819Y-127380952D01*
X73824819Y-127380952D02*
X73872438Y-127285714D01*
X73872438Y-127285714D02*
X73920057Y-127238095D01*
X73920057Y-127238095D02*
X74015295Y-127190476D01*
X74015295Y-127190476D02*
X74205771Y-127142857D01*
X74205771Y-127142857D02*
X74443866Y-127142857D01*
X74443866Y-127142857D02*
X74634342Y-127190476D01*
X74634342Y-127190476D02*
X74729580Y-127238095D01*
X74729580Y-127238095D02*
X74777200Y-127285714D01*
X74777200Y-127285714D02*
X74824819Y-127380952D01*
X74824819Y-127380952D02*
X74824819Y-127476190D01*
X74824819Y-127476190D02*
X74777200Y-127571428D01*
X74777200Y-127571428D02*
X74729580Y-127619047D01*
X74729580Y-127619047D02*
X74634342Y-127666666D01*
X74634342Y-127666666D02*
X74443866Y-127714285D01*
X74443866Y-127714285D02*
X74205771Y-127714285D01*
X74205771Y-127714285D02*
X74015295Y-127666666D01*
X74015295Y-127666666D02*
X73920057Y-127619047D01*
X73920057Y-127619047D02*
X73872438Y-127571428D01*
X73872438Y-127571428D02*
X73824819Y-127476190D01*
X74824819Y-126714285D02*
X73824819Y-126714285D01*
X74443866Y-126619047D02*
X74824819Y-126333333D01*
X74158152Y-126333333D02*
X74539104Y-126714285D01*
X72454819Y-128142857D02*
X71978628Y-128476190D01*
X72454819Y-128714285D02*
X71454819Y-128714285D01*
X71454819Y-128714285D02*
X71454819Y-128333333D01*
X71454819Y-128333333D02*
X71502438Y-128238095D01*
X71502438Y-128238095D02*
X71550057Y-128190476D01*
X71550057Y-128190476D02*
X71645295Y-128142857D01*
X71645295Y-128142857D02*
X71788152Y-128142857D01*
X71788152Y-128142857D02*
X71883390Y-128190476D01*
X71883390Y-128190476D02*
X71931009Y-128238095D01*
X71931009Y-128238095D02*
X71978628Y-128333333D01*
X71978628Y-128333333D02*
X71978628Y-128714285D01*
X71550057Y-127761904D02*
X71502438Y-127714285D01*
X71502438Y-127714285D02*
X71454819Y-127619047D01*
X71454819Y-127619047D02*
X71454819Y-127380952D01*
X71454819Y-127380952D02*
X71502438Y-127285714D01*
X71502438Y-127285714D02*
X71550057Y-127238095D01*
X71550057Y-127238095D02*
X71645295Y-127190476D01*
X71645295Y-127190476D02*
X71740533Y-127190476D01*
X71740533Y-127190476D02*
X71883390Y-127238095D01*
X71883390Y-127238095D02*
X72454819Y-127809523D01*
X72454819Y-127809523D02*
X72454819Y-127190476D01*
X72454819Y-126238095D02*
X72454819Y-126809523D01*
X72454819Y-126523809D02*
X71454819Y-126523809D01*
X71454819Y-126523809D02*
X71597676Y-126619047D01*
X71597676Y-126619047D02*
X71692914Y-126714285D01*
X71692914Y-126714285D02*
X71740533Y-126809523D01*
X121857143Y-126454819D02*
X121952381Y-126454819D01*
X121952381Y-126454819D02*
X122047619Y-126502438D01*
X122047619Y-126502438D02*
X122095238Y-126550057D01*
X122095238Y-126550057D02*
X122142857Y-126645295D01*
X122142857Y-126645295D02*
X122190476Y-126835771D01*
X122190476Y-126835771D02*
X122190476Y-127073866D01*
X122190476Y-127073866D02*
X122142857Y-127264342D01*
X122142857Y-127264342D02*
X122095238Y-127359580D01*
X122095238Y-127359580D02*
X122047619Y-127407200D01*
X122047619Y-127407200D02*
X121952381Y-127454819D01*
X121952381Y-127454819D02*
X121857143Y-127454819D01*
X121857143Y-127454819D02*
X121761905Y-127407200D01*
X121761905Y-127407200D02*
X121714286Y-127359580D01*
X121714286Y-127359580D02*
X121666667Y-127264342D01*
X121666667Y-127264342D02*
X121619048Y-127073866D01*
X121619048Y-127073866D02*
X121619048Y-126835771D01*
X121619048Y-126835771D02*
X121666667Y-126645295D01*
X121666667Y-126645295D02*
X121714286Y-126550057D01*
X121714286Y-126550057D02*
X121761905Y-126502438D01*
X121761905Y-126502438D02*
X121857143Y-126454819D01*
X122619048Y-127359580D02*
X122666667Y-127407200D01*
X122666667Y-127407200D02*
X122619048Y-127454819D01*
X122619048Y-127454819D02*
X122571429Y-127407200D01*
X122571429Y-127407200D02*
X122619048Y-127359580D01*
X122619048Y-127359580D02*
X122619048Y-127454819D01*
X123619047Y-127454819D02*
X123047619Y-127454819D01*
X123333333Y-127454819D02*
X123333333Y-126454819D01*
X123333333Y-126454819D02*
X123238095Y-126597676D01*
X123238095Y-126597676D02*
X123142857Y-126692914D01*
X123142857Y-126692914D02*
X123047619Y-126740533D01*
X124476190Y-126788152D02*
X124476190Y-127454819D01*
X124047619Y-126788152D02*
X124047619Y-127311961D01*
X124047619Y-127311961D02*
X124095238Y-127407200D01*
X124095238Y-127407200D02*
X124190476Y-127454819D01*
X124190476Y-127454819D02*
X124333333Y-127454819D01*
X124333333Y-127454819D02*
X124428571Y-127407200D01*
X124428571Y-127407200D02*
X124476190Y-127359580D01*
X125285714Y-126931009D02*
X124952381Y-126931009D01*
X124952381Y-127454819D02*
X124952381Y-126454819D01*
X124952381Y-126454819D02*
X125428571Y-126454819D01*
X123333333Y-128859580D02*
X123285714Y-128907200D01*
X123285714Y-128907200D02*
X123142857Y-128954819D01*
X123142857Y-128954819D02*
X123047619Y-128954819D01*
X123047619Y-128954819D02*
X122904762Y-128907200D01*
X122904762Y-128907200D02*
X122809524Y-128811961D01*
X122809524Y-128811961D02*
X122761905Y-128716723D01*
X122761905Y-128716723D02*
X122714286Y-128526247D01*
X122714286Y-128526247D02*
X122714286Y-128383390D01*
X122714286Y-128383390D02*
X122761905Y-128192914D01*
X122761905Y-128192914D02*
X122809524Y-128097676D01*
X122809524Y-128097676D02*
X122904762Y-128002438D01*
X122904762Y-128002438D02*
X123047619Y-127954819D01*
X123047619Y-127954819D02*
X123142857Y-127954819D01*
X123142857Y-127954819D02*
X123285714Y-128002438D01*
X123285714Y-128002438D02*
X123333333Y-128050057D01*
X123666667Y-127954819D02*
X124285714Y-127954819D01*
X124285714Y-127954819D02*
X123952381Y-128335771D01*
X123952381Y-128335771D02*
X124095238Y-128335771D01*
X124095238Y-128335771D02*
X124190476Y-128383390D01*
X124190476Y-128383390D02*
X124238095Y-128431009D01*
X124238095Y-128431009D02*
X124285714Y-128526247D01*
X124285714Y-128526247D02*
X124285714Y-128764342D01*
X124285714Y-128764342D02*
X124238095Y-128859580D01*
X124238095Y-128859580D02*
X124190476Y-128907200D01*
X124190476Y-128907200D02*
X124095238Y-128954819D01*
X124095238Y-128954819D02*
X123809524Y-128954819D01*
X123809524Y-128954819D02*
X123714286Y-128907200D01*
X123714286Y-128907200D02*
X123666667Y-128859580D01*
%TO.C,C5*%
D13*
X124087500Y-144911295D02*
X124087500Y-145411295D01*
X124337500Y-145161295D02*
X123837500Y-145161295D01*
X125500000Y-147044900D02*
G75*
G02*
X120500000Y-147044900I-2500000J0D01*
G01*
X120500000Y-147044900D02*
G75*
G02*
X125500000Y-147044900I2500000J0D01*
G01*
%TO.C,DZ9*%
X127000000Y-82500000D02*
X127000000Y-86500000D01*
X127000000Y-85800000D02*
X129000000Y-85800000D01*
X127000000Y-85900000D02*
X129000000Y-85900000D01*
X127000000Y-86000000D02*
X129000000Y-86000000D01*
X127000000Y-86500000D02*
X129000000Y-86500000D01*
X128000000Y-80690000D02*
X128000000Y-82500000D01*
X128000000Y-88310000D02*
X128000000Y-86500000D01*
X129000000Y-82500000D02*
X127000000Y-82500000D01*
X129000000Y-86500000D02*
X129000000Y-82500000D01*
%TO.C,DZ8*%
X118294100Y-82500000D02*
X118294100Y-86500000D01*
X118294100Y-85800000D02*
X120294100Y-85800000D01*
X118294100Y-85900000D02*
X120294100Y-85900000D01*
X118294100Y-86000000D02*
X120294100Y-86000000D01*
X118294100Y-86500000D02*
X120294100Y-86500000D01*
X119294100Y-80690000D02*
X119294100Y-82500000D01*
X119294100Y-88310000D02*
X119294100Y-86500000D01*
X120294100Y-82500000D02*
X118294100Y-82500000D01*
X120294100Y-86500000D02*
X120294100Y-82500000D01*
%TO.C,C2*%
X126000000Y-131750000D02*
X131000000Y-131750000D01*
X131000000Y-142250000D01*
X126000000Y-142250000D01*
X126000000Y-131750000D01*
%TO.C,C6*%
X113250000Y-137000000D02*
X123750000Y-137000000D01*
X123750000Y-142000000D01*
X113250000Y-142000000D01*
X113250000Y-137000000D01*
%TO.C,J3*%
X57000000Y-51367500D02*
X67000000Y-51367500D01*
X57000000Y-58367500D02*
X57000000Y-51367500D01*
X57000000Y-58367500D02*
X67000000Y-58367500D01*
X59000000Y-60367500D02*
X57000000Y-58367500D01*
X60773000Y-54850500D02*
X57983000Y-57640500D01*
X61017000Y-55094500D02*
X58227000Y-57884500D01*
X65773000Y-54850500D02*
X62983000Y-57640500D01*
X66017000Y-55094500D02*
X63227000Y-57884500D01*
X67000000Y-51367500D02*
X67000000Y-60367500D01*
X67000000Y-60367500D02*
X59000000Y-60367500D01*
X60500000Y-53167500D02*
G75*
G02*
X58500000Y-53167500I-1000000J0D01*
G01*
X58500000Y-53167500D02*
G75*
G02*
X60500000Y-53167500I1000000J0D01*
G01*
X61500000Y-56367500D02*
G75*
G02*
X57500000Y-56367500I-2000000J0D01*
G01*
X57500000Y-56367500D02*
G75*
G02*
X61500000Y-56367500I2000000J0D01*
G01*
X65500000Y-53167500D02*
G75*
G02*
X63500000Y-53167500I-1000000J0D01*
G01*
X63500000Y-53167500D02*
G75*
G02*
X65500000Y-53167500I1000000J0D01*
G01*
X66500000Y-56367500D02*
G75*
G02*
X62500000Y-56367500I-2000000J0D01*
G01*
X62500000Y-56367500D02*
G75*
G02*
X66500000Y-56367500I2000000J0D01*
G01*
%TO.C,RV5*%
X70500000Y-137095000D02*
X80500000Y-137095000D01*
X80500000Y-146895000D01*
X70500000Y-146895000D01*
X70500000Y-137095000D01*
X76550000Y-141995000D02*
G75*
G02*
X74450000Y-141995000I-1050000J0D01*
G01*
X74450000Y-141995000D02*
G75*
G02*
X76550000Y-141995000I1050000J0D01*
G01*
%TO.C,R29*%
X106235300Y-80690000D02*
X106235300Y-81350000D01*
X106235300Y-88310000D02*
X106235300Y-87650000D01*
X104985300Y-81350000D02*
X107485300Y-81350000D01*
X107485300Y-87650000D01*
X104985300Y-87650000D01*
X104985300Y-81350000D01*
%TO.C,R31*%
X123647100Y-80690000D02*
X123647100Y-81350000D01*
X123647100Y-88310000D02*
X123647100Y-87650000D01*
X122397100Y-81350000D02*
X124897100Y-81350000D01*
X124897100Y-87650000D01*
X122397100Y-87650000D01*
X122397100Y-81350000D01*
%TO.C,DZ3*%
X74764700Y-82500000D02*
X74764700Y-86500000D01*
X74764700Y-85800000D02*
X76764700Y-85800000D01*
X74764700Y-85900000D02*
X76764700Y-85900000D01*
X74764700Y-86000000D02*
X76764700Y-86000000D01*
X74764700Y-86500000D02*
X76764700Y-86500000D01*
X75764700Y-80690000D02*
X75764700Y-82500000D01*
X75764700Y-88310000D02*
X75764700Y-86500000D01*
X76764700Y-82500000D02*
X74764700Y-82500000D01*
X76764700Y-86500000D02*
X76764700Y-82500000D01*
%TO.C,R15*%
X119000000Y-111000000D02*
X119660000Y-111000000D01*
X126620000Y-111000000D02*
X125960000Y-111000000D01*
X119660000Y-109750000D02*
X125960000Y-109750000D01*
X125960000Y-112250000D01*
X119660000Y-112250000D01*
X119660000Y-109750000D01*
%TO.C,J2*%
X140367500Y-132000000D02*
X149367500Y-132000000D01*
X140367500Y-142000000D02*
X140367500Y-132000000D01*
X143850500Y-133227000D02*
X146640500Y-136017000D01*
X143850500Y-138227000D02*
X146640500Y-141017000D01*
X144094500Y-132983000D02*
X146884500Y-135773000D01*
X144094500Y-137983000D02*
X146884500Y-140773000D01*
X147367500Y-142000000D02*
X140367500Y-142000000D01*
X147367500Y-142000000D02*
X147367500Y-132000000D01*
X149367500Y-132000000D02*
X149367500Y-140000000D01*
X149367500Y-140000000D02*
X147367500Y-142000000D01*
X143167500Y-134500000D02*
G75*
G02*
X141167500Y-134500000I-1000000J0D01*
G01*
X141167500Y-134500000D02*
G75*
G02*
X143167500Y-134500000I1000000J0D01*
G01*
X143167500Y-139500000D02*
G75*
G02*
X141167500Y-139500000I-1000000J0D01*
G01*
X141167500Y-139500000D02*
G75*
G02*
X143167500Y-139500000I1000000J0D01*
G01*
X147367500Y-134500000D02*
G75*
G02*
X143367500Y-134500000I-2000000J0D01*
G01*
X143367500Y-134500000D02*
G75*
G02*
X147367500Y-134500000I2000000J0D01*
G01*
X147367500Y-139500000D02*
G75*
G02*
X143367500Y-139500000I-2000000J0D01*
G01*
X143367500Y-139500000D02*
G75*
G02*
X147367500Y-139500000I2000000J0D01*
G01*
%TO.C,U6*%
X69135000Y-98840000D02*
X75485000Y-98840000D01*
X69135000Y-119160000D02*
X69135000Y-98840000D01*
X74485000Y-119160000D02*
X69135000Y-119160000D01*
X75485000Y-98840000D02*
X75485000Y-118160000D01*
X75485000Y-118160000D02*
X74485000Y-119160000D01*
%TO.C,J1*%
X58640000Y-65280000D02*
X116100000Y-65280000D01*
X58640000Y-74180000D02*
X58640000Y-65280000D01*
X59830000Y-66480000D02*
X85820000Y-66480000D01*
X59830000Y-72980000D02*
X59830000Y-66480000D01*
X85820000Y-66480000D02*
X85820000Y-65280000D01*
X89920000Y-65280000D02*
X89920000Y-66480000D01*
X89920000Y-66480000D02*
X115910000Y-66480000D01*
X115910000Y-66480000D02*
X115910000Y-72980000D01*
X115910000Y-72980000D02*
X59830000Y-72980000D01*
X116100000Y-65280000D02*
X117100000Y-66280000D01*
X117100000Y-66280000D02*
X117100000Y-74180000D01*
X117100000Y-74180000D02*
X58640000Y-74180000D01*
%TO.C,R28*%
X97529400Y-80690000D02*
X97529400Y-81350000D01*
X97529400Y-88310000D02*
X97529400Y-87650000D01*
X96279400Y-81350000D02*
X98779400Y-81350000D01*
X98779400Y-87650000D01*
X96279400Y-87650000D01*
X96279400Y-81350000D01*
%TO.C,R14*%
X132380000Y-128500000D02*
X133040000Y-128500000D01*
X140000000Y-128500000D02*
X139340000Y-128500000D01*
X133040000Y-127250000D02*
X139340000Y-127250000D01*
X139340000Y-129750000D01*
X133040000Y-129750000D01*
X133040000Y-127250000D01*
%TO.C,DZ1*%
X57352900Y-82500000D02*
X57352900Y-86500000D01*
X57352900Y-85800000D02*
X59352900Y-85800000D01*
X57352900Y-85900000D02*
X59352900Y-85900000D01*
X57352900Y-86000000D02*
X59352900Y-86000000D01*
X57352900Y-86500000D02*
X59352900Y-86500000D01*
X58352900Y-80690000D02*
X58352900Y-82500000D01*
X58352900Y-88310000D02*
X58352900Y-86500000D01*
X59352900Y-82500000D02*
X57352900Y-82500000D01*
X59352900Y-86500000D02*
X59352900Y-82500000D01*
%TO.C,J5*%
X79500000Y-51367500D02*
X89500000Y-51367500D01*
X79500000Y-58367500D02*
X79500000Y-51367500D01*
X79500000Y-58367500D02*
X89500000Y-58367500D01*
X81500000Y-60367500D02*
X79500000Y-58367500D01*
X83273000Y-54850500D02*
X80483000Y-57640500D01*
X83517000Y-55094500D02*
X80727000Y-57884500D01*
X88273000Y-54850500D02*
X85483000Y-57640500D01*
X88517000Y-55094500D02*
X85727000Y-57884500D01*
X89500000Y-51367500D02*
X89500000Y-60367500D01*
X89500000Y-60367500D02*
X81500000Y-60367500D01*
X83000000Y-53167500D02*
G75*
G02*
X81000000Y-53167500I-1000000J0D01*
G01*
X81000000Y-53167500D02*
G75*
G02*
X83000000Y-53167500I1000000J0D01*
G01*
X84000000Y-56367500D02*
G75*
G02*
X80000000Y-56367500I-2000000J0D01*
G01*
X80000000Y-56367500D02*
G75*
G02*
X84000000Y-56367500I2000000J0D01*
G01*
X88000000Y-53167500D02*
G75*
G02*
X86000000Y-53167500I-1000000J0D01*
G01*
X86000000Y-53167500D02*
G75*
G02*
X88000000Y-53167500I1000000J0D01*
G01*
X89000000Y-56367500D02*
G75*
G02*
X85000000Y-56367500I-2000000J0D01*
G01*
X85000000Y-56367500D02*
G75*
G02*
X89000000Y-56367500I2000000J0D01*
G01*
%TO.C,D13*%
X113340000Y-133000000D02*
X115820000Y-133000000D01*
X116500000Y-131650000D02*
X116500000Y-134350000D01*
X116600000Y-131650000D02*
X116600000Y-134350000D01*
X116700000Y-131650000D02*
X116700000Y-134350000D01*
X123500000Y-133000000D02*
X121020000Y-133000000D01*
X115820000Y-131650000D02*
X121020000Y-131650000D01*
X121020000Y-134350000D01*
X115820000Y-134350000D01*
X115820000Y-131650000D01*
%TO.C,U2*%
X133135000Y-92690000D02*
X134135000Y-91690000D01*
X133135000Y-109470000D02*
X133135000Y-92690000D01*
X134135000Y-91690000D02*
X139485000Y-91690000D01*
X139485000Y-91690000D02*
X139485000Y-109470000D01*
X139485000Y-109470000D02*
X133135000Y-109470000D01*
%TO.C,R17*%
X132380000Y-121000000D02*
X133040000Y-121000000D01*
X140000000Y-121000000D02*
X139340000Y-121000000D01*
X133040000Y-119750000D02*
X139340000Y-119750000D01*
X139340000Y-122250000D01*
X133040000Y-122250000D01*
X133040000Y-119750000D01*
%TO.C,R25*%
X71411800Y-80690000D02*
X71411800Y-81350000D01*
X71411800Y-88310000D02*
X71411800Y-87650000D01*
X70161800Y-81350000D02*
X72661800Y-81350000D01*
X72661800Y-87650000D01*
X70161800Y-87650000D01*
X70161800Y-81350000D01*
%TO.C,R16*%
X115500000Y-110190000D02*
X115500000Y-110850000D01*
X115500000Y-117810000D02*
X115500000Y-117150000D01*
X114250000Y-110850000D02*
X116750000Y-110850000D01*
X116750000Y-117150000D01*
X114250000Y-117150000D01*
X114250000Y-110850000D01*
%TO.C,J10*%
X140367500Y-79000000D02*
X149367500Y-79000000D01*
X140367500Y-89000000D02*
X140367500Y-79000000D01*
X143850500Y-80227000D02*
X146640500Y-83017000D01*
X143850500Y-85227000D02*
X146640500Y-88017000D01*
X144094500Y-79983000D02*
X146884500Y-82773000D01*
X144094500Y-84983000D02*
X146884500Y-87773000D01*
X147367500Y-89000000D02*
X140367500Y-89000000D01*
X147367500Y-89000000D02*
X147367500Y-79000000D01*
X149367500Y-79000000D02*
X149367500Y-87000000D01*
X149367500Y-87000000D02*
X147367500Y-89000000D01*
X143167500Y-81500000D02*
G75*
G02*
X141167500Y-81500000I-1000000J0D01*
G01*
X141167500Y-81500000D02*
G75*
G02*
X143167500Y-81500000I1000000J0D01*
G01*
X143167500Y-86500000D02*
G75*
G02*
X141167500Y-86500000I-1000000J0D01*
G01*
X141167500Y-86500000D02*
G75*
G02*
X143167500Y-86500000I1000000J0D01*
G01*
X147367500Y-81500000D02*
G75*
G02*
X143367500Y-81500000I-2000000J0D01*
G01*
X143367500Y-81500000D02*
G75*
G02*
X147367500Y-81500000I2000000J0D01*
G01*
X147367500Y-86500000D02*
G75*
G02*
X143367500Y-86500000I-2000000J0D01*
G01*
X143367500Y-86500000D02*
G75*
G02*
X147367500Y-86500000I2000000J0D01*
G01*
%TO.C,DZ4*%
X83470600Y-82500000D02*
X83470600Y-86500000D01*
X83470600Y-85800000D02*
X85470600Y-85800000D01*
X83470600Y-85900000D02*
X85470600Y-85900000D01*
X83470600Y-86000000D02*
X85470600Y-86000000D01*
X83470600Y-86500000D02*
X85470600Y-86500000D01*
X84470600Y-80690000D02*
X84470600Y-82500000D01*
X84470600Y-88310000D02*
X84470600Y-86500000D01*
X85470600Y-82500000D02*
X83470600Y-82500000D01*
X85470600Y-86500000D02*
X85470600Y-82500000D01*
%TO.C,C1*%
X133000000Y-131750000D02*
X138000000Y-131750000D01*
X138000000Y-142250000D01*
X133000000Y-142250000D01*
X133000000Y-131750000D01*
%TO.C,DZ5*%
X92176500Y-82500000D02*
X92176500Y-86500000D01*
X92176500Y-85800000D02*
X94176500Y-85800000D01*
X92176500Y-85900000D02*
X94176500Y-85900000D01*
X92176500Y-86000000D02*
X94176500Y-86000000D01*
X92176500Y-86500000D02*
X94176500Y-86500000D01*
X93176500Y-80690000D02*
X93176500Y-82500000D01*
X93176500Y-88310000D02*
X93176500Y-86500000D01*
X94176500Y-82500000D02*
X92176500Y-82500000D01*
X94176500Y-86500000D02*
X94176500Y-82500000D01*
%TO.C,J12*%
X125500000Y-51367500D02*
X135500000Y-51367500D01*
X125500000Y-58367500D02*
X125500000Y-51367500D01*
X125500000Y-58367500D02*
X135500000Y-58367500D01*
X127500000Y-60367500D02*
X125500000Y-58367500D01*
X129273000Y-54850500D02*
X126483000Y-57640500D01*
X129517000Y-55094500D02*
X126727000Y-57884500D01*
X134273000Y-54850500D02*
X131483000Y-57640500D01*
X134517000Y-55094500D02*
X131727000Y-57884500D01*
X135500000Y-51367500D02*
X135500000Y-60367500D01*
X135500000Y-60367500D02*
X127500000Y-60367500D01*
X129000000Y-53167500D02*
G75*
G02*
X127000000Y-53167500I-1000000J0D01*
G01*
X127000000Y-53167500D02*
G75*
G02*
X129000000Y-53167500I1000000J0D01*
G01*
X130000000Y-56367500D02*
G75*
G02*
X126000000Y-56367500I-2000000J0D01*
G01*
X126000000Y-56367500D02*
G75*
G02*
X130000000Y-56367500I2000000J0D01*
G01*
X134000000Y-53167500D02*
G75*
G02*
X132000000Y-53167500I-1000000J0D01*
G01*
X132000000Y-53167500D02*
G75*
G02*
X134000000Y-53167500I1000000J0D01*
G01*
X135000000Y-56367500D02*
G75*
G02*
X131000000Y-56367500I-2000000J0D01*
G01*
X131000000Y-56367500D02*
G75*
G02*
X135000000Y-56367500I2000000J0D01*
G01*
%TO.C,J11*%
X140367500Y-56000000D02*
X149367500Y-56000000D01*
X140367500Y-66000000D02*
X140367500Y-56000000D01*
X143850500Y-57227000D02*
X146640500Y-60017000D01*
X143850500Y-62227000D02*
X146640500Y-65017000D01*
X144094500Y-56983000D02*
X146884500Y-59773000D01*
X144094500Y-61983000D02*
X146884500Y-64773000D01*
X147367500Y-66000000D02*
X140367500Y-66000000D01*
X147367500Y-66000000D02*
X147367500Y-56000000D01*
X149367500Y-56000000D02*
X149367500Y-64000000D01*
X149367500Y-64000000D02*
X147367500Y-66000000D01*
X143167500Y-58500000D02*
G75*
G02*
X141167500Y-58500000I-1000000J0D01*
G01*
X141167500Y-58500000D02*
G75*
G02*
X143167500Y-58500000I1000000J0D01*
G01*
X143167500Y-63500000D02*
G75*
G02*
X141167500Y-63500000I-1000000J0D01*
G01*
X141167500Y-63500000D02*
G75*
G02*
X143167500Y-63500000I1000000J0D01*
G01*
X147367500Y-58500000D02*
G75*
G02*
X143367500Y-58500000I-2000000J0D01*
G01*
X143367500Y-58500000D02*
G75*
G02*
X147367500Y-58500000I2000000J0D01*
G01*
X147367500Y-63500000D02*
G75*
G02*
X143367500Y-63500000I-2000000J0D01*
G01*
X143367500Y-63500000D02*
G75*
G02*
X147367500Y-63500000I2000000J0D01*
G01*
%TO.C,U5*%
X55015000Y-98490000D02*
X61365000Y-98490000D01*
X55015000Y-118810000D02*
X55015000Y-98490000D01*
X60365000Y-118810000D02*
X55015000Y-118810000D01*
X61365000Y-98490000D02*
X61365000Y-117810000D01*
X61365000Y-117810000D02*
X60365000Y-118810000D01*
%TO.C,R23*%
X54000000Y-80690000D02*
X54000000Y-81350000D01*
X54000000Y-88310000D02*
X54000000Y-87650000D01*
X52750000Y-81350000D02*
X55250000Y-81350000D01*
X55250000Y-87650000D01*
X52750000Y-87650000D01*
X52750000Y-81350000D01*
%TO.C,J4*%
X68000000Y-51367500D02*
X78000000Y-51367500D01*
X68000000Y-58367500D02*
X68000000Y-51367500D01*
X68000000Y-58367500D02*
X78000000Y-58367500D01*
X70000000Y-60367500D02*
X68000000Y-58367500D01*
X71773000Y-54850500D02*
X68983000Y-57640500D01*
X72017000Y-55094500D02*
X69227000Y-57884500D01*
X76773000Y-54850500D02*
X73983000Y-57640500D01*
X77017000Y-55094500D02*
X74227000Y-57884500D01*
X78000000Y-51367500D02*
X78000000Y-60367500D01*
X78000000Y-60367500D02*
X70000000Y-60367500D01*
X71500000Y-53167500D02*
G75*
G02*
X69500000Y-53167500I-1000000J0D01*
G01*
X69500000Y-53167500D02*
G75*
G02*
X71500000Y-53167500I1000000J0D01*
G01*
X72500000Y-56367500D02*
G75*
G02*
X68500000Y-56367500I-2000000J0D01*
G01*
X68500000Y-56367500D02*
G75*
G02*
X72500000Y-56367500I2000000J0D01*
G01*
X76500000Y-53167500D02*
G75*
G02*
X74500000Y-53167500I-1000000J0D01*
G01*
X74500000Y-53167500D02*
G75*
G02*
X76500000Y-53167500I1000000J0D01*
G01*
X77500000Y-56367500D02*
G75*
G02*
X73500000Y-56367500I-2000000J0D01*
G01*
X73500000Y-56367500D02*
G75*
G02*
X77500000Y-56367500I2000000J0D01*
G01*
%TO.C,R26*%
X80117600Y-80690000D02*
X80117600Y-81350000D01*
X80117600Y-88310000D02*
X80117600Y-87650000D01*
X78867600Y-81350000D02*
X81367600Y-81350000D01*
X81367600Y-87650000D01*
X78867600Y-87650000D01*
X78867600Y-81350000D01*
%TO.C,RV3*%
X56500000Y-126100000D02*
X66500000Y-126100000D01*
X66500000Y-135900000D01*
X56500000Y-135900000D01*
X56500000Y-126100000D01*
X62550000Y-131000000D02*
G75*
G02*
X60450000Y-131000000I-1050000J0D01*
G01*
X60450000Y-131000000D02*
G75*
G02*
X62550000Y-131000000I1050000J0D01*
G01*
%TO.C,DZ7*%
X109588200Y-82500000D02*
X109588200Y-86500000D01*
X109588200Y-85800000D02*
X111588200Y-85800000D01*
X109588200Y-85900000D02*
X111588200Y-85900000D01*
X109588200Y-86000000D02*
X111588200Y-86000000D01*
X109588200Y-86500000D02*
X111588200Y-86500000D01*
X110588200Y-80690000D02*
X110588200Y-82500000D01*
X110588200Y-88310000D02*
X110588200Y-86500000D01*
X111588200Y-82500000D02*
X109588200Y-82500000D01*
X111588200Y-86500000D02*
X111588200Y-82500000D01*
%TO.C,U1*%
X83250000Y-99490000D02*
X111150000Y-99490000D01*
X83250000Y-146910000D02*
X83250000Y-99490000D01*
X84250000Y-99490000D02*
X83250000Y-100490000D01*
X111150000Y-99490000D02*
X111150000Y-146910000D01*
X111150000Y-146910000D02*
X83250000Y-146910000D01*
%TO.C,DZ6*%
X100882400Y-82500000D02*
X100882400Y-86500000D01*
X100882400Y-85800000D02*
X102882400Y-85800000D01*
X100882400Y-85900000D02*
X102882400Y-85900000D01*
X100882400Y-86000000D02*
X102882400Y-86000000D01*
X100882400Y-86500000D02*
X102882400Y-86500000D01*
X101882400Y-80690000D02*
X101882400Y-82500000D01*
X101882400Y-88310000D02*
X101882400Y-86500000D01*
X102882400Y-82500000D02*
X100882400Y-82500000D01*
X102882400Y-86500000D02*
X102882400Y-82500000D01*
%TO.C,J7*%
X102500000Y-51367500D02*
X112500000Y-51367500D01*
X102500000Y-58367500D02*
X102500000Y-51367500D01*
X102500000Y-58367500D02*
X112500000Y-58367500D01*
X104500000Y-60367500D02*
X102500000Y-58367500D01*
X106273000Y-54850500D02*
X103483000Y-57640500D01*
X106517000Y-55094500D02*
X103727000Y-57884500D01*
X111273000Y-54850500D02*
X108483000Y-57640500D01*
X111517000Y-55094500D02*
X108727000Y-57884500D01*
X112500000Y-51367500D02*
X112500000Y-60367500D01*
X112500000Y-60367500D02*
X104500000Y-60367500D01*
X106000000Y-53167500D02*
G75*
G02*
X104000000Y-53167500I-1000000J0D01*
G01*
X104000000Y-53167500D02*
G75*
G02*
X106000000Y-53167500I1000000J0D01*
G01*
X107000000Y-56367500D02*
G75*
G02*
X103000000Y-56367500I-2000000J0D01*
G01*
X103000000Y-56367500D02*
G75*
G02*
X107000000Y-56367500I2000000J0D01*
G01*
X111000000Y-53167500D02*
G75*
G02*
X109000000Y-53167500I-1000000J0D01*
G01*
X109000000Y-53167500D02*
G75*
G02*
X111000000Y-53167500I1000000J0D01*
G01*
X112000000Y-56367500D02*
G75*
G02*
X108000000Y-56367500I-2000000J0D01*
G01*
X108000000Y-56367500D02*
G75*
G02*
X112000000Y-56367500I2000000J0D01*
G01*
%TO.C,RV4*%
X57500000Y-136600000D02*
X67500000Y-136600000D01*
X67500000Y-146400000D01*
X57500000Y-146400000D01*
X57500000Y-136600000D01*
X63550000Y-141500000D02*
G75*
G02*
X61450000Y-141500000I-1050000J0D01*
G01*
X61450000Y-141500000D02*
G75*
G02*
X63550000Y-141500000I1050000J0D01*
G01*
%TO.C,R18*%
X132190000Y-124500000D02*
X132850000Y-124500000D01*
X139810000Y-124500000D02*
X139150000Y-124500000D01*
X132850000Y-123250000D02*
X139150000Y-123250000D01*
X139150000Y-125750000D01*
X132850000Y-125750000D01*
X132850000Y-123250000D01*
%TO.C,J9*%
X140367500Y-67500000D02*
X149367500Y-67500000D01*
X140367500Y-77500000D02*
X140367500Y-67500000D01*
X143850500Y-68727000D02*
X146640500Y-71517000D01*
X143850500Y-73727000D02*
X146640500Y-76517000D01*
X144094500Y-68483000D02*
X146884500Y-71273000D01*
X144094500Y-73483000D02*
X146884500Y-76273000D01*
X147367500Y-77500000D02*
X140367500Y-77500000D01*
X147367500Y-77500000D02*
X147367500Y-67500000D01*
X149367500Y-67500000D02*
X149367500Y-75500000D01*
X149367500Y-75500000D02*
X147367500Y-77500000D01*
X143167500Y-70000000D02*
G75*
G02*
X141167500Y-70000000I-1000000J0D01*
G01*
X141167500Y-70000000D02*
G75*
G02*
X143167500Y-70000000I1000000J0D01*
G01*
X143167500Y-75000000D02*
G75*
G02*
X141167500Y-75000000I-1000000J0D01*
G01*
X141167500Y-75000000D02*
G75*
G02*
X143167500Y-75000000I1000000J0D01*
G01*
X147367500Y-70000000D02*
G75*
G02*
X143367500Y-70000000I-2000000J0D01*
G01*
X143367500Y-70000000D02*
G75*
G02*
X147367500Y-70000000I2000000J0D01*
G01*
X147367500Y-75000000D02*
G75*
G02*
X143367500Y-75000000I-2000000J0D01*
G01*
X143367500Y-75000000D02*
G75*
G02*
X147367500Y-75000000I2000000J0D01*
G01*
%TO.C,R24*%
X62705900Y-80690000D02*
X62705900Y-81350000D01*
X62705900Y-88310000D02*
X62705900Y-87650000D01*
X61455900Y-81350000D02*
X63955900Y-81350000D01*
X63955900Y-87650000D01*
X61455900Y-87650000D01*
X61455900Y-81350000D01*
%TO.C,J8*%
X114000000Y-51367500D02*
X124000000Y-51367500D01*
X114000000Y-58367500D02*
X114000000Y-51367500D01*
X114000000Y-58367500D02*
X124000000Y-58367500D01*
X116000000Y-60367500D02*
X114000000Y-58367500D01*
X117773000Y-54850500D02*
X114983000Y-57640500D01*
X118017000Y-55094500D02*
X115227000Y-57884500D01*
X122773000Y-54850500D02*
X119983000Y-57640500D01*
X123017000Y-55094500D02*
X120227000Y-57884500D01*
X124000000Y-51367500D02*
X124000000Y-60367500D01*
X124000000Y-60367500D02*
X116000000Y-60367500D01*
X117500000Y-53167500D02*
G75*
G02*
X115500000Y-53167500I-1000000J0D01*
G01*
X115500000Y-53167500D02*
G75*
G02*
X117500000Y-53167500I1000000J0D01*
G01*
X118500000Y-56367500D02*
G75*
G02*
X114500000Y-56367500I-2000000J0D01*
G01*
X114500000Y-56367500D02*
G75*
G02*
X118500000Y-56367500I2000000J0D01*
G01*
X122500000Y-53167500D02*
G75*
G02*
X120500000Y-53167500I-1000000J0D01*
G01*
X120500000Y-53167500D02*
G75*
G02*
X122500000Y-53167500I1000000J0D01*
G01*
X123500000Y-56367500D02*
G75*
G02*
X119500000Y-56367500I-2000000J0D01*
G01*
X119500000Y-56367500D02*
G75*
G02*
X123500000Y-56367500I2000000J0D01*
G01*
%TO.C,R27*%
X88823500Y-80690000D02*
X88823500Y-81350000D01*
X88823500Y-88310000D02*
X88823500Y-87650000D01*
X87573500Y-81350000D02*
X90073500Y-81350000D01*
X90073500Y-87650000D01*
X87573500Y-87650000D01*
X87573500Y-81350000D01*
%TO.C,J6*%
X90500000Y-51367500D02*
X100500000Y-51367500D01*
X90500000Y-58367500D02*
X90500000Y-51367500D01*
X90500000Y-58367500D02*
X100500000Y-58367500D01*
X92500000Y-60367500D02*
X90500000Y-58367500D01*
X94273000Y-54850500D02*
X91483000Y-57640500D01*
X94517000Y-55094500D02*
X91727000Y-57884500D01*
X99273000Y-54850500D02*
X96483000Y-57640500D01*
X99517000Y-55094500D02*
X96727000Y-57884500D01*
X100500000Y-51367500D02*
X100500000Y-60367500D01*
X100500000Y-60367500D02*
X92500000Y-60367500D01*
X94000000Y-53167500D02*
G75*
G02*
X92000000Y-53167500I-1000000J0D01*
G01*
X92000000Y-53167500D02*
G75*
G02*
X94000000Y-53167500I1000000J0D01*
G01*
X95000000Y-56367500D02*
G75*
G02*
X91000000Y-56367500I-2000000J0D01*
G01*
X91000000Y-56367500D02*
G75*
G02*
X95000000Y-56367500I2000000J0D01*
G01*
X99000000Y-53167500D02*
G75*
G02*
X97000000Y-53167500I-1000000J0D01*
G01*
X97000000Y-53167500D02*
G75*
G02*
X99000000Y-53167500I1000000J0D01*
G01*
X100000000Y-56367500D02*
G75*
G02*
X96000000Y-56367500I-2000000J0D01*
G01*
X96000000Y-56367500D02*
G75*
G02*
X100000000Y-56367500I2000000J0D01*
G01*
%TO.C,R13*%
X115500000Y-121000000D02*
X115500000Y-121660000D01*
X115500000Y-128620000D02*
X115500000Y-127960000D01*
X114250000Y-121660000D02*
X116750000Y-121660000D01*
X116750000Y-127960000D01*
X114250000Y-127960000D01*
X114250000Y-121660000D01*
%TO.C,SW2*%
X143750000Y-112250000D02*
X146850000Y-112250000D01*
X143750000Y-118250000D02*
X143750000Y-112250000D01*
X147250000Y-112650000D02*
X146850000Y-112250000D01*
X147250000Y-112650000D02*
X147250000Y-118250000D01*
X147250000Y-118250000D02*
X143750000Y-118250000D01*
%TO.C,R22*%
X77500000Y-123690000D02*
X77500000Y-124350000D01*
X77500000Y-131310000D02*
X77500000Y-130650000D01*
X76250000Y-124350000D02*
X78750000Y-124350000D01*
X78750000Y-130650000D01*
X76250000Y-130650000D01*
X76250000Y-124350000D01*
%TO.C,RV2*%
X119850000Y-103000000D02*
X126150000Y-103000000D01*
X126150000Y-106500000D01*
X119850000Y-106500000D01*
X119850000Y-103000000D01*
X122000000Y-103000000D02*
X124000000Y-103000000D01*
X124000000Y-106500000D01*
X122000000Y-106500000D01*
X122000000Y-103000000D01*
%TO.C,U4*%
X120325000Y-115920000D02*
X121325000Y-114920000D01*
X120325000Y-125080000D02*
X120325000Y-115920000D01*
X121325000Y-114920000D02*
X126675000Y-114920000D01*
X126675000Y-114920000D02*
X126675000Y-125080000D01*
X126675000Y-125080000D02*
X120325000Y-125080000D01*
X118420000Y-114860000D02*
X128580000Y-114860000D01*
X128580000Y-125140000D01*
X118420000Y-125140000D01*
X118420000Y-114860000D01*
%TO.C,DZ2*%
X66058800Y-82500000D02*
X66058800Y-86500000D01*
X66058800Y-85800000D02*
X68058800Y-85800000D01*
X66058800Y-85900000D02*
X68058800Y-85900000D01*
X66058800Y-86000000D02*
X68058800Y-86000000D01*
X66058800Y-86500000D02*
X68058800Y-86500000D01*
X67058800Y-80690000D02*
X67058800Y-82500000D01*
X67058800Y-88310000D02*
X67058800Y-86500000D01*
X68058800Y-82500000D02*
X66058800Y-82500000D01*
X68058800Y-86500000D02*
X68058800Y-82500000D01*
%TO.C,C7*%
X116587500Y-144866395D02*
X116587500Y-145366395D01*
X116837500Y-145116395D02*
X116337500Y-145116395D01*
X118000000Y-147000000D02*
G75*
G02*
X113000000Y-147000000I-2500000J0D01*
G01*
X113000000Y-147000000D02*
G75*
G02*
X118000000Y-147000000I2500000J0D01*
G01*
%TO.C,RV1*%
X135000000Y-114150000D02*
X137000000Y-114150000D01*
X137000000Y-117650000D01*
X135000000Y-117650000D01*
X135000000Y-114150000D01*
X132850000Y-114150000D02*
X139150000Y-114150000D01*
X139150000Y-117650000D01*
X132850000Y-117650000D01*
X132850000Y-114150000D01*
%TO.C,C4*%
X139911295Y-145412500D02*
X140411295Y-145412500D01*
X140161295Y-145162500D02*
X140161295Y-145662500D01*
X144544900Y-146500000D02*
G75*
G02*
X139544900Y-146500000I-2500000J0D01*
G01*
X139544900Y-146500000D02*
G75*
G02*
X144544900Y-146500000I2500000J0D01*
G01*
%TO.C,U3*%
X126790000Y-144000000D02*
X137390000Y-144000000D01*
X126790000Y-152500000D02*
X126790000Y-144000000D01*
X137390000Y-144000000D02*
X138390000Y-145000000D01*
X138390000Y-145000000D02*
X138390000Y-152500000D01*
X138390000Y-152500000D02*
X126790000Y-152500000D01*
%TO.C,R21*%
X72000000Y-123690000D02*
X72000000Y-124350000D01*
X72000000Y-131310000D02*
X72000000Y-130650000D01*
X70750000Y-124350000D02*
X73250000Y-124350000D01*
X73250000Y-130650000D01*
X70750000Y-130650000D01*
X70750000Y-124350000D01*
%TO.C,C3*%
X118250000Y-126000000D02*
X128750000Y-126000000D01*
X128750000Y-131000000D01*
X118250000Y-131000000D01*
X118250000Y-126000000D01*
%TO.C,R30*%
X114941200Y-80690000D02*
X114941200Y-81350000D01*
X114941200Y-88310000D02*
X114941200Y-87650000D01*
X113691200Y-81350000D02*
X116191200Y-81350000D01*
X116191200Y-87650000D01*
X113691200Y-87650000D01*
X113691200Y-81350000D01*
%TD*%
M02*
