M48
; DRILL file KiCad 10.0.4 date 2026-09-21T13:42:30
; FORMAT={-:-/ absolute / metric / decimal}
; #@! TF.CreationDate,2026-09-21T13:42:30+02:00
; #@! TF.GenerationSoftware,Kicad,Pcbnew,10.0.4
; #@! TF.FileFunction,Plated,1,2,PTH
FMAT,2
METRIC
; #@! TA.AperFunction,Plated,PTH,ViaDrill
T1C0.300
; #@! TA.AperFunction,Plated,PTH,ComponentDrill
T2C0.800
; #@! TA.AperFunction,Plated,PTH,ComponentDrill
T3C0.900
; #@! TA.AperFunction,Plated,PTH,ComponentDrill
T4C1.000
; #@! TA.AperFunction,Plated,PTH,ComponentDrill
T5C1.100
; #@! TA.AperFunction,Plated,PTH,ComponentDrill
T6C1.300
; #@! TA.AperFunction,Plated,PTH,ComponentDrill
T7C2.200
%
G90
G05
T1
X72.716Y-121.755
X74.405Y-108.265
X78.87Y-82.412
X85.529Y-104.324
X86.37Y-95.5
X87.641Y-110.34
X95.322Y-106.63
X99.404Y-109.0
X101.003Y-109.869
X102.133Y-62.094
X133.565Y-88.274
T2
X54.0Y-80.69
X54.0Y-88.31
X54.38Y-99.76
X54.38Y-102.3
X54.38Y-104.84
X54.38Y-107.38
X54.38Y-109.92
X54.38Y-112.46
X54.38Y-115.0
X54.38Y-117.54
X58.353Y-80.69
X58.353Y-88.31
X62.0Y-99.76
X62.0Y-102.3
X62.0Y-104.84
X62.0Y-107.38
X62.0Y-109.92
X62.0Y-112.46
X62.0Y-115.0
X62.0Y-117.54
X62.706Y-80.69
X62.706Y-88.31
X67.059Y-80.69
X67.059Y-88.31
X68.5Y-100.11
X68.5Y-102.65
X68.5Y-105.19
X68.5Y-107.73
X68.5Y-110.27
X68.5Y-112.81
X68.5Y-115.35
X68.5Y-117.89
X71.412Y-80.69
X71.412Y-88.31
X72.0Y-123.69
X72.0Y-131.31
X75.765Y-80.69
X75.765Y-88.31
X76.12Y-100.11
X76.12Y-102.65
X76.12Y-105.19
X76.12Y-107.73
X76.12Y-110.27
X76.12Y-112.81
X76.12Y-115.35
X76.12Y-117.89
X77.5Y-123.69
X77.5Y-131.31
X80.118Y-80.69
X80.118Y-88.31
X84.471Y-80.69
X84.471Y-88.31
X84.5Y-100.36
X84.5Y-102.9
X84.5Y-105.44
X84.5Y-107.98
X84.5Y-110.52
X84.5Y-113.06
X84.5Y-115.6
X84.5Y-118.14
X84.5Y-120.68
X84.5Y-123.22
X84.5Y-125.76
X84.5Y-128.3
X84.5Y-130.84
X84.5Y-133.38
X84.5Y-135.92
X84.5Y-138.46
X84.5Y-141.0
X84.5Y-143.54
X84.5Y-146.08
X88.823Y-80.69
X88.823Y-88.31
X93.176Y-80.69
X93.176Y-88.31
X97.529Y-80.69
X97.529Y-88.31
X101.882Y-80.69
X101.882Y-88.31
X106.235Y-80.69
X106.235Y-88.31
X109.896Y-143.537
X109.896Y-146.077
X109.9Y-100.36
X109.9Y-102.9
X109.9Y-105.44
X109.9Y-107.98
X109.9Y-110.52
X109.9Y-113.06
X109.9Y-115.6
X109.9Y-118.14
X109.9Y-120.68
X109.9Y-123.22
X109.9Y-125.76
X109.9Y-128.3
X109.9Y-130.84
X109.9Y-133.38
X109.9Y-135.92
X109.9Y-138.46
X109.9Y-141.0
X110.588Y-80.69
X110.588Y-88.31
X114.941Y-80.69
X114.941Y-88.31
X115.5Y-110.19
X115.5Y-117.81
X115.5Y-121.0
X115.5Y-128.62
X115.5Y-146.0
X115.5Y-148.0
X119.0Y-111.0
X119.294Y-80.69
X119.294Y-88.31
X119.69Y-116.19
X119.69Y-118.73
X119.69Y-121.27
X119.69Y-123.81
X123.0Y-146.045
X123.0Y-148.045
X123.647Y-80.69
X123.647Y-88.31
X126.62Y-111.0
X127.31Y-116.19
X127.31Y-118.73
X127.31Y-121.27
X127.31Y-123.81
X128.0Y-80.69
X128.0Y-88.31
X132.19Y-124.5
X132.38Y-121.0
X132.38Y-128.5
X132.5Y-92.96
X132.5Y-95.5
X132.5Y-98.04
X132.5Y-100.58
X132.5Y-103.12
X132.5Y-105.66
X132.5Y-108.2
X139.81Y-124.5
X140.0Y-121.0
X140.0Y-128.5
X140.12Y-92.96
X140.12Y-95.5
X140.12Y-98.04
X140.12Y-100.58
X140.12Y-103.12
X140.12Y-105.66
X140.12Y-108.2
X141.045Y-146.5
X143.045Y-146.5
T3
X120.5Y-106.5
X123.0Y-104.0
X125.5Y-106.5
X133.5Y-114.15
X136.0Y-116.65
X138.5Y-114.15
T4
X63.74Y-68.46
X63.74Y-71.0
X66.28Y-68.46
X66.28Y-71.0
X68.82Y-68.46
X68.82Y-71.0
X71.36Y-68.46
X71.36Y-71.0
X73.9Y-68.46
X73.9Y-71.0
X76.44Y-68.46
X76.44Y-71.0
X78.98Y-68.46
X78.98Y-71.0
X81.52Y-68.46
X81.52Y-71.0
X84.06Y-68.46
X84.06Y-71.0
X86.6Y-68.46
X86.6Y-71.0
X89.14Y-68.46
X89.14Y-71.0
X91.68Y-68.46
X91.68Y-71.0
X94.22Y-68.46
X94.22Y-71.0
X96.76Y-68.46
X96.76Y-71.0
X99.3Y-68.46
X99.3Y-71.0
X101.84Y-68.46
X101.84Y-71.0
X104.38Y-68.46
X104.38Y-71.0
X106.92Y-68.46
X106.92Y-71.0
X109.46Y-68.46
X109.46Y-71.0
X112.0Y-68.46
X112.0Y-71.0
X116.0Y-139.5
X121.0Y-128.5
X121.0Y-139.5
X126.0Y-128.5
X128.5Y-134.5
X128.5Y-139.5
X130.0Y-146.0
X132.54Y-146.0
X135.08Y-146.0
X135.5Y-134.5
X135.5Y-139.5
T5
X113.34Y-133.0
X123.5Y-133.0
T6
X56.5Y-131.0
X57.5Y-139.0
X57.5Y-144.0
X59.5Y-56.367
X64.5Y-56.367
X66.5Y-128.5
X66.5Y-133.5
X67.5Y-141.5
X70.5Y-56.367
X70.5Y-139.495
X70.5Y-144.495
X75.5Y-56.367
X80.5Y-141.995
X82.0Y-56.367
X87.0Y-56.367
X93.0Y-56.367
X98.0Y-56.367
X105.0Y-56.367
X110.0Y-56.367
X116.5Y-56.367
X121.5Y-56.367
X128.0Y-56.367
X133.0Y-56.367
X145.368Y-58.5
X145.368Y-63.5
X145.368Y-70.0
X145.368Y-75.0
X145.368Y-81.5
X145.368Y-86.5
X145.368Y-134.5
X145.368Y-139.5
X145.5Y-112.0
X145.5Y-118.5
T7
X53.0Y-53.0
X53.0Y-148.0
X148.0Y-53.0
X148.0Y-148.0
M30
