%TF.GenerationSoftware,KiCad,Pcbnew,10.0.4*%
%TF.CreationDate,2026-09-21T13:39:24+02:00*%
%TF.ProjectId,Engine Simulator 2.0,456e6769-6e65-4205-9369-6d756c61746f,rev?*%
%TF.SameCoordinates,Original*%
%TF.FileFunction,Soldermask,Top*%
%TF.FilePolarity,Negative*%
%FSLAX46Y46*%
G04 Gerber Fmt 4.6, Leading zero omitted, Abs format (unit mm)*
G04 Created by KiCad (PCBNEW 10.0.4) date 2026-09-21 13:39:24*
%MOMM*%
%LPD*%
G01*
G04 APERTURE LIST*
G04 Aperture macros list*
%AMRoundRect*
0 Rectangle with rounded corners*
0 $1 Rounding radius*
0 $2 $3 $4 $5 $6 $7 $8 $9 X,Y pos of 4 corners*
0 Add a 4 corners polygon primitive as box body*
4,1,4,$2,$3,$4,$5,$6,$7,$8,$9,$2,$3,0*
0 Add four circle primitives for the rounded corners*
1,1,$1+$1,$2,$3*
1,1,$1+$1,$4,$5*
1,1,$1+$1,$6,$7*
1,1,$1+$1,$8,$9*
0 Add four rect primitives between the rounded corners*
20,1,$1+$1,$2,$3,$4,$5,0*
20,1,$1+$1,$4,$5,$6,$7,0*
20,1,$1+$1,$6,$7,$8,$9,0*
20,1,$1+$1,$8,$9,$2,$3,0*%
G04 Aperture macros list end*
%ADD10R,1.600000X1.600000*%
%ADD11C,1.600000*%
%ADD12O,1.600000X1.600000*%
%ADD13C,2.000000*%
%ADD14RoundRect,0.249999X-1.250001X-1.250001X1.250001X-1.250001X1.250001X1.250001X-1.250001X1.250001X0*%
%ADD15C,3.000000*%
%ADD16C,2.340000*%
%ADD17RoundRect,0.249999X1.250001X-1.250001X1.250001X1.250001X-1.250001X1.250001X-1.250001X-1.250001X0*%
%ADD18C,3.800000*%
%ADD19RoundRect,0.250000X0.950000X0.550000X-0.950000X0.550000X-0.950000X-0.550000X0.950000X-0.550000X0*%
%ADD20O,2.400000X1.600000*%
%ADD21RoundRect,0.250000X-0.600000X0.600000X-0.600000X-0.600000X0.600000X-0.600000X0.600000X0.600000X0*%
%ADD22C,1.700000*%
%ADD23RoundRect,0.249999X-0.850001X-0.850001X0.850001X-0.850001X0.850001X0.850001X-0.850001X0.850001X0*%
%ADD24C,2.200000*%
%ADD25RoundRect,0.250000X-0.950000X-0.550000X0.950000X-0.550000X0.950000X0.550000X-0.950000X0.550000X0*%
%ADD26R,1.500000X2.300000*%
%ADD27O,1.500000X2.300000*%
%ADD28R,2.000000X1.200000*%
%ADD29O,2.000000X1.200000*%
%ADD30R,2.250000X2.250000*%
%ADD31C,2.250000*%
%ADD32C,1.620000*%
G04 APERTURE END LIST*
D10*
%TO.C,C5*%
X123000000Y-146044900D03*
D11*
X123000000Y-148044900D03*
%TD*%
D10*
%TO.C,DZ9*%
X128000000Y-88310000D03*
D12*
X128000000Y-80690000D03*
%TD*%
D10*
%TO.C,DZ8*%
X119294100Y-88310000D03*
D12*
X119294100Y-80690000D03*
%TD*%
D13*
%TO.C,C2*%
X128500000Y-139500000D03*
X128500000Y-134500000D03*
%TD*%
%TO.C,C6*%
X116000000Y-139500000D03*
X121000000Y-139500000D03*
%TD*%
D14*
%TO.C,J3*%
X59500000Y-56367500D03*
D15*
X64500000Y-56367500D03*
%TD*%
D16*
%TO.C,RV5*%
X70500000Y-144495000D03*
X80500000Y-141995000D03*
X70500000Y-139495000D03*
%TD*%
D11*
%TO.C,R29*%
X106235300Y-80690000D03*
X106235300Y-88310000D03*
%TD*%
%TO.C,R31*%
X123647100Y-80690000D03*
X123647100Y-88310000D03*
%TD*%
D10*
%TO.C,DZ3*%
X75764700Y-88310000D03*
D12*
X75764700Y-80690000D03*
%TD*%
D11*
%TO.C,R15*%
X119000000Y-111000000D03*
X126620000Y-111000000D03*
%TD*%
D17*
%TO.C,J2*%
X145367500Y-139500000D03*
D15*
X145367500Y-134500000D03*
%TD*%
D18*
%TO.C,MH1*%
X148000000Y-53000000D03*
%TD*%
D19*
%TO.C,U6*%
X76120000Y-117890000D03*
D20*
X76120000Y-115350000D03*
X76120000Y-112810000D03*
X76120000Y-110270000D03*
X76120000Y-107730000D03*
X76120000Y-105190000D03*
X76120000Y-102650000D03*
X76120000Y-100110000D03*
X68500000Y-100110000D03*
X68500000Y-102650000D03*
X68500000Y-105190000D03*
X68500000Y-107730000D03*
X68500000Y-110270000D03*
X68500000Y-112810000D03*
X68500000Y-115350000D03*
X68500000Y-117890000D03*
%TD*%
D21*
%TO.C,J1*%
X112000000Y-68460000D03*
D22*
X112000000Y-71000000D03*
X109460000Y-68460000D03*
X109460000Y-71000000D03*
X106920000Y-68460000D03*
X106920000Y-71000000D03*
X104380000Y-68460000D03*
X104380000Y-71000000D03*
X101840000Y-68460000D03*
X101840000Y-71000000D03*
X99300000Y-68460000D03*
X99300000Y-71000000D03*
X96760000Y-68460000D03*
X96760000Y-71000000D03*
X94220000Y-68460000D03*
X94220000Y-71000000D03*
X91680000Y-68460000D03*
X91680000Y-71000000D03*
X89140000Y-68460000D03*
X89140000Y-71000000D03*
X86600000Y-68460000D03*
X86600000Y-71000000D03*
X84060000Y-68460000D03*
X84060000Y-71000000D03*
X81520000Y-68460000D03*
X81520000Y-71000000D03*
X78980000Y-68460000D03*
X78980000Y-71000000D03*
X76440000Y-68460000D03*
X76440000Y-71000000D03*
X73900000Y-68460000D03*
X73900000Y-71000000D03*
X71360000Y-68460000D03*
X71360000Y-71000000D03*
X68820000Y-68460000D03*
X68820000Y-71000000D03*
X66280000Y-68460000D03*
X66280000Y-71000000D03*
X63740000Y-68460000D03*
X63740000Y-71000000D03*
%TD*%
D11*
%TO.C,R28*%
X97529400Y-80690000D03*
X97529400Y-88310000D03*
%TD*%
%TO.C,R14*%
X132380000Y-128500000D03*
X140000000Y-128500000D03*
%TD*%
D10*
%TO.C,DZ1*%
X58352900Y-88310000D03*
D12*
X58352900Y-80690000D03*
%TD*%
D14*
%TO.C,J5*%
X82000000Y-56367500D03*
D15*
X87000000Y-56367500D03*
%TD*%
D23*
%TO.C,D13*%
X113340000Y-133000000D03*
D24*
X123500000Y-133000000D03*
%TD*%
D25*
%TO.C,U2*%
X132500000Y-92960000D03*
D20*
X132500000Y-95500000D03*
X132500000Y-98040000D03*
X132500000Y-100580000D03*
X132500000Y-103120000D03*
X132500000Y-105660000D03*
X132500000Y-108200000D03*
X140120000Y-108200000D03*
X140120000Y-105660000D03*
X140120000Y-103120000D03*
X140120000Y-100580000D03*
X140120000Y-98040000D03*
X140120000Y-95500000D03*
X140120000Y-92960000D03*
%TD*%
D26*
%TO.C,U3*%
X135080000Y-146000000D03*
D27*
X132540000Y-146000000D03*
X130000000Y-146000000D03*
%TD*%
D11*
%TO.C,R17*%
X140000000Y-121000000D03*
X132380000Y-121000000D03*
%TD*%
%TO.C,R25*%
X71411800Y-80690000D03*
X71411800Y-88310000D03*
%TD*%
%TO.C,R16*%
X115500000Y-117810000D03*
X115500000Y-110190000D03*
%TD*%
D17*
%TO.C,J10*%
X145367500Y-86500000D03*
D15*
X145367500Y-81500000D03*
%TD*%
D10*
%TO.C,DZ4*%
X84470600Y-88310000D03*
D12*
X84470600Y-80690000D03*
%TD*%
D13*
%TO.C,C1*%
X135500000Y-139500000D03*
X135500000Y-134500000D03*
%TD*%
D18*
%TO.C,MH2*%
X53000000Y-53000000D03*
%TD*%
D10*
%TO.C,DZ5*%
X93176500Y-88310000D03*
D12*
X93176500Y-80690000D03*
%TD*%
D14*
%TO.C,J12*%
X128000000Y-56367500D03*
D15*
X133000000Y-56367500D03*
%TD*%
D17*
%TO.C,J11*%
X145367500Y-63500000D03*
D15*
X145367500Y-58500000D03*
%TD*%
D19*
%TO.C,U5*%
X62000000Y-117540000D03*
D20*
X62000000Y-115000000D03*
X62000000Y-112460000D03*
X62000000Y-109920000D03*
X62000000Y-107380000D03*
X62000000Y-104840000D03*
X62000000Y-102300000D03*
X62000000Y-99760000D03*
X54380000Y-99760000D03*
X54380000Y-102300000D03*
X54380000Y-104840000D03*
X54380000Y-107380000D03*
X54380000Y-109920000D03*
X54380000Y-112460000D03*
X54380000Y-115000000D03*
X54380000Y-117540000D03*
%TD*%
D11*
%TO.C,R23*%
X54000000Y-80690000D03*
X54000000Y-88310000D03*
%TD*%
D14*
%TO.C,J4*%
X70500000Y-56367500D03*
D15*
X75500000Y-56367500D03*
%TD*%
D11*
%TO.C,R26*%
X80117600Y-80690000D03*
X80117600Y-88310000D03*
%TD*%
D16*
%TO.C,RV3*%
X66500000Y-128500000D03*
X56500000Y-131000000D03*
X66500000Y-133500000D03*
%TD*%
D10*
%TO.C,DZ7*%
X110588200Y-88310000D03*
D12*
X110588200Y-80690000D03*
%TD*%
D28*
%TO.C,U1*%
X84500000Y-100360000D03*
D29*
X84500000Y-102900000D03*
X84500000Y-105440000D03*
X84500000Y-107980000D03*
X84500000Y-110520000D03*
X84500000Y-113060000D03*
X84500000Y-115600000D03*
X84500000Y-118140000D03*
X84500000Y-120680000D03*
X84500000Y-123220000D03*
X84500000Y-125760000D03*
X84500000Y-128300000D03*
X84500000Y-130840000D03*
X84500000Y-133380000D03*
X84500000Y-135920000D03*
X84500000Y-138460000D03*
X84500000Y-141000000D03*
X84500000Y-143540000D03*
X84500000Y-146080000D03*
X109896320Y-146077280D03*
X109896320Y-143537280D03*
X109900000Y-141000000D03*
X109900000Y-138460000D03*
X109900000Y-135920000D03*
X109900000Y-133380000D03*
X109900000Y-130840000D03*
X109900000Y-128300000D03*
X109900000Y-125760000D03*
X109900000Y-123220000D03*
X109900000Y-120680000D03*
X109900000Y-118140000D03*
X109900000Y-115600000D03*
X109900000Y-113060000D03*
X109900000Y-110520000D03*
X109900000Y-107980000D03*
X109900000Y-105440000D03*
X109900000Y-102900000D03*
X109900000Y-100360000D03*
%TD*%
D10*
%TO.C,DZ6*%
X101882400Y-88310000D03*
D12*
X101882400Y-80690000D03*
%TD*%
D14*
%TO.C,J7*%
X105000000Y-56367500D03*
D15*
X110000000Y-56367500D03*
%TD*%
D16*
%TO.C,RV4*%
X57500000Y-144000000D03*
X67500000Y-141500000D03*
X57500000Y-139000000D03*
%TD*%
D11*
%TO.C,R18*%
X132190000Y-124500000D03*
X139810000Y-124500000D03*
%TD*%
D17*
%TO.C,J9*%
X145367500Y-75000000D03*
D15*
X145367500Y-70000000D03*
%TD*%
D11*
%TO.C,R24*%
X62705900Y-80690000D03*
X62705900Y-88310000D03*
%TD*%
D14*
%TO.C,J8*%
X116500000Y-56367500D03*
D15*
X121500000Y-56367500D03*
%TD*%
D11*
%TO.C,R27*%
X88823500Y-80690000D03*
X88823500Y-88310000D03*
%TD*%
D14*
%TO.C,J6*%
X93000000Y-56367500D03*
D15*
X98000000Y-56367500D03*
%TD*%
D18*
%TO.C,MH3*%
X53000000Y-148000000D03*
%TD*%
D11*
%TO.C,R13*%
X115500000Y-121000000D03*
X115500000Y-128620000D03*
%TD*%
D30*
%TO.C,SW2*%
X145500000Y-112000000D03*
D31*
X145500000Y-118500000D03*
%TD*%
D11*
%TO.C,R22*%
X77500000Y-123690000D03*
X77500000Y-131310000D03*
%TD*%
D32*
%TO.C,RV2*%
X120500000Y-106500000D03*
X123000000Y-104000000D03*
X125500000Y-106500000D03*
%TD*%
D25*
%TO.C,U4*%
X119690000Y-116190000D03*
D20*
X119690000Y-118730000D03*
X119690000Y-121270000D03*
X119690000Y-123810000D03*
X127310000Y-123810000D03*
X127310000Y-121270000D03*
X127310000Y-118730000D03*
X127310000Y-116190000D03*
%TD*%
D10*
%TO.C,DZ2*%
X67058800Y-88310000D03*
D12*
X67058800Y-80690000D03*
%TD*%
D18*
%TO.C,MH4*%
X148000000Y-148000000D03*
%TD*%
D10*
%TO.C,C7*%
X115500000Y-146000000D03*
D11*
X115500000Y-148000000D03*
%TD*%
D32*
%TO.C,RV1*%
X138500000Y-114150000D03*
X136000000Y-116650000D03*
X133500000Y-114150000D03*
%TD*%
D10*
%TO.C,C4*%
X141044900Y-146500000D03*
D11*
X143044900Y-146500000D03*
%TD*%
%TO.C,R21*%
X72000000Y-131310000D03*
X72000000Y-123690000D03*
%TD*%
D13*
%TO.C,C3*%
X126000000Y-128500000D03*
X121000000Y-128500000D03*
%TD*%
D11*
%TO.C,R30*%
X114941200Y-80690000D03*
X114941200Y-88310000D03*
%TD*%
M02*
