%TF.GenerationSoftware,KiCad,Pcbnew,10.0.4*%
%TF.CreationDate,2026-09-21T13:39:24+02:00*%
%TF.ProjectId,Engine Simulator 2.0,456e6769-6e65-4205-9369-6d756c61746f,rev?*%
%TF.SameCoordinates,Original*%
%TF.FileFunction,Copper,L1,Top*%
%TF.FilePolarity,Positive*%
%FSLAX46Y46*%
G04 Gerber Fmt 4.6, Leading zero omitted, Abs format (unit mm)*
G04 Created by KiCad (PCBNEW 10.0.4) date 2026-09-21 13:39:24*
%MOMM*%
%LPD*%
G01*
G04 APERTURE LIST*
G04 Aperture macros list*
%AMRoundRect*
0 Rectangle with rounded corners*
0 $1 Rounding radius*
0 $2 $3 $4 $5 $6 $7 $8 $9 X,Y pos of 4 corners*
0 Add a 4 corners polygon primitive as box body*
4,1,4,$2,$3,$4,$5,$6,$7,$8,$9,$2,$3,0*
0 Add four circle primitives for the rounded corners*
1,1,$1+$1,$2,$3*
1,1,$1+$1,$4,$5*
1,1,$1+$1,$6,$7*
1,1,$1+$1,$8,$9*
0 Add four rect primitives between the rounded corners*
20,1,$1+$1,$2,$3,$4,$5,0*
20,1,$1+$1,$4,$5,$6,$7,0*
20,1,$1+$1,$6,$7,$8,$9,0*
20,1,$1+$1,$8,$9,$2,$3,0*%
G04 Aperture macros list end*
%TA.AperFunction,ComponentPad*%
%ADD10R,1.600000X1.600000*%
%TD*%
%TA.AperFunction,ComponentPad*%
%ADD11C,1.600000*%
%TD*%
%TA.AperFunction,ComponentPad*%
%ADD12O,1.600000X1.600000*%
%TD*%
%TA.AperFunction,ComponentPad*%
%ADD13C,2.000000*%
%TD*%
%TA.AperFunction,ComponentPad*%
%ADD14RoundRect,0.249999X-1.250001X-1.250001X1.250001X-1.250001X1.250001X1.250001X-1.250001X1.250001X0*%
%TD*%
%TA.AperFunction,ComponentPad*%
%ADD15C,3.000000*%
%TD*%
%TA.AperFunction,ComponentPad*%
%ADD16C,2.340000*%
%TD*%
%TA.AperFunction,ComponentPad*%
%ADD17RoundRect,0.249999X1.250001X-1.250001X1.250001X1.250001X-1.250001X1.250001X-1.250001X-1.250001X0*%
%TD*%
%TA.AperFunction,ComponentPad*%
%ADD18C,3.800000*%
%TD*%
%TA.AperFunction,ComponentPad*%
%ADD19RoundRect,0.250000X0.950000X0.550000X-0.950000X0.550000X-0.950000X-0.550000X0.950000X-0.550000X0*%
%TD*%
%TA.AperFunction,ComponentPad*%
%ADD20O,2.400000X1.600000*%
%TD*%
%TA.AperFunction,ComponentPad*%
%ADD21RoundRect,0.250000X-0.600000X0.600000X-0.600000X-0.600000X0.600000X-0.600000X0.600000X0.600000X0*%
%TD*%
%TA.AperFunction,ComponentPad*%
%ADD22C,1.700000*%
%TD*%
%TA.AperFunction,ComponentPad*%
%ADD23RoundRect,0.249999X-0.850001X-0.850001X0.850001X-0.850001X0.850001X0.850001X-0.850001X0.850001X0*%
%TD*%
%TA.AperFunction,ComponentPad*%
%ADD24C,2.200000*%
%TD*%
%TA.AperFunction,ComponentPad*%
%ADD25RoundRect,0.250000X-0.950000X-0.550000X0.950000X-0.550000X0.950000X0.550000X-0.950000X0.550000X0*%
%TD*%
%TA.AperFunction,ComponentPad*%
%ADD26R,1.500000X2.300000*%
%TD*%
%TA.AperFunction,ComponentPad*%
%ADD27O,1.500000X2.300000*%
%TD*%
%TA.AperFunction,ComponentPad*%
%ADD28R,2.000000X1.200000*%
%TD*%
%TA.AperFunction,ComponentPad*%
%ADD29O,2.000000X1.200000*%
%TD*%
%TA.AperFunction,ComponentPad*%
%ADD30R,2.250000X2.250000*%
%TD*%
%TA.AperFunction,ComponentPad*%
%ADD31C,2.250000*%
%TD*%
%TA.AperFunction,ComponentPad*%
%ADD32C,1.620000*%
%TD*%
%TA.AperFunction,ViaPad*%
%ADD33C,0.600000*%
%TD*%
%TA.AperFunction,Conductor*%
%ADD34C,0.350000*%
%TD*%
%TA.AperFunction,Conductor*%
%ADD35C,0.200000*%
%TD*%
G04 APERTURE END LIST*
D10*
%TO.P,C5,1*%
%TO.N,+5V*%
X123000000Y-146044900D03*
D11*
%TO.P,C5,2*%
%TO.N,GND*%
X123000000Y-148044900D03*
%TD*%
D10*
%TO.P,DZ9,1,K_1*%
%TO.N,Net-(DZ9-K)*%
X128000000Y-88310000D03*
D12*
%TO.P,DZ9,2,A_2*%
%TO.N,GND*%
X128000000Y-80690000D03*
%TD*%
D10*
%TO.P,DZ8,1,K_1*%
%TO.N,Net-(DZ8-K)*%
X119294100Y-88310000D03*
D12*
%TO.P,DZ8,2,A_2*%
%TO.N,GND*%
X119294100Y-80690000D03*
%TD*%
D13*
%TO.P,C2,1*%
%TO.N,+5V*%
X128500000Y-139500000D03*
%TO.P,C2,2*%
%TO.N,GND*%
X128500000Y-134500000D03*
%TD*%
%TO.P,C6,1*%
%TO.N,Net-(D13-K)*%
X116000000Y-139500000D03*
%TO.P,C6,2*%
%TO.N,GND*%
X121000000Y-139500000D03*
%TD*%
D14*
%TO.P,J3,1,Pin_1_1*%
%TO.N,/IGN1*%
X59500000Y-56367500D03*
D15*
%TO.P,J3,2,Pin_2_2*%
%TO.N,/IGN2*%
X64500000Y-56367500D03*
%TD*%
D16*
%TO.P,RV5,1,1_1*%
%TO.N,+5V*%
X70500000Y-144495000D03*
%TO.P,RV5,2,2_2*%
X80500000Y-141995000D03*
%TO.P,RV5,3,3_3*%
%TO.N,/IAT*%
X70500000Y-139495000D03*
%TD*%
D11*
%TO.P,R29,1*%
%TO.N,/INJ3*%
X106235300Y-80690000D03*
%TO.P,R29,2*%
%TO.N,Net-(DZ7-K)*%
X106235300Y-88310000D03*
%TD*%
%TO.P,R31,1*%
%TO.N,/FAN*%
X123647100Y-80690000D03*
%TO.P,R31,2*%
%TO.N,Net-(DZ9-K)*%
X123647100Y-88310000D03*
%TD*%
D10*
%TO.P,DZ3,1,K_1*%
%TO.N,Net-(DZ3-K)*%
X75764700Y-88310000D03*
D12*
%TO.P,DZ3,2,A_2*%
%TO.N,GND*%
X75764700Y-80690000D03*
%TD*%
D11*
%TO.P,R15,1*%
%TO.N,/MAP*%
X119000000Y-111000000D03*
%TO.P,R15,2*%
%TO.N,Net-(U4A--)*%
X126620000Y-111000000D03*
%TD*%
D17*
%TO.P,J2,1,Pin_1_1*%
%TO.N,+12V*%
X145367500Y-139500000D03*
D15*
%TO.P,J2,2,Pin_2_2*%
%TO.N,GND*%
X145367500Y-134500000D03*
%TD*%
D18*
%TO.P,MH1,1*%
%TO.N,GND*%
X148000000Y-53000000D03*
%TD*%
D19*
%TO.P,U6,1,VCC_1*%
%TO.N,+3V3*%
X76120000Y-117890000D03*
D20*
%TO.P,U6,2,G=A_2*%
%TO.N,unconnected-(U6-G=A-Pad2)*%
X76120000Y-115350000D03*
%TO.P,U6,3,A_3*%
%TO.N,unconnected-(U6-A-Pad3)*%
X76120000Y-112810000D03*
%TO.P,U6,4,H=B_4*%
%TO.N,Net-(U1-MTDO{slash}GPIO15{slash}ADC2_CH3)*%
X76120000Y-110270000D03*
%TO.P,U6,5,B_5*%
%TO.N,Net-(DZ5-K)*%
X76120000Y-107730000D03*
%TO.P,U6,6,I=C_6*%
%TO.N,Net-(U1-GPIO16)*%
X76120000Y-105190000D03*
%TO.P,U6,7,C_7*%
%TO.N,Net-(DZ6-K)*%
X76120000Y-102650000D03*
%TO.P,U6,8,VSS_8*%
%TO.N,GND*%
X76120000Y-100110000D03*
%TO.P,U6,9,D_9*%
%TO.N,Net-(DZ7-K)*%
X68500000Y-100110000D03*
%TO.P,U6,10,J=D_10*%
%TO.N,Net-(U1-GPIO17)*%
X68500000Y-102650000D03*
%TO.P,U6,11,E_11*%
%TO.N,Net-(DZ8-K)*%
X68500000Y-105190000D03*
%TO.P,U6,12,K=E_12*%
%TO.N,Net-(U1-GPIO18)*%
X68500000Y-107730000D03*
%TO.P,U6,13,NC_13*%
%TO.N,unconnected-(U6-NC-Pad13)*%
X68500000Y-110270000D03*
%TO.P,U6,14,F_14*%
%TO.N,unconnected-(U6-F-Pad14)*%
X68500000Y-112810000D03*
%TO.P,U6,15,L=F_15*%
%TO.N,unconnected-(U6-L=F-Pad15)*%
X68500000Y-115350000D03*
%TO.P,U6,16,NC_16*%
%TO.N,unconnected-(U6-NC-Pad16)*%
X68500000Y-117890000D03*
%TD*%
D21*
%TO.P,J1,1,Pin_1_1*%
%TO.N,/INJ1*%
X112000000Y-68460000D03*
D22*
%TO.P,J1,2,Pin_2_2*%
%TO.N,/INJ2*%
X112000000Y-71000000D03*
%TO.P,J1,3,Pin_3_3*%
%TO.N,/INJ3*%
X109460000Y-68460000D03*
%TO.P,J1,4,Pin_4_4*%
%TO.N,unconnected-(J1-Pin_4-Pad4)*%
X109460000Y-71000000D03*
%TO.P,J1,5,Pin_5_5*%
%TO.N,/INJ4*%
X106920000Y-68460000D03*
%TO.P,J1,6,Pin_6_6*%
%TO.N,unconnected-(J1-Pin_6-Pad6)*%
X106920000Y-71000000D03*
%TO.P,J1,7,Pin_7_7*%
%TO.N,/IGN1*%
X104380000Y-68460000D03*
%TO.P,J1,8,Pin_8_8*%
%TO.N,/IGN4*%
X104380000Y-71000000D03*
%TO.P,J1,9,Pin_9_9*%
%TO.N,GND*%
X101840000Y-68460000D03*
%TO.P,J1,10,Pin_10_10*%
X101840000Y-71000000D03*
%TO.P,J1,11,Pin_11_11*%
%TO.N,/MAP*%
X99300000Y-68460000D03*
%TO.P,J1,12,Pin_12_12*%
%TO.N,GND*%
X99300000Y-71000000D03*
%TO.P,J1,13,Pin_13_13*%
%TO.N,/5V*%
X96760000Y-68460000D03*
%TO.P,J1,14,Pin_14_14*%
%TO.N,/FLEX SENS*%
X96760000Y-71000000D03*
%TO.P,J1,15,Pin_15_15*%
%TO.N,/FAN*%
X94220000Y-68460000D03*
%TO.P,J1,16,Pin_16_16*%
%TO.N,/FPUMP*%
X94220000Y-71000000D03*
%TO.P,J1,17,Pin_17_17*%
%TO.N,/TACH*%
X91680000Y-68460000D03*
%TO.P,J1,18,Pin_18_18*%
%TO.N,/CLUTCH*%
X91680000Y-71000000D03*
%TO.P,J1,19,Pin_19_19*%
%TO.N,/CLT*%
X89140000Y-68460000D03*
%TO.P,J1,20,Pin_20_20*%
%TO.N,/IAT*%
X89140000Y-71000000D03*
%TO.P,J1,21,Pin_21_21*%
%TO.N,/O2*%
X86600000Y-68460000D03*
%TO.P,J1,22,Pin_22_22*%
%TO.N,/TPS*%
X86600000Y-71000000D03*
%TO.P,J1,23,Pin_23_23*%
%TO.N,GND*%
X84060000Y-68460000D03*
%TO.P,J1,24,Pin_24_24*%
%TO.N,/CAM1*%
X84060000Y-71000000D03*
%TO.P,J1,25,Pin_25_25*%
%TO.N,/CRANK*%
X81520000Y-68460000D03*
%TO.P,J1,26,Pin_26_26*%
%TO.N,/VR2-*%
X81520000Y-71000000D03*
%TO.P,J1,27,Pin_27_27*%
%TO.N,/VR1 -*%
X78980000Y-68460000D03*
%TO.P,J1,28,Pin_28_28*%
%TO.N,/5V*%
X78980000Y-71000000D03*
%TO.P,J1,29,Pin_29_29*%
%TO.N,/ILDE Stepper 2B*%
X76440000Y-68460000D03*
%TO.P,J1,30,Pin_30_30*%
%TO.N,/IDLE STEP 2A*%
X76440000Y-71000000D03*
%TO.P,J1,31,Pin_31_31*%
%TO.N,/IDLE STEP 1A*%
X73900000Y-68460000D03*
%TO.P,J1,32,Pin_32_32*%
%TO.N,/IDLE STEP 1B*%
X73900000Y-71000000D03*
%TO.P,J1,33,Pin_33_33*%
%TO.N,/IGN3*%
X71360000Y-68460000D03*
%TO.P,J1,34,Pin_34_34*%
%TO.N,/IGN2*%
X71360000Y-71000000D03*
%TO.P,J1,35,Pin_35_35*%
%TO.N,/BOOST*%
X68820000Y-68460000D03*
%TO.P,J1,36,Pin_36_36*%
%TO.N,/IDLE2*%
X68820000Y-71000000D03*
%TO.P,J1,37,Pin_37_37*%
%TO.N,/IDLE*%
X66280000Y-68460000D03*
%TO.P,J1,38,Pin_38_38*%
%TO.N,/VVT*%
X66280000Y-71000000D03*
%TO.P,J1,39,Pin_39_39*%
%TO.N,/INJ6*%
X63740000Y-68460000D03*
%TO.P,J1,40,Pin_40_40*%
%TO.N,/INJ5*%
X63740000Y-71000000D03*
%TD*%
D11*
%TO.P,R28,1*%
%TO.N,/INJ2*%
X97529400Y-80690000D03*
%TO.P,R28,2*%
%TO.N,Net-(DZ6-K)*%
X97529400Y-88310000D03*
%TD*%
%TO.P,R14,1*%
%TO.N,Net-(U1-DAC_2{slash}ADC2_CH9{slash}GPIO26)*%
X132380000Y-128500000D03*
%TO.P,R14,2*%
%TO.N,GND*%
X140000000Y-128500000D03*
%TD*%
D10*
%TO.P,DZ1,1,K_1*%
%TO.N,Net-(DZ1-K)*%
X58352900Y-88310000D03*
D12*
%TO.P,DZ1,2,A_2*%
%TO.N,GND*%
X58352900Y-80690000D03*
%TD*%
D14*
%TO.P,J5,1,Pin_1_1*%
%TO.N,/INJ1*%
X82000000Y-56367500D03*
D15*
%TO.P,J5,2,Pin_2_2*%
%TO.N,/INJ2*%
X87000000Y-56367500D03*
%TD*%
D23*
%TO.P,D13,1,K_1*%
%TO.N,Net-(D13-K)*%
X113340000Y-133000000D03*
D24*
%TO.P,D13,2,A_2*%
%TO.N,+5V*%
X123500000Y-133000000D03*
%TD*%
D25*
%TO.P,U2,1*%
%TO.N,GND*%
X132500000Y-92960000D03*
D20*
%TO.P,U2,2*%
%TO.N,Net-(U1-MTCK{slash}GPIO13{slash}ADC2_CH4)*%
X132500000Y-95500000D03*
%TO.P,U2,3*%
%TO.N,/CAM1*%
X132500000Y-98040000D03*
%TO.P,U2,4*%
%TO.N,GND*%
X132500000Y-100580000D03*
%TO.P,U2,5*%
%TO.N,Net-(U1-MTDI{slash}GPIO12{slash}ADC2_CH5)*%
X132500000Y-103120000D03*
%TO.P,U2,6*%
%TO.N,/CRANK*%
X132500000Y-105660000D03*
%TO.P,U2,7,GND_7*%
%TO.N,GND*%
X132500000Y-108200000D03*
%TO.P,U2,8*%
%TO.N,/CAM2*%
X140120000Y-108200000D03*
%TO.P,U2,9*%
%TO.N,Net-(U1-MTMS{slash}GPIO14{slash}ADC2_CH6)*%
X140120000Y-105660000D03*
%TO.P,U2,10*%
%TO.N,GND*%
X140120000Y-103120000D03*
%TO.P,U2,11*%
%TO.N,N/C*%
X140120000Y-100580000D03*
%TO.P,U2,12*%
X140120000Y-98040000D03*
%TO.P,U2,13*%
X140120000Y-95500000D03*
%TO.P,U2,14,VCC_14*%
%TO.N,+5V*%
X140120000Y-92960000D03*
%TD*%
D26*
%TO.P,U3,1,IN_1*%
%TO.N,+12V*%
X135080000Y-146000000D03*
D27*
%TO.P,U3,2,GND_2*%
%TO.N,GND*%
X132540000Y-146000000D03*
%TO.P,U3,3,OUT_3*%
%TO.N,+5V*%
X130000000Y-146000000D03*
%TD*%
D11*
%TO.P,R17,1*%
%TO.N,/CLT*%
X140000000Y-121000000D03*
%TO.P,R17,2*%
%TO.N,Net-(U4B--)*%
X132380000Y-121000000D03*
%TD*%
%TO.P,R25,1*%
%TO.N,/IGN3*%
X71411800Y-80690000D03*
%TO.P,R25,2*%
%TO.N,Net-(DZ3-K)*%
X71411800Y-88310000D03*
%TD*%
%TO.P,R16,1*%
%TO.N,Net-(U4A--)*%
X115500000Y-117810000D03*
%TO.P,R16,2*%
%TO.N,GND*%
X115500000Y-110190000D03*
%TD*%
D17*
%TO.P,J10,1,Pin_1_1*%
%TO.N,GND*%
X145367500Y-86500000D03*
D15*
%TO.P,J10,2,Pin_2_2*%
%TO.N,/CRANK*%
X145367500Y-81500000D03*
%TD*%
D10*
%TO.P,DZ4,1,K_1*%
%TO.N,Net-(DZ4-K)*%
X84470600Y-88310000D03*
D12*
%TO.P,DZ4,2,A_2*%
%TO.N,GND*%
X84470600Y-80690000D03*
%TD*%
D13*
%TO.P,C1,1*%
%TO.N,+12V*%
X135500000Y-139500000D03*
%TO.P,C1,2*%
%TO.N,GND*%
X135500000Y-134500000D03*
%TD*%
D18*
%TO.P,MH2,1*%
%TO.N,GND*%
X53000000Y-53000000D03*
%TD*%
D10*
%TO.P,DZ5,1,K_1*%
%TO.N,Net-(DZ5-K)*%
X93176500Y-88310000D03*
D12*
%TO.P,DZ5,2,A_2*%
%TO.N,GND*%
X93176500Y-80690000D03*
%TD*%
D14*
%TO.P,J12,1,Pin_1_1*%
%TO.N,/MAP*%
X128000000Y-56367500D03*
D15*
%TO.P,J12,2,Pin_2_2*%
%TO.N,/CLT*%
X133000000Y-56367500D03*
%TD*%
D17*
%TO.P,J11,1,Pin_1_1*%
%TO.N,GND*%
X145367500Y-63500000D03*
D15*
%TO.P,J11,2,Pin_2_2*%
%TO.N,/CAM2*%
X145367500Y-58500000D03*
%TD*%
D19*
%TO.P,U5,1,VCC_1*%
%TO.N,+3V3*%
X62000000Y-117540000D03*
D20*
%TO.P,U5,2,G=A_2*%
%TO.N,Net-(U1-GPIO23)*%
X62000000Y-115000000D03*
%TO.P,U5,3,A_3*%
%TO.N,Net-(DZ4-K)*%
X62000000Y-112460000D03*
%TO.P,U5,4,H=B_4*%
%TO.N,unconnected-(U5-H=B-Pad4)*%
X62000000Y-109920000D03*
%TO.P,U5,5,B_5*%
%TO.N,unconnected-(U5-B-Pad5)*%
X62000000Y-107380000D03*
%TO.P,U5,6,I=C_6*%
%TO.N,Net-(U1-ADC2_CH7{slash}GPIO27)*%
X62000000Y-104840000D03*
%TO.P,U5,7,C_7*%
%TO.N,Net-(DZ9-K)*%
X62000000Y-102300000D03*
%TO.P,U5,8,VSS_8*%
%TO.N,GND*%
X62000000Y-99760000D03*
%TO.P,U5,9,D_9*%
%TO.N,Net-(DZ1-K)*%
X54380000Y-99760000D03*
%TO.P,U5,10,J=D_10*%
%TO.N,Net-(U1-GPIO19)*%
X54380000Y-102300000D03*
%TO.P,U5,11,E_11*%
%TO.N,Net-(DZ2-K)*%
X54380000Y-104840000D03*
%TO.P,U5,12,K=E_12*%
%TO.N,Net-(U1-GPIO21)*%
X54380000Y-107380000D03*
%TO.P,U5,13,NC_13*%
%TO.N,unconnected-(U5-NC-Pad13)*%
X54380000Y-109920000D03*
%TO.P,U5,14,F_14*%
%TO.N,Net-(DZ3-K)*%
X54380000Y-112460000D03*
%TO.P,U5,15,L=F_15*%
%TO.N,Net-(U1-GPIO22)*%
X54380000Y-115000000D03*
%TO.P,U5,16,NC_16*%
%TO.N,unconnected-(U5-NC-Pad16)*%
X54380000Y-117540000D03*
%TD*%
D11*
%TO.P,R23,1*%
%TO.N,/IGN1*%
X54000000Y-80690000D03*
%TO.P,R23,2*%
%TO.N,Net-(DZ1-K)*%
X54000000Y-88310000D03*
%TD*%
D14*
%TO.P,J4,1,Pin_1_1*%
%TO.N,/IGN3*%
X70500000Y-56367500D03*
D15*
%TO.P,J4,2,Pin_2_2*%
%TO.N,/IGN4*%
X75500000Y-56367500D03*
%TD*%
D11*
%TO.P,R26,1*%
%TO.N,/IGN4*%
X80117600Y-80690000D03*
%TO.P,R26,2*%
%TO.N,Net-(DZ4-K)*%
X80117600Y-88310000D03*
%TD*%
D16*
%TO.P,RV3,1,1_1*%
%TO.N,/TPS*%
X66500000Y-128500000D03*
%TO.P,RV3,2,2_2*%
%TO.N,+5V*%
X56500000Y-131000000D03*
%TO.P,RV3,3,3_3*%
X66500000Y-133500000D03*
%TD*%
D10*
%TO.P,DZ7,1,K_1*%
%TO.N,Net-(DZ7-K)*%
X110588200Y-88310000D03*
D12*
%TO.P,DZ7,2,A_2*%
%TO.N,GND*%
X110588200Y-80690000D03*
%TD*%
D28*
%TO.P,U1,1,3V3_1*%
%TO.N,+3V3*%
X84500000Y-100360000D03*
D29*
%TO.P,U1,2,CHIP_PU_2*%
%TO.N,unconnected-(U1-CHIP_PU-Pad2)*%
X84500000Y-102900000D03*
%TO.P,U1,3,SENSOR_VP/GPIO36/ADC1_CH0_3*%
%TO.N,unconnected-(U1-SENSOR_VP{slash}GPIO36{slash}ADC1_CH0-Pad3)*%
X84500000Y-105440000D03*
%TO.P,U1,4,SENSOR_VN/GPIO39/ADC1_CH3_4*%
%TO.N,unconnected-(U1-SENSOR_VN{slash}GPIO39{slash}ADC1_CH3-Pad4)*%
X84500000Y-107980000D03*
%TO.P,U1,5,VDET_1/GPIO34/ADC1_CH6_5*%
%TO.N,Net-(U1-VDET_1{slash}GPIO34{slash}ADC1_CH6)*%
X84500000Y-110520000D03*
%TO.P,U1,6,VDET_2/GPIO35/ADC1_CH7_6*%
%TO.N,unconnected-(U1-VDET_2{slash}GPIO35{slash}ADC1_CH7-Pad6)*%
X84500000Y-113060000D03*
%TO.P,U1,7,32K_XP/GPIO32/ADC1_CH4_7*%
%TO.N,unconnected-(U1-32K_XP{slash}GPIO32{slash}ADC1_CH4-Pad7)*%
X84500000Y-115600000D03*
%TO.P,U1,8,32K_XN/GPIO33/ADC1_CH5_8*%
%TO.N,unconnected-(U1-32K_XN{slash}GPIO33{slash}ADC1_CH5-Pad8)*%
X84500000Y-118140000D03*
%TO.P,U1,9,DAC_1/ADC2_CH8/GPIO25_9*%
%TO.N,Net-(U1-DAC_1{slash}ADC2_CH8{slash}GPIO25)*%
X84500000Y-120680000D03*
%TO.P,U1,10,DAC_2/ADC2_CH9/GPIO26_10*%
%TO.N,Net-(U1-DAC_2{slash}ADC2_CH9{slash}GPIO26)*%
X84500000Y-123220000D03*
%TO.P,U1,11,ADC2_CH7/GPIO27_11*%
%TO.N,Net-(U1-ADC2_CH7{slash}GPIO27)*%
X84500000Y-125760000D03*
%TO.P,U1,12,MTMS/GPIO14/ADC2_CH6_12*%
%TO.N,Net-(U1-MTMS{slash}GPIO14{slash}ADC2_CH6)*%
X84500000Y-128300000D03*
%TO.P,U1,13,MTDI/GPIO12/ADC2_CH5_13*%
%TO.N,Net-(U1-MTDI{slash}GPIO12{slash}ADC2_CH5)*%
X84500000Y-130840000D03*
%TO.P,U1,14,GND_14*%
%TO.N,GND*%
X84500000Y-133380000D03*
%TO.P,U1,15,MTCK/GPIO13/ADC2_CH4_15*%
%TO.N,Net-(U1-MTCK{slash}GPIO13{slash}ADC2_CH4)*%
X84500000Y-135920000D03*
%TO.P,U1,16,SD_DATA2/GPIO9_16*%
%TO.N,unconnected-(U1-SD_DATA2{slash}GPIO9-Pad16)*%
X84500000Y-138460000D03*
%TO.P,U1,17,SD_DATA3/GPIO10_17*%
%TO.N,unconnected-(U1-SD_DATA3{slash}GPIO10-Pad17)*%
X84500000Y-141000000D03*
%TO.P,U1,18,CMD_18*%
%TO.N,unconnected-(U1-CMD-Pad18)*%
X84500000Y-143540000D03*
%TO.P,U1,19,5V_19*%
%TO.N,Net-(D13-K)*%
X84500000Y-146080000D03*
%TO.P,U1,20,SD_CLK/GPIO6_20*%
%TO.N,unconnected-(U1-SD_CLK{slash}GPIO6-Pad20)*%
X109896320Y-146077280D03*
%TO.P,U1,21,SD_DATA0/GPIO7_21*%
%TO.N,unconnected-(U1-SD_DATA0{slash}GPIO7-Pad21)*%
X109896320Y-143537280D03*
%TO.P,U1,22,SD_DATA1/GPIO8_22*%
%TO.N,unconnected-(U1-SD_DATA1{slash}GPIO8-Pad22)*%
X109900000Y-141000000D03*
%TO.P,U1,23,MTDO/GPIO15/ADC2_CH3_23*%
%TO.N,Net-(U1-MTDO{slash}GPIO15{slash}ADC2_CH3)*%
X109900000Y-138460000D03*
%TO.P,U1,24,ADC2_CH2/GPIO2_24*%
%TO.N,unconnected-(U1-ADC2_CH2{slash}GPIO2-Pad24)*%
X109900000Y-135920000D03*
%TO.P,U1,25,GPIO0/BOOT/ADC2_CH1_25*%
%TO.N,unconnected-(U1-GPIO0{slash}BOOT{slash}ADC2_CH1-Pad25)*%
X109900000Y-133380000D03*
%TO.P,U1,26,ADC2_CH0/GPIO4_26*%
%TO.N,Net-(U1-ADC2_CH0{slash}GPIO4)*%
X109900000Y-130840000D03*
%TO.P,U1,27,GPIO16_27*%
%TO.N,Net-(U1-GPIO16)*%
X109900000Y-128300000D03*
%TO.P,U1,28,GPIO17_28*%
%TO.N,Net-(U1-GPIO17)*%
X109900000Y-125760000D03*
%TO.P,U1,29,GPIO5_29*%
%TO.N,unconnected-(U1-GPIO5-Pad29)*%
X109900000Y-123220000D03*
%TO.P,U1,30,GPIO18_30*%
%TO.N,Net-(U1-GPIO18)*%
X109900000Y-120680000D03*
%TO.P,U1,31,GPIO19_31*%
%TO.N,Net-(U1-GPIO19)*%
X109900000Y-118140000D03*
%TO.P,U1,32,GND_32*%
%TO.N,GND*%
X109900000Y-115600000D03*
%TO.P,U1,33,GPIO21_33*%
%TO.N,Net-(U1-GPIO21)*%
X109900000Y-113060000D03*
%TO.P,U1,34,U0RXD/GPIO3_34*%
%TO.N,unconnected-(U1-U0RXD{slash}GPIO3-Pad34)*%
X109900000Y-110520000D03*
%TO.P,U1,35,U0TXD/GPIO1_35*%
%TO.N,unconnected-(U1-U0TXD{slash}GPIO1-Pad35)*%
X109900000Y-107980000D03*
%TO.P,U1,36,GPIO22_36*%
%TO.N,Net-(U1-GPIO22)*%
X109900000Y-105440000D03*
%TO.P,U1,37,GPIO23_37*%
%TO.N,Net-(U1-GPIO23)*%
X109900000Y-102900000D03*
%TO.P,U1,38,GND_38*%
%TO.N,GND*%
X109900000Y-100360000D03*
%TD*%
D10*
%TO.P,DZ6,1,K_1*%
%TO.N,Net-(DZ6-K)*%
X101882400Y-88310000D03*
D12*
%TO.P,DZ6,2,A_2*%
%TO.N,GND*%
X101882400Y-80690000D03*
%TD*%
D14*
%TO.P,J7,1,Pin_1_1*%
%TO.N,/FAN*%
X105000000Y-56367500D03*
D15*
%TO.P,J7,2,Pin_2_2*%
%TO.N,/IDLE*%
X110000000Y-56367500D03*
%TD*%
D16*
%TO.P,RV4,1,1_1*%
%TO.N,+5V*%
X57500000Y-144000000D03*
%TO.P,RV4,2,2_2*%
X67500000Y-141500000D03*
%TO.P,RV4,3,3_3*%
%TO.N,/O2*%
X57500000Y-139000000D03*
%TD*%
D11*
%TO.P,R18,1*%
%TO.N,Net-(U4B--)*%
X132190000Y-124500000D03*
%TO.P,R18,2*%
%TO.N,GND*%
X139810000Y-124500000D03*
%TD*%
D17*
%TO.P,J9,1,Pin_1_1*%
%TO.N,/CAM1*%
X145367500Y-75000000D03*
D15*
%TO.P,J9,2,Pin_2_2*%
%TO.N,GND*%
X145367500Y-70000000D03*
%TD*%
D11*
%TO.P,R24,1*%
%TO.N,/IGN2*%
X62705900Y-80690000D03*
%TO.P,R24,2*%
%TO.N,Net-(DZ2-K)*%
X62705900Y-88310000D03*
%TD*%
D14*
%TO.P,J8,1,Pin_1_1*%
%TO.N,/VVT*%
X116500000Y-56367500D03*
D15*
%TO.P,J8,2,Pin_2_2*%
%TO.N,/BOOST*%
X121500000Y-56367500D03*
%TD*%
D11*
%TO.P,R27,1*%
%TO.N,/INJ1*%
X88823500Y-80690000D03*
%TO.P,R27,2*%
%TO.N,Net-(DZ5-K)*%
X88823500Y-88310000D03*
%TD*%
D14*
%TO.P,J6,1,Pin_1_1*%
%TO.N,/INJ3*%
X93000000Y-56367500D03*
D15*
%TO.P,J6,2,Pin_2_2*%
%TO.N,/INJ4*%
X98000000Y-56367500D03*
%TD*%
D18*
%TO.P,MH3,1*%
%TO.N,GND*%
X53000000Y-148000000D03*
%TD*%
D11*
%TO.P,R13,1*%
%TO.N,Net-(U1-DAC_1{slash}ADC2_CH8{slash}GPIO25)*%
X115500000Y-121000000D03*
%TO.P,R13,2*%
%TO.N,GND*%
X115500000Y-128620000D03*
%TD*%
D30*
%TO.P,SW2,1,1_1*%
%TO.N,Net-(U1-ADC2_CH0{slash}GPIO4)*%
X145500000Y-112000000D03*
D31*
%TO.P,SW2,2,2_2*%
%TO.N,GND*%
X145500000Y-118500000D03*
%TD*%
D11*
%TO.P,R22,1*%
%TO.N,Net-(U1-VDET_1{slash}GPIO34{slash}ADC1_CH6)*%
X77500000Y-123690000D03*
%TO.P,R22,2*%
%TO.N,GND*%
X77500000Y-131310000D03*
%TD*%
D32*
%TO.P,RV2,1,1_1*%
%TO.N,GND*%
X120500000Y-106500000D03*
%TO.P,RV2,2,2_2*%
X123000000Y-104000000D03*
%TO.P,RV2,3,3_3*%
%TO.N,Net-(U4A--)*%
X125500000Y-106500000D03*
%TD*%
D25*
%TO.P,U4,1*%
%TO.N,/MAP*%
X119690000Y-116190000D03*
D20*
%TO.P,U4,2,-_2*%
%TO.N,Net-(U4A--)*%
X119690000Y-118730000D03*
%TO.P,U4,3,+_3*%
%TO.N,Net-(U1-DAC_1{slash}ADC2_CH8{slash}GPIO25)*%
X119690000Y-121270000D03*
%TO.P,U4,4,V-_4*%
%TO.N,GND*%
X119690000Y-123810000D03*
%TO.P,U4,5,+_5*%
%TO.N,Net-(U1-DAC_2{slash}ADC2_CH9{slash}GPIO26)*%
X127310000Y-123810000D03*
%TO.P,U4,6,-_6*%
%TO.N,Net-(U4B--)*%
X127310000Y-121270000D03*
%TO.P,U4,7*%
%TO.N,/CLT*%
X127310000Y-118730000D03*
%TO.P,U4,8,V+_8*%
%TO.N,+5V*%
X127310000Y-116190000D03*
%TD*%
D10*
%TO.P,DZ2,1,K_1*%
%TO.N,Net-(DZ2-K)*%
X67058800Y-88310000D03*
D12*
%TO.P,DZ2,2,A_2*%
%TO.N,GND*%
X67058800Y-80690000D03*
%TD*%
D18*
%TO.P,MH4,1*%
%TO.N,GND*%
X148000000Y-148000000D03*
%TD*%
D10*
%TO.P,C7,1*%
%TO.N,Net-(D13-K)*%
X115500000Y-146000000D03*
D11*
%TO.P,C7,2*%
%TO.N,GND*%
X115500000Y-148000000D03*
%TD*%
D32*
%TO.P,RV1,1,1_1*%
%TO.N,GND*%
X138500000Y-114150000D03*
%TO.P,RV1,2,2_2*%
X136000000Y-116650000D03*
%TO.P,RV1,3,3_3*%
%TO.N,Net-(U4B--)*%
X133500000Y-114150000D03*
%TD*%
D10*
%TO.P,C4,1*%
%TO.N,+12V*%
X141044900Y-146500000D03*
D11*
%TO.P,C4,2*%
%TO.N,GND*%
X143044900Y-146500000D03*
%TD*%
%TO.P,R21,1*%
%TO.N,/TPS*%
X72000000Y-131310000D03*
%TO.P,R21,2*%
%TO.N,Net-(U1-VDET_1{slash}GPIO34{slash}ADC1_CH6)*%
X72000000Y-123690000D03*
%TD*%
D13*
%TO.P,C3,1*%
%TO.N,+5V*%
X126000000Y-128500000D03*
%TO.P,C3,2*%
%TO.N,GND*%
X121000000Y-128500000D03*
%TD*%
D11*
%TO.P,R30,1*%
%TO.N,/INJ4*%
X114941200Y-80690000D03*
%TO.P,R30,2*%
%TO.N,Net-(DZ8-K)*%
X114941200Y-88310000D03*
%TD*%
D33*
%TO.N,/FAN*%
X102132700Y-62093600D03*
%TO.N,Net-(U1-MTDO{slash}GPIO15{slash}ADC2_CH3)*%
X87641000Y-110340300D03*
%TO.N,Net-(U1-GPIO16)*%
X95322000Y-106629800D03*
%TO.N,Net-(U1-GPIO17)*%
X72716100Y-121755500D03*
%TO.N,Net-(U1-GPIO18)*%
X99403800Y-109000000D03*
%TO.N,/CRANK*%
X78870500Y-82412000D03*
X133564600Y-88274000D03*
%TO.N,Net-(U1-MTCK{slash}GPIO13{slash}ADC2_CH4)*%
X86369700Y-95500000D03*
%TO.N,Net-(U1-MTMS{slash}GPIO14{slash}ADC2_CH6)*%
X85528800Y-104323800D03*
%TO.N,Net-(U1-ADC2_CH7{slash}GPIO27)*%
X74404800Y-108265100D03*
%TO.N,Net-(U1-GPIO19)*%
X101002700Y-109869200D03*
%TD*%
%TO.N,+5V*%
D34*
X67500000Y-141500000D02*
X67505000Y-141500000D01*
X124221600Y-146000000D02*
X124176700Y-146044900D01*
X64000000Y-131000000D02*
X66500000Y-133500000D01*
X56500000Y-131000000D02*
X64000000Y-131000000D01*
X67505000Y-141500000D02*
X70500000Y-144495000D01*
X80500000Y-141995000D02*
X73000000Y-141995000D01*
X80500000Y-141995000D02*
X117773400Y-141995000D01*
X123000000Y-146044900D02*
X121823300Y-146044900D01*
X117773400Y-141995000D02*
X121823300Y-146044900D01*
X73000000Y-141995000D02*
X70500000Y-144495000D01*
X130000000Y-146000000D02*
X124221600Y-146000000D01*
X123000000Y-146044900D02*
X124176700Y-146044900D01*
%TO.N,GND*%
X109900000Y-115600000D02*
X111276700Y-115600000D01*
X109411500Y-80690000D02*
X107899400Y-80690000D01*
X114550000Y-129570000D02*
X115500000Y-128620000D01*
X73865200Y-134944800D02*
X77500000Y-131310000D01*
X121000000Y-128500000D02*
X115620000Y-128500000D01*
X75764700Y-80690000D02*
X76941400Y-80690000D01*
X123000000Y-101290000D02*
X130213300Y-101290000D01*
X107899400Y-80689900D02*
X106722800Y-79513300D01*
X112941600Y-81866700D02*
X116940700Y-81866700D01*
X110588200Y-80690000D02*
X111764900Y-80690000D01*
X125646600Y-81866700D02*
X126823300Y-80690000D01*
X130495100Y-148044900D02*
X123000000Y-148044900D01*
X143650000Y-116650000D02*
X145500000Y-118500000D01*
X130213300Y-101290000D02*
X130923300Y-100580000D01*
X136616700Y-103120000D02*
X134076700Y-100580000D01*
X145367500Y-70000000D02*
X147294200Y-71926700D01*
X135500000Y-134500000D02*
X128500000Y-134500000D01*
X146500000Y-146500000D02*
X148000000Y-148000000D01*
X123000000Y-104000000D02*
X120500000Y-106500000D01*
X84500000Y-133380000D02*
X85876700Y-133380000D01*
X67058800Y-80690000D02*
X65882100Y-80690000D01*
X107899400Y-80690000D02*
X107899400Y-80689900D01*
X138960000Y-86500000D02*
X135796700Y-89663300D01*
X128000000Y-80690000D02*
X126823300Y-80690000D01*
X56972000Y-148000000D02*
X70027200Y-134944800D01*
X145367500Y-134500000D02*
X135500000Y-134500000D01*
X89686700Y-129570000D02*
X114550000Y-129570000D01*
X138500000Y-112623300D02*
X138500000Y-114150000D01*
X69412200Y-79513300D02*
X73411300Y-79513300D01*
X135796700Y-89663300D02*
X134241300Y-88108000D01*
X104235800Y-79513300D02*
X103059100Y-80690000D01*
X123000000Y-101290000D02*
X123000000Y-104000000D01*
X93176500Y-80690000D02*
X91999800Y-80690000D01*
X147294200Y-84573300D02*
X145367500Y-86500000D01*
X58352900Y-80690000D02*
X59529600Y-80690000D01*
X85647300Y-81882100D02*
X85647300Y-80690000D01*
X145367500Y-86500000D02*
X138960000Y-86500000D01*
X79570000Y-133380000D02*
X77500000Y-131310000D01*
X100705700Y-80690000D02*
X99512100Y-81883600D01*
X70027200Y-134944800D02*
X73865200Y-134944800D01*
X93176500Y-80690000D02*
X94353200Y-80690000D01*
X60706300Y-79513300D02*
X59529600Y-80690000D01*
X84500000Y-133380000D02*
X79570000Y-133380000D01*
X122955100Y-148000000D02*
X123000000Y-148044900D01*
X99300000Y-71000000D02*
X101840000Y-71000000D01*
X76120000Y-100110000D02*
X74543300Y-100110000D01*
X53000000Y-148000000D02*
X56972000Y-148000000D01*
X111764900Y-80690000D02*
X112941600Y-81866700D01*
X120500000Y-106500000D02*
X119190000Y-106500000D01*
X111276700Y-114413300D02*
X115500000Y-110190000D01*
X85876700Y-133380000D02*
X89686700Y-129570000D01*
X95546800Y-81883600D02*
X94353200Y-80690000D01*
X119190000Y-106500000D02*
X115500000Y-110190000D01*
X65882100Y-80690000D02*
X64705400Y-79513300D01*
X78105500Y-80690000D02*
X76941400Y-80690000D01*
X134076700Y-105660000D02*
X136616700Y-103120000D01*
X134076700Y-108200000D02*
X138500000Y-112623300D01*
X90807700Y-81882100D02*
X85647300Y-81882100D01*
X136000000Y-116650000D02*
X143650000Y-116650000D01*
X115620000Y-128500000D02*
X115500000Y-128620000D01*
X110588200Y-80690000D02*
X109411500Y-80690000D01*
X136000000Y-116650000D02*
X138500000Y-114150000D01*
X132500000Y-100580000D02*
X130923300Y-100580000D01*
X63576700Y-99760000D02*
X64430700Y-98906000D01*
X132540000Y-146000000D02*
X130495100Y-148044900D01*
X134241300Y-87993700D02*
X133844900Y-87597300D01*
X119294100Y-80690000D02*
X118117400Y-80690000D01*
X143044900Y-146500000D02*
X146500000Y-146500000D01*
X128000000Y-80690000D02*
X128000000Y-81866700D01*
X99512100Y-81883600D02*
X95546800Y-81883600D01*
X91999800Y-80690000D02*
X90807700Y-81882100D01*
X109900000Y-100360000D02*
X122070000Y-100360000D01*
X84470600Y-80690000D02*
X85647300Y-80690000D01*
X119294100Y-80690000D02*
X120470800Y-80690000D01*
X73411300Y-79513300D02*
X74588000Y-80690000D01*
X135796700Y-89663300D02*
X132500000Y-92960000D01*
X133730600Y-87597300D02*
X128000000Y-81866700D01*
X106722800Y-79513300D02*
X104235800Y-79513300D01*
X133844900Y-87597300D02*
X133730600Y-87597300D01*
X101882400Y-80690000D02*
X100705700Y-80690000D01*
X122070000Y-100360000D02*
X123000000Y-101290000D01*
X132500000Y-100580000D02*
X134076700Y-100580000D01*
X85647300Y-81882100D02*
X79297600Y-81882100D01*
X134076700Y-108200000D02*
X134076700Y-105660000D01*
X68235500Y-80690000D02*
X69412200Y-79513300D01*
X67058800Y-80690000D02*
X68235500Y-80690000D01*
X75764700Y-80690000D02*
X74588000Y-80690000D01*
X111276700Y-115600000D02*
X111276700Y-114413300D01*
X140120000Y-103120000D02*
X136616700Y-103120000D01*
X64705400Y-79513300D02*
X60706300Y-79513300D01*
X115500000Y-148000000D02*
X122955100Y-148000000D01*
X62000000Y-99760000D02*
X63576700Y-99760000D01*
X132500000Y-108200000D02*
X134076700Y-108200000D01*
X101882400Y-80690000D02*
X103059100Y-80690000D01*
X64430700Y-98906000D02*
X73339300Y-98906000D01*
X134241300Y-88108000D02*
X134241300Y-87993700D01*
X79297600Y-81882100D02*
X78105500Y-80690000D01*
X147294200Y-71926700D02*
X147294200Y-84573300D01*
X121647500Y-81866700D02*
X125646600Y-81866700D01*
X116940700Y-81866700D02*
X118117400Y-80690000D01*
X120470800Y-80690000D02*
X121647500Y-81866700D01*
X73339300Y-98906000D02*
X74543300Y-100110000D01*
%TO.N,Net-(DZ9-K)*%
D35*
X88047400Y-86797200D02*
X95790300Y-86797200D01*
X95791800Y-86798700D02*
X122135800Y-86798700D01*
X122135800Y-86798700D02*
X123647100Y-88310000D01*
X61835200Y-97915200D02*
X76929400Y-97915200D01*
X95790300Y-86797200D02*
X95791800Y-86798700D01*
X123647100Y-88310000D02*
X128000000Y-88310000D01*
X60498300Y-102300000D02*
X60498300Y-99252100D01*
X76929400Y-97915200D02*
X88047400Y-86797200D01*
X60498300Y-99252100D02*
X61835200Y-97915200D01*
X62000000Y-102300000D02*
X60498300Y-102300000D01*
%TO.N,Net-(DZ8-K)*%
X68500000Y-105190000D02*
X70001700Y-105190000D01*
X112815800Y-90435400D02*
X114941200Y-88310000D01*
X76764900Y-104006400D02*
X90335900Y-90435400D01*
X114941200Y-88310000D02*
X119294100Y-88310000D01*
X71185300Y-104006400D02*
X76764900Y-104006400D01*
X90335900Y-90435400D02*
X112815800Y-90435400D01*
X70001700Y-105190000D02*
X71185300Y-104006400D01*
%TO.N,Net-(D13-K)*%
D34*
X87221700Y-147500000D02*
X112898300Y-147500000D01*
X114398300Y-146000000D02*
X115500000Y-146000000D01*
X85801700Y-146080000D02*
X87221700Y-147500000D01*
X112898300Y-147500000D02*
X114398300Y-146000000D01*
X84500000Y-146080000D02*
X85801700Y-146080000D01*
%TO.N,/IGN1*%
D35*
X104380000Y-68460000D02*
X103110000Y-69730000D01*
X103110000Y-69730000D02*
X103110000Y-71396300D01*
X59507300Y-75182700D02*
X54000000Y-80690000D01*
X99323600Y-75182700D02*
X59507300Y-75182700D01*
X103110000Y-71396300D02*
X99323600Y-75182700D01*
%TO.N,Net-(DZ7-K)*%
X94840200Y-89432000D02*
X88756100Y-89432000D01*
X105133600Y-87208300D02*
X97063900Y-87208300D01*
X71152400Y-101260700D02*
X70001700Y-100110000D01*
X76927400Y-101260700D02*
X71152400Y-101260700D01*
X88756100Y-89432000D02*
X76927400Y-101260700D01*
X97063900Y-87208300D02*
X94840200Y-89432000D01*
X106235300Y-88310000D02*
X110588200Y-88310000D01*
X68500000Y-100110000D02*
X70001700Y-100110000D01*
X106235300Y-88310000D02*
X105133600Y-87208300D01*
%TO.N,/FAN*%
X94220000Y-68460000D02*
X100586400Y-62093600D01*
X100586400Y-62093600D02*
X102132700Y-62093600D01*
%TO.N,Net-(DZ3-K)*%
X71411800Y-88310000D02*
X75764700Y-88310000D01*
%TO.N,/MAP*%
X105320800Y-62439200D02*
X121928300Y-62439200D01*
X121928300Y-62439200D02*
X128000000Y-56367500D01*
X99300000Y-68460000D02*
X105320800Y-62439200D01*
%TO.N,Net-(U4A--)*%
X116420000Y-118730000D02*
X115500000Y-117810000D01*
X119690000Y-118730000D02*
X116420000Y-118730000D01*
%TO.N,+12V*%
D34*
X141044900Y-146500000D02*
X136909200Y-146500000D01*
X145367500Y-139500000D02*
X135500000Y-139500000D01*
X136909200Y-146500000D02*
X136409200Y-146000000D01*
X135080000Y-146000000D02*
X136409200Y-146000000D01*
%TO.N,+3V3*%
X74907500Y-116677500D02*
X76120000Y-117890000D01*
X62000000Y-117540000D02*
X62862500Y-116677500D01*
X62862500Y-116677500D02*
X74907500Y-116677500D01*
%TO.N,Net-(U1-MTDO{slash}GPIO15{slash}ADC2_CH3)*%
D35*
X87641000Y-110340300D02*
X86541400Y-111439900D01*
X86541400Y-111439900D02*
X83499900Y-111439900D01*
X82330000Y-110270000D02*
X76120000Y-110270000D01*
X83499900Y-111439900D02*
X82330000Y-110270000D01*
%TO.N,Net-(DZ5-K)*%
X88823500Y-88310000D02*
X93176500Y-88310000D01*
%TO.N,Net-(U1-GPIO16)*%
X79061500Y-106629800D02*
X95322000Y-106629800D01*
X77621700Y-105190000D02*
X79061500Y-106629800D01*
X76120000Y-105190000D02*
X77621700Y-105190000D01*
%TO.N,Net-(DZ6-K)*%
X97529400Y-88310000D02*
X101882400Y-88310000D01*
X95805700Y-90033700D02*
X97529400Y-88310000D01*
X88736300Y-90033700D02*
X95805700Y-90033700D01*
X76120000Y-102650000D02*
X88736300Y-90033700D01*
%TO.N,Net-(U1-GPIO17)*%
X90357200Y-125760000D02*
X86352700Y-121755500D01*
X86352700Y-121755500D02*
X72716100Y-121755500D01*
X108598300Y-125760000D02*
X90357200Y-125760000D01*
X109900000Y-125760000D02*
X108598300Y-125760000D01*
%TO.N,Net-(U1-GPIO18)*%
X68500000Y-107730000D02*
X70001700Y-107730000D01*
X70001700Y-107730000D02*
X71271700Y-109000000D01*
X71271700Y-109000000D02*
X99403800Y-109000000D01*
%TO.N,/INJ1*%
X91357000Y-78156500D02*
X88823500Y-80690000D01*
X104703500Y-72950000D02*
X99497000Y-78156500D01*
X109197900Y-72950000D02*
X104703500Y-72950000D01*
X110611700Y-69848300D02*
X110611700Y-71536200D01*
X99497000Y-78156500D02*
X91357000Y-78156500D01*
X112000000Y-68460000D02*
X110611700Y-69848300D01*
X110611700Y-71536200D02*
X109197900Y-72950000D01*
%TO.N,/INJ2*%
X104628500Y-78371500D02*
X112000000Y-71000000D01*
X97529400Y-80690000D02*
X97531500Y-80690000D01*
X97531500Y-80690000D02*
X99850000Y-78371500D01*
X99850000Y-78371500D02*
X104628500Y-78371500D01*
%TO.N,/IGN4*%
X97766600Y-77613400D02*
X104380000Y-71000000D01*
X80117600Y-80690000D02*
X83194200Y-77613400D01*
X83194200Y-77613400D02*
X97766600Y-77613400D01*
%TO.N,/5V*%
D34*
X96760000Y-68460000D02*
X95490000Y-69730000D01*
X80250000Y-69730000D02*
X78980000Y-71000000D01*
X95490000Y-69730000D02*
X80250000Y-69730000D01*
%TO.N,/CLT*%
D35*
X137730000Y-118730000D02*
X140000000Y-121000000D01*
X118974200Y-61491900D02*
X96108100Y-61491900D01*
X127310000Y-118730000D02*
X137730000Y-118730000D01*
X96108100Y-61491900D02*
X89140000Y-68460000D01*
X133000000Y-56367500D02*
X131168700Y-54536200D01*
X125929900Y-54536200D02*
X118974200Y-61491900D01*
X131168700Y-54536200D02*
X125929900Y-54536200D01*
%TO.N,/TPS*%
X69190000Y-128500000D02*
X72000000Y-131310000D01*
X66500000Y-128500000D02*
X69190000Y-128500000D01*
%TO.N,/CAM1*%
X95608300Y-71253500D02*
X94699700Y-72162100D01*
X94699700Y-72162100D02*
X85222100Y-72162100D01*
X102991700Y-68183400D02*
X102991700Y-68961700D01*
X85222100Y-72162100D02*
X84060000Y-71000000D01*
X137672400Y-67304900D02*
X103870200Y-67304900D01*
X96379000Y-69730000D02*
X95608300Y-70500700D01*
X145367500Y-75000000D02*
X137672400Y-67304900D01*
X103870200Y-67304900D02*
X102991700Y-68183400D01*
X102223400Y-69730000D02*
X96379000Y-69730000D01*
X95608300Y-70500700D02*
X95608300Y-71253500D01*
X102991700Y-68961700D02*
X102223400Y-69730000D01*
%TO.N,/CRANK*%
X127702600Y-82412000D02*
X78870500Y-82412000D01*
X133564600Y-88274000D02*
X127702600Y-82412000D01*
%TO.N,/BOOST*%
D34*
X121500000Y-56367500D02*
X116852300Y-61015200D01*
X76264800Y-61015200D02*
X68820000Y-68460000D01*
X116852300Y-61015200D02*
X76264800Y-61015200D01*
%TO.N,/IDLE*%
D35*
X107857500Y-58510000D02*
X76230000Y-58510000D01*
X76230000Y-58510000D02*
X66280000Y-68460000D01*
X110000000Y-56367500D02*
X107857500Y-58510000D01*
%TO.N,/VVT*%
X75974000Y-59592600D02*
X67550000Y-68016600D01*
X116500000Y-56367500D02*
X113274900Y-59592600D01*
X113274900Y-59592600D02*
X75974000Y-59592600D01*
X67550000Y-69730000D02*
X66280000Y-71000000D01*
X67550000Y-68016600D02*
X67550000Y-69730000D01*
%TO.N,Net-(U1-DAC_2{slash}ADC2_CH9{slash}GPIO26)*%
X127310000Y-123810000D02*
X125808300Y-123810000D01*
X127310000Y-123810000D02*
X128811700Y-123810000D01*
X132380000Y-128500000D02*
X128811700Y-124931700D01*
X85801700Y-123220000D02*
X89645100Y-127063400D01*
X89645100Y-127063400D02*
X122554900Y-127063400D01*
X128811700Y-124931700D02*
X128811700Y-123810000D01*
X84500000Y-123220000D02*
X85801700Y-123220000D01*
X122554900Y-127063400D02*
X125808300Y-123810000D01*
%TO.N,Net-(DZ1-K)*%
X54000000Y-88310000D02*
X58352900Y-88310000D01*
%TO.N,Net-(U1-MTCK{slash}GPIO13{slash}ADC2_CH4)*%
X132500000Y-95500000D02*
X86369700Y-95500000D01*
%TO.N,Net-(U1-MTDI{slash}GPIO12{slash}ADC2_CH5)*%
X84500000Y-130840000D02*
X83198300Y-130840000D01*
X121191700Y-118209700D02*
X130998300Y-108403100D01*
X110763100Y-126661700D02*
X114884800Y-122540000D01*
X120423700Y-122540000D02*
X121191700Y-121772000D01*
X132500000Y-103120000D02*
X130998300Y-103120000D01*
X114884800Y-122540000D02*
X120423700Y-122540000D01*
X130998300Y-108403100D02*
X130998300Y-103120000D01*
X121191700Y-121772000D02*
X121191700Y-118209700D01*
X83676200Y-122307300D02*
X86136300Y-122307300D01*
X83198300Y-122785200D02*
X83676200Y-122307300D01*
X90490700Y-126661700D02*
X110763100Y-126661700D01*
X86136300Y-122307300D02*
X90490700Y-126661700D01*
X83198300Y-130840000D02*
X83198300Y-122785200D01*
%TO.N,Net-(U1-MTMS{slash}GPIO14{slash}ADC2_CH6)*%
X141621700Y-102658300D02*
X141621700Y-105660000D01*
X140813400Y-101850000D02*
X141621700Y-102658300D01*
X85528800Y-104323800D02*
X90437200Y-99415400D01*
X90437200Y-99415400D02*
X135091600Y-99415400D01*
X140120000Y-105660000D02*
X141621700Y-105660000D01*
X137526200Y-101850000D02*
X140813400Y-101850000D01*
X135091600Y-99415400D02*
X137526200Y-101850000D01*
%TO.N,Net-(U4B--)*%
X127310000Y-121270000D02*
X132110000Y-121270000D01*
X132110000Y-121270000D02*
X132380000Y-121000000D01*
%TO.N,Net-(DZ4-K)*%
X61668900Y-97513500D02*
X60096600Y-99085800D01*
X80117600Y-88310000D02*
X84470600Y-88310000D01*
X60096600Y-99085800D02*
X60096600Y-112058300D01*
X70914100Y-97513500D02*
X61668900Y-97513500D01*
X60096600Y-112058300D02*
X60498300Y-112460000D01*
X62000000Y-112460000D02*
X60498300Y-112460000D01*
X80117600Y-88310000D02*
X70914100Y-97513500D01*
%TO.N,Net-(U1-GPIO23)*%
X63501700Y-115000000D02*
X64421700Y-114080000D01*
X108598300Y-103124500D02*
X108598300Y-102900000D01*
X109900000Y-102900000D02*
X108598300Y-102900000D01*
X97642800Y-114080000D02*
X108598300Y-103124500D01*
X64421700Y-114080000D02*
X97642800Y-114080000D01*
X62000000Y-115000000D02*
X63501700Y-115000000D01*
%TO.N,Net-(U1-ADC2_CH7{slash}GPIO27)*%
X72599700Y-106460000D02*
X74404800Y-108265100D01*
X63501700Y-104840000D02*
X65121700Y-106460000D01*
X65121700Y-106460000D02*
X72599700Y-106460000D01*
X62000000Y-104840000D02*
X63501700Y-104840000D01*
%TO.N,Net-(U1-GPIO19)*%
X83170700Y-111878900D02*
X98993000Y-111878900D01*
X82982400Y-111690600D02*
X83170700Y-111878900D01*
X61038700Y-113575300D02*
X62842800Y-113575300D01*
X62842800Y-113575300D02*
X64727500Y-111690600D01*
X64727500Y-111690600D02*
X82982400Y-111690600D01*
X98993000Y-111878900D02*
X101002700Y-109869200D01*
X55881700Y-108418300D02*
X61038700Y-113575300D01*
X55881700Y-102300000D02*
X55881700Y-108418300D01*
X54380000Y-102300000D02*
X55881700Y-102300000D01*
%TO.N,Net-(DZ2-K)*%
X62705900Y-88310000D02*
X67058800Y-88310000D01*
%TO.N,Net-(U1-GPIO21)*%
X54380000Y-107380000D02*
X52878300Y-107380000D01*
X55310000Y-116270000D02*
X53639200Y-116270000D01*
X109900000Y-113060000D02*
X108598300Y-113060000D01*
X53639200Y-116270000D02*
X52878300Y-115509100D01*
X52878300Y-115509100D02*
X52878300Y-107380000D01*
X102165900Y-119492400D02*
X58532400Y-119492400D01*
X58532400Y-119492400D02*
X55310000Y-116270000D01*
X108598300Y-113060000D02*
X102165900Y-119492400D01*
%TO.N,Net-(U1-GPIO22)*%
X54380000Y-115000000D02*
X55881700Y-115000000D01*
X94981800Y-119056500D02*
X59938200Y-119056500D01*
X109900000Y-105440000D02*
X108598300Y-105440000D01*
X59938200Y-119056500D02*
X55881700Y-115000000D01*
X108598300Y-105440000D02*
X94981800Y-119056500D01*
%TO.N,Net-(U1-VDET_1{slash}GPIO34{slash}ADC1_CH6)*%
X72000000Y-123690000D02*
X77500000Y-123690000D01*
%TO.N,Net-(U1-DAC_1{slash}ADC2_CH8{slash}GPIO25)*%
X86758900Y-121593700D02*
X85845200Y-120680000D01*
X115770000Y-121270000D02*
X115500000Y-121000000D01*
X115500000Y-121000000D02*
X114906300Y-121593700D01*
X85845200Y-120680000D02*
X85801700Y-120680000D01*
X84500000Y-120680000D02*
X85801700Y-120680000D01*
X114906300Y-121593700D02*
X86758900Y-121593700D01*
X119690000Y-121270000D02*
X115770000Y-121270000D01*
%TO.N,Net-(U1-ADC2_CH0{slash}GPIO4)*%
X109900000Y-130840000D02*
X135270600Y-130840000D01*
X146944800Y-114871500D02*
X145500000Y-113426700D01*
X146944800Y-119165800D02*
X146944800Y-114871500D01*
X145500000Y-112000000D02*
X145500000Y-113426700D01*
X135270600Y-130840000D02*
X146944800Y-119165800D01*
%TD*%
M02*
